%TF.GenerationSoftware,KiCad,Pcbnew,7.0.2*%
%TF.CreationDate,2024-03-19T15:43:20+05:30*%
%TF.ProjectId,gauss_meter_kicad,67617573-735f-46d6-9574-65725f6b6963,rev?*%
%TF.SameCoordinates,Original*%
%TF.FileFunction,Soldermask,Top*%
%TF.FilePolarity,Negative*%
%FSLAX46Y46*%
G04 Gerber Fmt 4.6, Leading zero omitted, Abs format (unit mm)*
G04 Created by KiCad (PCBNEW 7.0.2) date 2024-03-19 15:43:20*
%MOMM*%
%LPD*%
G01*
G04 APERTURE LIST*
G04 Aperture macros list*
%AMRoundRect*
0 Rectangle with rounded corners*
0 $1 Rounding radius*
0 $2 $3 $4 $5 $6 $7 $8 $9 X,Y pos of 4 corners*
0 Add a 4 corners polygon primitive as box body*
4,1,4,$2,$3,$4,$5,$6,$7,$8,$9,$2,$3,0*
0 Add four circle primitives for the rounded corners*
1,1,$1+$1,$2,$3*
1,1,$1+$1,$4,$5*
1,1,$1+$1,$6,$7*
1,1,$1+$1,$8,$9*
0 Add four rect primitives between the rounded corners*
20,1,$1+$1,$2,$3,$4,$5,0*
20,1,$1+$1,$4,$5,$6,$7,0*
20,1,$1+$1,$6,$7,$8,$9,0*
20,1,$1+$1,$8,$9,$2,$3,0*%
G04 Aperture macros list end*
%ADD10C,4.000000*%
%ADD11RoundRect,0.102000X0.825000X-0.825000X0.825000X0.825000X-0.825000X0.825000X-0.825000X-0.825000X0*%
%ADD12C,1.854000*%
%ADD13C,2.800000*%
%ADD14O,2.800000X2.800000*%
%ADD15RoundRect,0.102000X-0.565000X-0.565000X0.565000X-0.565000X0.565000X0.565000X-0.565000X0.565000X0*%
%ADD16C,1.334000*%
%ADD17RoundRect,0.102000X-0.780000X-0.780000X0.780000X-0.780000X0.780000X0.780000X-0.780000X0.780000X0*%
%ADD18C,1.764000*%
%ADD19C,5.000000*%
%ADD20RoundRect,0.102000X0.685000X-0.685000X0.685000X0.685000X-0.685000X0.685000X-0.685000X-0.685000X0*%
%ADD21C,1.574000*%
%ADD22R,1.800000X1.800000*%
%ADD23C,1.800000*%
%ADD24R,1.524000X1.524000*%
%ADD25C,1.524000*%
G04 APERTURE END LIST*
D10*
%TO.C,*%
X185000000Y-94000000D03*
%TD*%
%TO.C,*%
X75000000Y-94000000D03*
%TD*%
%TO.C,*%
X75000000Y-149000000D03*
%TD*%
%TO.C,*%
X185000000Y-149000000D03*
%TD*%
%TO.C,*%
X185000000Y-39000000D03*
%TD*%
%TO.C,*%
X75000000Y-39000000D03*
%TD*%
D11*
%TO.C,HOLD_HDR1*%
X86560000Y-94798000D03*
D12*
X86560000Y-90988000D03*
%TD*%
D13*
%TO.C,R3*%
X128334000Y-75946000D03*
D14*
X103734000Y-75946000D03*
%TD*%
D13*
%TO.C,R10*%
X130000000Y-141746000D03*
D14*
X130000000Y-117146000D03*
%TD*%
D11*
%TO.C,SW3_HDR1*%
X86560000Y-139798000D03*
D12*
X86560000Y-135988000D03*
%TD*%
D13*
%TO.C,R12*%
X160000000Y-87254000D03*
D14*
X160000000Y-111854000D03*
%TD*%
D11*
%TO.C,PWR_HDR1*%
X86560000Y-124798000D03*
D12*
X86560000Y-120988000D03*
%TD*%
D15*
%TO.C,U1*%
X105410000Y-92690000D03*
D16*
X105410000Y-95230000D03*
X105410000Y-97770000D03*
X105410000Y-100310000D03*
X113350000Y-100310000D03*
X113350000Y-97770000D03*
X113350000Y-95230000D03*
X113350000Y-92690000D03*
%TD*%
D13*
%TO.C,R13*%
X104076000Y-70612000D03*
D14*
X128676000Y-70612000D03*
%TD*%
D13*
%TO.C,R5*%
X140000000Y-87254000D03*
D14*
X140000000Y-111854000D03*
%TD*%
D11*
%TO.C,NULL_HDR1*%
X86560000Y-109798000D03*
D12*
X86560000Y-105988000D03*
%TD*%
D13*
%TO.C,R9*%
X140000000Y-141746000D03*
D14*
X140000000Y-117146000D03*
%TD*%
D15*
%TO.C,U2*%
X105410000Y-108190000D03*
D16*
X105410000Y-110730000D03*
X105410000Y-113270000D03*
X105410000Y-115810000D03*
X113350000Y-115810000D03*
X113350000Y-113270000D03*
X113350000Y-110730000D03*
X113350000Y-108190000D03*
%TD*%
D13*
%TO.C,R1*%
X160000000Y-141746000D03*
D14*
X160000000Y-117146000D03*
%TD*%
D13*
%TO.C,R2*%
X130000000Y-87254000D03*
D14*
X130000000Y-111854000D03*
%TD*%
D13*
%TO.C,R4*%
X103822000Y-80518000D03*
D14*
X128422000Y-80518000D03*
%TD*%
D17*
%TO.C,U3*%
X96680000Y-95810000D03*
D18*
X96680000Y-98350000D03*
X96680000Y-100890000D03*
X96680000Y-103430000D03*
X96680000Y-105970000D03*
X96680000Y-108510000D03*
X96680000Y-111050000D03*
X96680000Y-113590000D03*
X96680000Y-116130000D03*
X96680000Y-118670000D03*
X96680000Y-121210000D03*
X96680000Y-123750000D03*
X96680000Y-126290000D03*
X96680000Y-128830000D03*
X96680000Y-131370000D03*
X96680000Y-133910000D03*
X96680000Y-136450000D03*
X96680000Y-138990000D03*
X96680000Y-141530000D03*
X122080000Y-95810000D03*
X122080000Y-98350000D03*
X122080000Y-100890000D03*
X122080000Y-103430000D03*
X122080000Y-105970000D03*
X122080000Y-108510000D03*
X122080000Y-111050000D03*
X122080000Y-113590000D03*
X122080000Y-116130000D03*
X122080000Y-118670000D03*
X122080000Y-121210000D03*
X122080000Y-123750000D03*
X122080000Y-126290000D03*
X122080000Y-128830000D03*
X122080000Y-131370000D03*
X122080000Y-133910000D03*
X122080000Y-136450000D03*
X122080000Y-138990000D03*
X122080000Y-141530000D03*
%TD*%
D19*
%TO.C,LCD_HDR1*%
X93980000Y-48264000D03*
X93980000Y-80264000D03*
X169980000Y-48264000D03*
X169980000Y-80264000D03*
D20*
X86980000Y-54788000D03*
D21*
X86980000Y-57328000D03*
X86980000Y-59868000D03*
X86980000Y-62408000D03*
%TD*%
D22*
%TO.C,PWR_LED1*%
X86340000Y-80295000D03*
D23*
X83800000Y-80295000D03*
%TD*%
D11*
%TO.C,HALL_HDR1*%
X174752000Y-116078000D03*
D12*
X174752000Y-112268000D03*
X174752000Y-108458000D03*
%TD*%
D13*
%TO.C,R7*%
X150000000Y-87254000D03*
D14*
X150000000Y-111854000D03*
%TD*%
D13*
%TO.C,R11*%
X150000000Y-141746000D03*
D14*
X150000000Y-117146000D03*
%TD*%
D24*
%TO.C,U4*%
X176276000Y-53081500D03*
X176276000Y-55621500D03*
X176276000Y-58161500D03*
X176276000Y-60701500D03*
X176276000Y-63241500D03*
X176276000Y-65781500D03*
X176276000Y-68321500D03*
X176276000Y-70861500D03*
X176276000Y-73401500D03*
X176276000Y-75941500D03*
%TD*%
%TO.C,U6*%
X148336000Y-53213000D03*
D25*
X155194000Y-53213000D03*
X147828000Y-75057000D03*
X152146000Y-75057000D03*
X156464000Y-75057000D03*
%TD*%
M02*
