%TF.GenerationSoftware,KiCad,Pcbnew,7.0.2*%
%TF.CreationDate,2024-03-19T15:43:20+05:30*%
%TF.ProjectId,gauss_meter_kicad,67617573-735f-46d6-9574-65725f6b6963,rev?*%
%TF.SameCoordinates,Original*%
%TF.FileFunction,Legend,Bot*%
%TF.FilePolarity,Positive*%
%FSLAX46Y46*%
G04 Gerber Fmt 4.6, Leading zero omitted, Abs format (unit mm)*
G04 Created by KiCad (PCBNEW 7.0.2) date 2024-03-19 15:43:20*
%MOMM*%
%LPD*%
G01*
G04 APERTURE LIST*
%ADD10C,0.100000*%
%ADD11C,0.150000*%
G04 APERTURE END LIST*
D10*
%TO.C,U4*%
X176529904Y-45480119D02*
X176529904Y-46289642D01*
X176529904Y-46289642D02*
X176482285Y-46384880D01*
X176482285Y-46384880D02*
X176434666Y-46432500D01*
X176434666Y-46432500D02*
X176339428Y-46480119D01*
X176339428Y-46480119D02*
X176148952Y-46480119D01*
X176148952Y-46480119D02*
X176053714Y-46432500D01*
X176053714Y-46432500D02*
X176006095Y-46384880D01*
X176006095Y-46384880D02*
X175958476Y-46289642D01*
X175958476Y-46289642D02*
X175958476Y-45480119D01*
X175053714Y-45813452D02*
X175053714Y-46480119D01*
X175291809Y-45432500D02*
X175529904Y-46146785D01*
X175529904Y-46146785D02*
X174910857Y-46146785D01*
%TO.C,U6*%
X140226619Y-58547095D02*
X141036142Y-58547095D01*
X141036142Y-58547095D02*
X141131380Y-58594714D01*
X141131380Y-58594714D02*
X141179000Y-58642333D01*
X141179000Y-58642333D02*
X141226619Y-58737571D01*
X141226619Y-58737571D02*
X141226619Y-58928047D01*
X141226619Y-58928047D02*
X141179000Y-59023285D01*
X141179000Y-59023285D02*
X141131380Y-59070904D01*
X141131380Y-59070904D02*
X141036142Y-59118523D01*
X141036142Y-59118523D02*
X140226619Y-59118523D01*
X140226619Y-60023285D02*
X140226619Y-59832809D01*
X140226619Y-59832809D02*
X140274238Y-59737571D01*
X140274238Y-59737571D02*
X140321857Y-59689952D01*
X140321857Y-59689952D02*
X140464714Y-59594714D01*
X140464714Y-59594714D02*
X140655190Y-59547095D01*
X140655190Y-59547095D02*
X141036142Y-59547095D01*
X141036142Y-59547095D02*
X141131380Y-59594714D01*
X141131380Y-59594714D02*
X141179000Y-59642333D01*
X141179000Y-59642333D02*
X141226619Y-59737571D01*
X141226619Y-59737571D02*
X141226619Y-59928047D01*
X141226619Y-59928047D02*
X141179000Y-60023285D01*
X141179000Y-60023285D02*
X141131380Y-60070904D01*
X141131380Y-60070904D02*
X141036142Y-60118523D01*
X141036142Y-60118523D02*
X140798047Y-60118523D01*
X140798047Y-60118523D02*
X140702809Y-60070904D01*
X140702809Y-60070904D02*
X140655190Y-60023285D01*
X140655190Y-60023285D02*
X140607571Y-59928047D01*
X140607571Y-59928047D02*
X140607571Y-59737571D01*
X140607571Y-59737571D02*
X140655190Y-59642333D01*
X140655190Y-59642333D02*
X140702809Y-59594714D01*
X140702809Y-59594714D02*
X140798047Y-59547095D01*
D11*
%TO.C,U4*%
X178816000Y-50541500D02*
X161036000Y-50541500D01*
X161036000Y-50541500D02*
X161036000Y-78541500D01*
X161036000Y-78541500D02*
X178816000Y-78541500D01*
X178816000Y-78541500D02*
X178816000Y-50541500D01*
%TO.C,U6*%
X145542000Y-51943000D02*
X158750000Y-51943000D01*
X158750000Y-51943000D02*
X158750000Y-76581000D01*
X158750000Y-76581000D02*
X145542000Y-76581000D01*
X145542000Y-76581000D02*
X145542000Y-51943000D01*
%TD*%
M02*
