M48
; DRILL file {KiCad 7.0.2} date Tue Mar 19 15:44:26 2024
; FORMAT={-:-/ absolute / metric / decimal}
; #@! TF.CreationDate,2024-03-19T15:44:26+05:30
; #@! TF.GenerationSoftware,Kicad,Pcbnew,7.0.2
; #@! TF.FileFunction,Plated,1,2,PTH
FMAT,2
METRIC
; #@! TA.AperFunction,Plated,PTH,ViaDrill
T1C0.400
; #@! TA.AperFunction,Plated,PTH,ComponentDrill
T2C0.740
; #@! TA.AperFunction,Plated,PTH,ComponentDrill
T3C0.762
; #@! TA.AperFunction,Plated,PTH,ComponentDrill
T4C0.780
; #@! TA.AperFunction,Plated,PTH,ComponentDrill
T5C0.900
; #@! TA.AperFunction,Plated,PTH,ComponentDrill
T6C1.020
; #@! TA.AperFunction,Plated,PTH,ComponentDrill
T7C1.040
; #@! TA.AperFunction,Plated,PTH,ComponentDrill
T8C1.100
; #@! TA.AperFunction,Plated,PTH,ComponentDrill
T9C1.400
%
G90
G05
T1
X109.474Y-96.266
X118.11Y-84.328
X127.693Y-95.778
X127.762Y-83.058
X134.112Y-83.058
T2
X105.41Y-108.19
X105.41Y-110.73
X105.41Y-113.27
X105.41Y-115.81
X113.35Y-108.19
X113.35Y-110.73
X113.35Y-113.27
X113.35Y-115.81
T3
X147.828Y-75.057
X148.336Y-53.213
X152.146Y-75.057
X155.194Y-53.213
X156.464Y-75.057
X176.276Y-53.081
X176.276Y-55.621
X176.276Y-58.161
X176.276Y-60.701
X176.276Y-63.241
X176.276Y-65.781
X176.276Y-68.322
X176.276Y-70.861
X176.276Y-73.401
X176.276Y-75.941
T4
X105.41Y-92.69
X105.41Y-95.23
X105.41Y-97.77
X105.41Y-100.31
X113.35Y-92.69
X113.35Y-95.23
X113.35Y-97.77
X113.35Y-100.31
T5
X83.8Y-80.295
X86.34Y-80.295
T6
X86.98Y-54.788
X86.98Y-57.328
X86.98Y-59.868
X86.98Y-62.408
T7
X96.68Y-95.81
X96.68Y-98.35
X96.68Y-100.89
X96.68Y-103.43
X96.68Y-105.97
X96.68Y-108.51
X96.68Y-111.05
X96.68Y-113.59
X96.68Y-116.13
X96.68Y-118.67
X96.68Y-121.21
X96.68Y-123.75
X96.68Y-126.29
X96.68Y-128.83
X96.68Y-131.37
X96.68Y-133.91
X96.68Y-136.45
X96.68Y-138.99
X96.68Y-141.53
X122.08Y-95.81
X122.08Y-98.35
X122.08Y-100.89
X122.08Y-103.43
X122.08Y-105.97
X122.08Y-108.51
X122.08Y-111.05
X122.08Y-113.59
X122.08Y-116.13
X122.08Y-118.67
X122.08Y-121.21
X122.08Y-123.75
X122.08Y-126.29
X122.08Y-128.83
X122.08Y-131.37
X122.08Y-133.91
X122.08Y-136.45
X122.08Y-138.99
X122.08Y-141.53
T8
X86.56Y-90.988
X86.56Y-94.798
X86.56Y-105.988
X86.56Y-109.798
X86.56Y-120.988
X86.56Y-124.798
X86.56Y-135.988
X86.56Y-139.798
X174.752Y-108.458
X174.752Y-112.268
X174.752Y-116.078
T9
X103.734Y-75.946
X103.822Y-80.518
X104.076Y-70.612
X128.334Y-75.946
X128.422Y-80.518
X128.676Y-70.612
X130.0Y-87.254
X130.0Y-111.854
X130.0Y-117.146
X130.0Y-141.746
X140.0Y-87.254
X140.0Y-111.854
X140.0Y-117.146
X140.0Y-141.746
X150.0Y-87.254
X150.0Y-111.854
X150.0Y-117.146
X150.0Y-141.746
X160.0Y-87.254
X160.0Y-111.854
X160.0Y-117.146
X160.0Y-141.746
T0
M30
