%TF.GenerationSoftware,KiCad,Pcbnew,7.0.2*%
%TF.CreationDate,2024-03-19T15:43:20+05:30*%
%TF.ProjectId,gauss_meter_kicad,67617573-735f-46d6-9574-65725f6b6963,rev?*%
%TF.SameCoordinates,Original*%
%TF.FileFunction,Copper,L1,Top*%
%TF.FilePolarity,Positive*%
%FSLAX46Y46*%
G04 Gerber Fmt 4.6, Leading zero omitted, Abs format (unit mm)*
G04 Created by KiCad (PCBNEW 7.0.2) date 2024-03-19 15:43:20*
%MOMM*%
%LPD*%
G01*
G04 APERTURE LIST*
%TA.AperFunction,ComponentPad*%
%ADD10R,1.650000X1.650000*%
%TD*%
%TA.AperFunction,ComponentPad*%
%ADD11C,1.650000*%
%TD*%
%TA.AperFunction,ComponentPad*%
%ADD12C,2.800000*%
%TD*%
%TA.AperFunction,ComponentPad*%
%ADD13O,2.800000X2.800000*%
%TD*%
%TA.AperFunction,ComponentPad*%
%ADD14R,1.130000X1.130000*%
%TD*%
%TA.AperFunction,ComponentPad*%
%ADD15C,1.130000*%
%TD*%
%TA.AperFunction,ComponentPad*%
%ADD16R,1.560000X1.560000*%
%TD*%
%TA.AperFunction,ComponentPad*%
%ADD17C,1.560000*%
%TD*%
%TA.AperFunction,WasherPad*%
%ADD18C,5.000000*%
%TD*%
%TA.AperFunction,ComponentPad*%
%ADD19R,1.370000X1.370000*%
%TD*%
%TA.AperFunction,ComponentPad*%
%ADD20C,1.370000*%
%TD*%
%TA.AperFunction,ComponentPad*%
%ADD21R,1.800000X1.800000*%
%TD*%
%TA.AperFunction,ComponentPad*%
%ADD22C,1.800000*%
%TD*%
%TA.AperFunction,ComponentPad*%
%ADD23R,1.524000X1.524000*%
%TD*%
%TA.AperFunction,ComponentPad*%
%ADD24C,1.524000*%
%TD*%
%TA.AperFunction,ViaPad*%
%ADD25C,0.800000*%
%TD*%
%TA.AperFunction,Conductor*%
%ADD26C,0.250000*%
%TD*%
%TA.AperFunction,Conductor*%
%ADD27C,1.000000*%
%TD*%
G04 APERTURE END LIST*
D10*
%TO.P,HOLD_HDR1,1,1*%
%TO.N,GND*%
X86560000Y-94798000D03*
D11*
%TO.P,HOLD_HDR1,2,2*%
%TO.N,/HOLD*%
X86560000Y-90988000D03*
%TD*%
D12*
%TO.P,R3,1*%
%TO.N,Net-(U1-1IN-)*%
X128334000Y-75946000D03*
D13*
%TO.P,R3,2*%
%TO.N,/A0*%
X103734000Y-75946000D03*
%TD*%
D12*
%TO.P,R10,1*%
%TO.N,/LM358_2*%
X130000000Y-141746000D03*
D13*
%TO.P,R10,2*%
%TO.N,Net-(R10-Pad2)*%
X130000000Y-117146000D03*
%TD*%
D10*
%TO.P,SW3_HDR1,1,1*%
%TO.N,GND*%
X86560000Y-139798000D03*
D11*
%TO.P,SW3_HDR1,2,2*%
%TO.N,/SW3*%
X86560000Y-135988000D03*
%TD*%
D12*
%TO.P,R12,1*%
%TO.N,Net-(R12-Pad1)*%
X160000000Y-87254000D03*
D13*
%TO.P,R12,2*%
%TO.N,/LM358_2*%
X160000000Y-111854000D03*
%TD*%
D10*
%TO.P,PWR_HDR1,1,1*%
%TO.N,GND*%
X86560000Y-124798000D03*
D11*
%TO.P,PWR_HDR1,2,2*%
%TO.N,/5V*%
X86560000Y-120988000D03*
%TD*%
D14*
%TO.P,U1,1,1OUT*%
%TO.N,/A0*%
X105410000Y-92690000D03*
D15*
%TO.P,U1,2,1IN-*%
%TO.N,Net-(U1-1IN-)*%
X105410000Y-95230000D03*
%TO.P,U1,3,1IN+*%
%TO.N,/LM258_3*%
X105410000Y-97770000D03*
%TO.P,U1,4,GND*%
%TO.N,/-12V*%
X105410000Y-100310000D03*
%TO.P,U1,5,2IN+*%
%TO.N,unconnected-(U1-2IN+-Pad5)*%
X113350000Y-100310000D03*
%TO.P,U1,6,2IN-*%
%TO.N,unconnected-(U1-2IN--Pad6)*%
X113350000Y-97770000D03*
%TO.P,U1,7,2OUT*%
%TO.N,unconnected-(U1-2OUT-Pad7)*%
X113350000Y-95230000D03*
%TO.P,U1,8,VCC*%
%TO.N,/+12V*%
X113350000Y-92690000D03*
%TD*%
D12*
%TO.P,R13,1*%
%TO.N,/LM358_7*%
X104076000Y-70612000D03*
D13*
%TO.P,R13,2*%
%TO.N,Net-(R12-Pad1)*%
X128676000Y-70612000D03*
%TD*%
D12*
%TO.P,R5,1*%
%TO.N,/1V_REF*%
X140000000Y-87254000D03*
D13*
%TO.P,R5,2*%
%TO.N,GND*%
X140000000Y-111854000D03*
%TD*%
D10*
%TO.P,NULL_HDR1,1,1*%
%TO.N,GND*%
X86560000Y-109798000D03*
D11*
%TO.P,NULL_HDR1,2,2*%
%TO.N,/NULL*%
X86560000Y-105988000D03*
%TD*%
D12*
%TO.P,R9,1*%
%TO.N,Net-(U1-1IN-)*%
X140000000Y-141746000D03*
D13*
%TO.P,R9,2*%
%TO.N,Net-(R10-Pad2)*%
X140000000Y-117146000D03*
%TD*%
D14*
%TO.P,U2,1*%
%TO.N,Net-(R10-Pad2)*%
X105410000Y-108190000D03*
D15*
%TO.P,U2,2*%
%TO.N,/LM358_2*%
X105410000Y-110730000D03*
%TO.P,U2,3*%
%TO.N,/1V_REF*%
X105410000Y-113270000D03*
%TO.P,U2,4,GND*%
%TO.N,/-12V*%
X105410000Y-115810000D03*
%TO.P,U2,5*%
%TO.N,/HALL*%
X113350000Y-115810000D03*
%TO.P,U2,6*%
%TO.N,Net-(R12-Pad1)*%
X113350000Y-113270000D03*
%TO.P,U2,7*%
%TO.N,/LM358_7*%
X113350000Y-110730000D03*
%TO.P,U2,8,V+*%
%TO.N,/+12V*%
X113350000Y-108190000D03*
%TD*%
D12*
%TO.P,R1,1*%
%TO.N,/5V*%
X160000000Y-141746000D03*
D13*
%TO.P,R1,2*%
%TO.N,Net-(R1-Pad2)*%
X160000000Y-117146000D03*
%TD*%
D12*
%TO.P,R2,1*%
%TO.N,/LM258_3*%
X130000000Y-87254000D03*
D13*
%TO.P,R2,2*%
%TO.N,GND*%
X130000000Y-111854000D03*
%TD*%
D12*
%TO.P,R4,1*%
%TO.N,Net-(R1-Pad2)*%
X103822000Y-80518000D03*
D13*
%TO.P,R4,2*%
%TO.N,/1V_REF*%
X128422000Y-80518000D03*
%TD*%
D16*
%TO.P,U3,J2-1,3V3*%
%TO.N,unconnected-(U3-3V3-PadJ2-1)*%
X96680000Y-95810000D03*
D17*
%TO.P,U3,J2-2,EN*%
%TO.N,unconnected-(U3-EN-PadJ2-2)*%
X96680000Y-98350000D03*
%TO.P,U3,J2-3,SENSOR_VP*%
%TO.N,unconnected-(U3-SENSOR_VP-PadJ2-3)*%
X96680000Y-100890000D03*
%TO.P,U3,J2-4,SENSOR_VN*%
%TO.N,unconnected-(U3-SENSOR_VN-PadJ2-4)*%
X96680000Y-103430000D03*
%TO.P,U3,J2-5,IO34*%
%TO.N,unconnected-(U3-IO34-PadJ2-5)*%
X96680000Y-105970000D03*
%TO.P,U3,J2-6,IO35*%
%TO.N,unconnected-(U3-IO35-PadJ2-6)*%
X96680000Y-108510000D03*
%TO.P,U3,J2-7,IO32*%
%TO.N,unconnected-(U3-IO32-PadJ2-7)*%
X96680000Y-111050000D03*
%TO.P,U3,J2-8,IO33*%
%TO.N,unconnected-(U3-IO33-PadJ2-8)*%
X96680000Y-113590000D03*
%TO.P,U3,J2-9,IO25*%
%TO.N,unconnected-(U3-IO25-PadJ2-9)*%
X96680000Y-116130000D03*
%TO.P,U3,J2-10,IO26*%
%TO.N,unconnected-(U3-IO26-PadJ2-10)*%
X96680000Y-118670000D03*
%TO.P,U3,J2-11,IO27*%
%TO.N,unconnected-(U3-IO27-PadJ2-11)*%
X96680000Y-121210000D03*
%TO.P,U3,J2-12,IO14*%
%TO.N,/SW3*%
X96680000Y-123750000D03*
%TO.P,U3,J2-13,IO12*%
%TO.N,/NULL*%
X96680000Y-126290000D03*
%TO.P,U3,J2-14,GND1*%
%TO.N,GND*%
X96680000Y-128830000D03*
%TO.P,U3,J2-15,IO13*%
%TO.N,/HOLD*%
X96680000Y-131370000D03*
%TO.P,U3,J2-16,SD2*%
%TO.N,unconnected-(U3-SD2-PadJ2-16)*%
X96680000Y-133910000D03*
%TO.P,U3,J2-17,SD3*%
%TO.N,unconnected-(U3-SD3-PadJ2-17)*%
X96680000Y-136450000D03*
%TO.P,U3,J2-18,CMD*%
%TO.N,unconnected-(U3-CMD-PadJ2-18)*%
X96680000Y-138990000D03*
%TO.P,U3,J2-19,EXT_5V*%
%TO.N,/5V*%
X96680000Y-141530000D03*
%TO.P,U3,J3-1,GND3*%
%TO.N,GND*%
X122080000Y-95810000D03*
%TO.P,U3,J3-2,IO23*%
%TO.N,unconnected-(U3-IO23-PadJ3-2)*%
X122080000Y-98350000D03*
%TO.P,U3,J3-3,IO22*%
%TO.N,/SCL*%
X122080000Y-100890000D03*
%TO.P,U3,J3-4,TXD0*%
%TO.N,unconnected-(U3-TXD0-PadJ3-4)*%
X122080000Y-103430000D03*
%TO.P,U3,J3-5,RXD0*%
%TO.N,unconnected-(U3-RXD0-PadJ3-5)*%
X122080000Y-105970000D03*
%TO.P,U3,J3-6,IO21*%
%TO.N,/SDA*%
X122080000Y-108510000D03*
%TO.P,U3,J3-7,GND2*%
%TO.N,GND*%
X122080000Y-111050000D03*
%TO.P,U3,J3-8,IO19*%
%TO.N,unconnected-(U3-IO19-PadJ3-8)*%
X122080000Y-113590000D03*
%TO.P,U3,J3-9,IO18*%
%TO.N,unconnected-(U3-IO18-PadJ3-9)*%
X122080000Y-116130000D03*
%TO.P,U3,J3-10,IO5*%
%TO.N,unconnected-(U3-IO5-PadJ3-10)*%
X122080000Y-118670000D03*
%TO.P,U3,J3-11,IO17*%
%TO.N,unconnected-(U3-IO17-PadJ3-11)*%
X122080000Y-121210000D03*
%TO.P,U3,J3-12,IO16*%
%TO.N,unconnected-(U3-IO16-PadJ3-12)*%
X122080000Y-123750000D03*
%TO.P,U3,J3-13,IO4*%
%TO.N,unconnected-(U3-IO4-PadJ3-13)*%
X122080000Y-126290000D03*
%TO.P,U3,J3-14,IO0*%
%TO.N,unconnected-(U3-IO0-PadJ3-14)*%
X122080000Y-128830000D03*
%TO.P,U3,J3-15,IO2*%
%TO.N,unconnected-(U3-IO2-PadJ3-15)*%
X122080000Y-131370000D03*
%TO.P,U3,J3-16,IO15*%
%TO.N,unconnected-(U3-IO15-PadJ3-16)*%
X122080000Y-133910000D03*
%TO.P,U3,J3-17,SD1*%
%TO.N,unconnected-(U3-SD1-PadJ3-17)*%
X122080000Y-136450000D03*
%TO.P,U3,J3-18,SD0*%
%TO.N,unconnected-(U3-SD0-PadJ3-18)*%
X122080000Y-138990000D03*
%TO.P,U3,J3-19,CLK*%
%TO.N,unconnected-(U3-CLK-PadJ3-19)*%
X122080000Y-141530000D03*
%TD*%
D18*
%TO.P,LCD_HDR1,*%
%TO.N,*%
X93980000Y-48264000D03*
X93980000Y-80264000D03*
X169980000Y-48264000D03*
X169980000Y-80264000D03*
D19*
%TO.P,LCD_HDR1,01,01*%
%TO.N,/SCL*%
X86980000Y-54788000D03*
D20*
%TO.P,LCD_HDR1,02,02*%
%TO.N,/SDA*%
X86980000Y-57328000D03*
%TO.P,LCD_HDR1,03,03*%
%TO.N,/5V*%
X86980000Y-59868000D03*
%TO.P,LCD_HDR1,04,04*%
%TO.N,GND*%
X86980000Y-62408000D03*
%TD*%
D21*
%TO.P,PWR_LED1,1,K*%
%TO.N,Net-(PWR_LED1-K)*%
X86340000Y-80295000D03*
D22*
%TO.P,PWR_LED1,2,A*%
%TO.N,/5V*%
X83800000Y-80295000D03*
%TD*%
D10*
%TO.P,HALL_HDR1,01,01*%
%TO.N,/HALL*%
X174752000Y-116078000D03*
D11*
%TO.P,HALL_HDR1,02,02*%
%TO.N,/5V*%
X174752000Y-112268000D03*
%TO.P,HALL_HDR1,03,03*%
%TO.N,GND*%
X174752000Y-108458000D03*
%TD*%
D12*
%TO.P,R7,1*%
%TO.N,/LM258_3*%
X150000000Y-87254000D03*
D13*
%TO.P,R7,2*%
%TO.N,/LM358_7*%
X150000000Y-111854000D03*
%TD*%
D12*
%TO.P,R11,1*%
%TO.N,Net-(PWR_LED1-K)*%
X150000000Y-141746000D03*
D13*
%TO.P,R11,2*%
%TO.N,GND*%
X150000000Y-117146000D03*
%TD*%
D23*
%TO.P,U4,1,VDD*%
%TO.N,/5V*%
X176276000Y-53081500D03*
%TO.P,U4,2,GND*%
%TO.N,GND*%
X176276000Y-55621500D03*
%TO.P,U4,3,SCL*%
%TO.N,/SCL*%
X176276000Y-58161500D03*
%TO.P,U4,4,SDA*%
%TO.N,/SDA*%
X176276000Y-60701500D03*
%TO.P,U4,5,ADDR*%
%TO.N,unconnected-(U4-ADDR-Pad5)*%
X176276000Y-63241500D03*
%TO.P,U4,6,ALRT*%
%TO.N,unconnected-(U4-ALRT-Pad6)*%
X176276000Y-65781500D03*
%TO.P,U4,7,A0*%
%TO.N,/A0*%
X176276000Y-68321500D03*
%TO.P,U4,8,A1*%
%TO.N,unconnected-(U4-A1-Pad8)*%
X176276000Y-70861500D03*
%TO.P,U4,9,A2*%
%TO.N,unconnected-(U4-A2-Pad9)*%
X176276000Y-73401500D03*
%TO.P,U4,10,A3*%
%TO.N,unconnected-(U4-A3-Pad10)*%
X176276000Y-75941500D03*
%TD*%
%TO.P,U6,1,5V*%
%TO.N,/5V*%
X148336000Y-53213000D03*
D24*
%TO.P,U6,2,GND*%
%TO.N,GND*%
X155194000Y-53213000D03*
%TO.P,U6,3,+12*%
%TO.N,/+12V*%
X147828000Y-75057000D03*
%TO.P,U6,4,GND*%
%TO.N,GND*%
X152146000Y-75057000D03*
%TO.P,U6,5,-12*%
%TO.N,/-12V*%
X156464000Y-75057000D03*
%TD*%
D25*
%TO.N,Net-(R1-Pad2)*%
X127692800Y-95778400D03*
%TO.N,/-12V*%
X118110000Y-84328000D03*
X134112000Y-83058000D03*
X109474000Y-96266000D03*
X127762000Y-83058000D03*
%TD*%
D26*
%TO.N,/HALL*%
X114352000Y-114808000D02*
X113350000Y-115810000D01*
X155594900Y-110089100D02*
X150876000Y-114808000D01*
X174752000Y-116078000D02*
X173600100Y-116078000D01*
X173600100Y-116078000D02*
X167611200Y-110089100D01*
X150876000Y-114808000D02*
X114352000Y-114808000D01*
X167611200Y-110089100D02*
X155594900Y-110089100D01*
%TO.N,/5V*%
X174203600Y-52098000D02*
X175187100Y-53081500D01*
X142225500Y-59868000D02*
X86980000Y-59868000D01*
X148336000Y-53213000D02*
X148880500Y-53213000D01*
X148880500Y-53213000D02*
X142225500Y-59868000D01*
X176276000Y-53081500D02*
X175187100Y-53081500D01*
X86560000Y-120988000D02*
X83800000Y-118228000D01*
X150539900Y-52098000D02*
X174203600Y-52098000D01*
X148880500Y-53213000D02*
X149424900Y-53213000D01*
X83800000Y-118228000D02*
X83800000Y-80295000D01*
X149424900Y-53213000D02*
X150539900Y-52098000D01*
%TO.N,GND*%
X87806800Y-94703100D02*
X97803200Y-94703100D01*
X87806800Y-63234800D02*
X86980000Y-62408000D01*
X86560000Y-124798000D02*
X87711900Y-124798000D01*
X87711900Y-122494200D02*
X86560000Y-123646100D01*
X97803200Y-94703100D02*
X104773600Y-101673500D01*
X86560000Y-94798000D02*
X87711900Y-94798000D01*
X155194000Y-53213000D02*
X172778600Y-53213000D01*
X108992500Y-101221600D02*
X114955300Y-101221600D01*
X86560000Y-124798000D02*
X86560000Y-123646100D01*
X91743900Y-128830000D02*
X87711900Y-124798000D01*
X86560000Y-139798000D02*
X86560000Y-138646100D01*
X176276000Y-55621500D02*
X175187100Y-55621500D01*
X104773600Y-101673500D02*
X108540600Y-101673500D01*
X120366900Y-95810000D02*
X122080000Y-95810000D01*
X172778600Y-53213000D02*
X175187100Y-55621500D01*
X127469100Y-111050000D02*
X128273100Y-111854000D01*
X96680000Y-128830000D02*
X91743900Y-128830000D01*
X122080000Y-111050000D02*
X127469100Y-111050000D01*
X108540600Y-101673500D02*
X108992500Y-101221600D01*
X87806800Y-94703100D02*
X87806800Y-63234800D01*
X87711900Y-112101800D02*
X87711900Y-122494200D01*
X86560000Y-109798000D02*
X86560000Y-110949900D01*
X91743900Y-128830000D02*
X91743900Y-133462200D01*
X91743900Y-133462200D02*
X86560000Y-138646100D01*
X86560000Y-110949900D02*
X87711900Y-112101800D01*
X114955300Y-101221600D02*
X120366900Y-95810000D01*
X87711900Y-94798000D02*
X87806800Y-94703100D01*
X130000000Y-111854000D02*
X128273100Y-111854000D01*
%TO.N,/SDA*%
X170397300Y-69635500D02*
X131522800Y-108510000D01*
X131522800Y-108510000D02*
X122080000Y-108510000D01*
X176276000Y-61790400D02*
X176820500Y-61790400D01*
X176276000Y-60701500D02*
X176276000Y-61790400D01*
X176948300Y-69635500D02*
X170397300Y-69635500D01*
X176820500Y-61790400D02*
X177364900Y-62334800D01*
X177364900Y-69218900D02*
X176948300Y-69635500D01*
X177364900Y-62334800D02*
X177364900Y-69218900D01*
%TO.N,/NULL*%
X94095700Y-113523700D02*
X86560000Y-105988000D01*
X94095700Y-123705700D02*
X94095700Y-113523700D01*
X96680000Y-126290000D02*
X94095700Y-123705700D01*
%TO.N,Net-(R1-Pad2)*%
X110067600Y-99282500D02*
X108128500Y-101221600D01*
X116255300Y-99282500D02*
X110067600Y-99282500D01*
X127692800Y-95778400D02*
X126567000Y-94652600D01*
X103822000Y-100003200D02*
X103822000Y-80518000D01*
X126567000Y-94652600D02*
X121598300Y-94652600D01*
X121598300Y-94652600D02*
X121263300Y-94987600D01*
X105040400Y-101221600D02*
X103822000Y-100003200D01*
X120550200Y-94987600D02*
X116255300Y-99282500D01*
X121263300Y-94987600D02*
X120550200Y-94987600D01*
X108128500Y-101221600D02*
X105040400Y-101221600D01*
%TO.N,/LM258_3*%
X121012800Y-93959900D02*
X109220100Y-93959900D01*
X130000000Y-87254000D02*
X127718700Y-87254000D01*
X109220100Y-93959900D02*
X105410000Y-97770000D01*
X127718700Y-87254000D02*
X121012800Y-93959900D01*
%TO.N,Net-(U1-1IN-)*%
X105410000Y-95230000D02*
X124694000Y-75946000D01*
X124694000Y-75946000D02*
X128334000Y-75946000D01*
%TO.N,/A0*%
X176276000Y-68321500D02*
X113085400Y-68321500D01*
X103734000Y-75946000D02*
X105460900Y-75946000D01*
X113085400Y-68321500D02*
X105460900Y-75946000D01*
%TO.N,/1V_REF*%
X104518100Y-107489600D02*
X104518100Y-112378100D01*
X119826600Y-97024900D02*
X115068400Y-101783100D01*
X115068400Y-101783100D02*
X110224600Y-101783100D01*
X130229100Y-97024900D02*
X119826600Y-97024900D01*
X104518100Y-112378100D02*
X105410000Y-113270000D01*
X110224600Y-101783100D02*
X104518100Y-107489600D01*
X140000000Y-87254000D02*
X130229100Y-97024900D01*
%TO.N,/LM358_7*%
X114147200Y-109932800D02*
X146351900Y-109932800D01*
X150000000Y-111854000D02*
X148273100Y-111854000D01*
X113350000Y-110730000D02*
X114147200Y-109932800D01*
X146351900Y-109932800D02*
X148273100Y-111854000D01*
%TO.N,Net-(R10-Pad2)*%
X140000000Y-117146000D02*
X130000000Y-117146000D01*
X130000000Y-117146000D02*
X128273100Y-117146000D01*
X105410000Y-109138900D02*
X113509300Y-117238200D01*
X128180900Y-117238200D02*
X128273100Y-117146000D01*
X105410000Y-108190000D02*
X105410000Y-109138900D01*
X113509300Y-117238200D02*
X128180900Y-117238200D01*
%TO.N,/LM358_2*%
X158273100Y-113472900D02*
X158273100Y-111854000D01*
X130000000Y-141746000D02*
X158273100Y-113472900D01*
X160000000Y-111854000D02*
X158273100Y-111854000D01*
D27*
%TO.N,/-12V*%
X126492000Y-84328000D02*
X127762000Y-83058000D01*
D26*
X109454000Y-96266000D02*
X109474000Y-96266000D01*
D27*
X118110000Y-84328000D02*
X126492000Y-84328000D01*
X107048400Y-98671600D02*
X105410000Y-100310000D01*
X148463000Y-83058000D02*
X156464000Y-75057000D01*
X134112000Y-83058000D02*
X148463000Y-83058000D01*
X107048400Y-98671600D02*
X109454000Y-96266000D01*
%TO.N,/+12V*%
X120416000Y-92690000D02*
X113350000Y-92690000D01*
X138049000Y-75057000D02*
X120416000Y-92690000D01*
X147828000Y-75057000D02*
X138049000Y-75057000D01*
%TD*%
%TA.AperFunction,Conductor*%
%TO.N,GND*%
G36*
X120802964Y-97710085D02*
G01*
X120848719Y-97762889D01*
X120858663Y-97832047D01*
X120848307Y-97866804D01*
X120834397Y-97896633D01*
X120774593Y-98119824D01*
X120754455Y-98350000D01*
X120774593Y-98580175D01*
X120823806Y-98763843D01*
X120834396Y-98803363D01*
X120932045Y-99012772D01*
X121064574Y-99202043D01*
X121227957Y-99365426D01*
X121417228Y-99497955D01*
X121437951Y-99507618D01*
X121490390Y-99553791D01*
X121509541Y-99620985D01*
X121489325Y-99687866D01*
X121437951Y-99732381D01*
X121417230Y-99742044D01*
X121417228Y-99742045D01*
X121227953Y-99874577D01*
X121064577Y-100037953D01*
X121064574Y-100037956D01*
X121064574Y-100037957D01*
X120949261Y-100202642D01*
X120932044Y-100227230D01*
X120834396Y-100436635D01*
X120774593Y-100659824D01*
X120754455Y-100889999D01*
X120774593Y-101120175D01*
X120829942Y-101326743D01*
X120834396Y-101343363D01*
X120932045Y-101552772D01*
X121064574Y-101742043D01*
X121227957Y-101905426D01*
X121417228Y-102037955D01*
X121437951Y-102047618D01*
X121490390Y-102093791D01*
X121509541Y-102160985D01*
X121489325Y-102227866D01*
X121437951Y-102272381D01*
X121417228Y-102282045D01*
X121249110Y-102399763D01*
X121227953Y-102414577D01*
X121064577Y-102577953D01*
X120932044Y-102767230D01*
X120834396Y-102976635D01*
X120774593Y-103199824D01*
X120754455Y-103430000D01*
X120774593Y-103660175D01*
X120774594Y-103660178D01*
X120834396Y-103883363D01*
X120932045Y-104092772D01*
X121064574Y-104282043D01*
X121227957Y-104445426D01*
X121417228Y-104577955D01*
X121437951Y-104587618D01*
X121490390Y-104633791D01*
X121509541Y-104700985D01*
X121489325Y-104767866D01*
X121437951Y-104812381D01*
X121417230Y-104822044D01*
X121417228Y-104822045D01*
X121227953Y-104954577D01*
X121064577Y-105117953D01*
X121064574Y-105117956D01*
X121064574Y-105117957D01*
X121044646Y-105146418D01*
X120932044Y-105307230D01*
X120834396Y-105516635D01*
X120774593Y-105739824D01*
X120754455Y-105970000D01*
X120774593Y-106200175D01*
X120834396Y-106423364D01*
X120887022Y-106536220D01*
X120932045Y-106632772D01*
X121064574Y-106822043D01*
X121227957Y-106985426D01*
X121417228Y-107117955D01*
X121437950Y-107127617D01*
X121490388Y-107173788D01*
X121509541Y-107240981D01*
X121489326Y-107307862D01*
X121437954Y-107352379D01*
X121417232Y-107362042D01*
X121227953Y-107494577D01*
X121064577Y-107657953D01*
X121064574Y-107657956D01*
X121064574Y-107657957D01*
X120933956Y-107844500D01*
X120932044Y-107847230D01*
X120834396Y-108056635D01*
X120774593Y-108279824D01*
X120754455Y-108509999D01*
X120774593Y-108740175D01*
X120793719Y-108811553D01*
X120825049Y-108928481D01*
X120834397Y-108963366D01*
X120893865Y-109090896D01*
X120904357Y-109159973D01*
X120875837Y-109223757D01*
X120817360Y-109261996D01*
X120781483Y-109267300D01*
X114171063Y-109267300D01*
X114163576Y-109267074D01*
X114156152Y-109266625D01*
X114124398Y-109264704D01*
X114058670Y-109241007D01*
X114016187Y-109185536D01*
X114010438Y-109115904D01*
X114043247Y-109054217D01*
X114048333Y-109049307D01*
X114170474Y-108937961D01*
X114293942Y-108774464D01*
X114293942Y-108774462D01*
X114293944Y-108774461D01*
X114385264Y-108591064D01*
X114441332Y-108394007D01*
X114445869Y-108345047D01*
X114460236Y-108190000D01*
X114441332Y-107985995D01*
X114441332Y-107985992D01*
X114385264Y-107788935D01*
X114293944Y-107605538D01*
X114170473Y-107442037D01*
X114019069Y-107304014D01*
X113901668Y-107231322D01*
X113844875Y-107196157D01*
X113844873Y-107196156D01*
X113653831Y-107122147D01*
X113631390Y-107117952D01*
X113452440Y-107084500D01*
X113247560Y-107084500D01*
X113113299Y-107109597D01*
X113046168Y-107122147D01*
X112855126Y-107196156D01*
X112680930Y-107304014D01*
X112529526Y-107442037D01*
X112406055Y-107605538D01*
X112314735Y-107788935D01*
X112258667Y-107985992D01*
X112239764Y-108190000D01*
X112258667Y-108394007D01*
X112314735Y-108591064D01*
X112406055Y-108774461D01*
X112529526Y-108937962D01*
X112680930Y-109075985D01*
X112680932Y-109075986D01*
X112680933Y-109075987D01*
X112855125Y-109183843D01*
X113046169Y-109257853D01*
X113247560Y-109295500D01*
X113247562Y-109295500D01*
X113452440Y-109295500D01*
X113539597Y-109279207D01*
X113609110Y-109286237D01*
X113663789Y-109329733D01*
X113686272Y-109395887D01*
X113669420Y-109463694D01*
X113650062Y-109488775D01*
X113550656Y-109588182D01*
X113489336Y-109621666D01*
X113462977Y-109624500D01*
X113452440Y-109624500D01*
X113247560Y-109624500D01*
X113113299Y-109649598D01*
X113046168Y-109662147D01*
X112855126Y-109736156D01*
X112680930Y-109844014D01*
X112529526Y-109982037D01*
X112406055Y-110145538D01*
X112314735Y-110328935D01*
X112258667Y-110525992D01*
X112239764Y-110730000D01*
X112258667Y-110934007D01*
X112314735Y-111131064D01*
X112406055Y-111314461D01*
X112529526Y-111477962D01*
X112680930Y-111615985D01*
X112680932Y-111615986D01*
X112680933Y-111615987D01*
X112855125Y-111723843D01*
X113046169Y-111797853D01*
X113247560Y-111835500D01*
X113247562Y-111835500D01*
X113452438Y-111835500D01*
X113452440Y-111835500D01*
X113653831Y-111797853D01*
X113844875Y-111723843D01*
X114019067Y-111615987D01*
X114170474Y-111477961D01*
X114293942Y-111314464D01*
X114293942Y-111314462D01*
X114293944Y-111314461D01*
X114385264Y-111131064D01*
X114441332Y-110934007D01*
X114457956Y-110754600D01*
X114460236Y-110730000D01*
X114460235Y-110729999D01*
X114461296Y-110718559D01*
X114463513Y-110718764D01*
X114473993Y-110665178D01*
X114522347Y-110614744D01*
X114584053Y-110598300D01*
X120714279Y-110598300D01*
X120781318Y-110617985D01*
X120827073Y-110670789D01*
X120837017Y-110739947D01*
X120834054Y-110754394D01*
X120814630Y-110826883D01*
X120795110Y-111050000D01*
X120814630Y-111273116D01*
X120872599Y-111489459D01*
X120967252Y-111692442D01*
X121015334Y-111761111D01*
X121579439Y-111197005D01*
X121585418Y-111225775D01*
X121651181Y-111352693D01*
X121748749Y-111457162D01*
X121870884Y-111531434D01*
X121934339Y-111549213D01*
X121368888Y-112114664D01*
X121437554Y-112162745D01*
X121485865Y-112185273D01*
X121538305Y-112231445D01*
X121557457Y-112298639D01*
X121537242Y-112365520D01*
X121485867Y-112410038D01*
X121447980Y-112427705D01*
X121417228Y-112442045D01*
X121279261Y-112538651D01*
X121227953Y-112574577D01*
X121064577Y-112737953D01*
X121064574Y-112737956D01*
X121064574Y-112737957D01*
X120937013Y-112920134D01*
X120932044Y-112927230D01*
X120834396Y-113136635D01*
X120774593Y-113359824D01*
X120754455Y-113589999D01*
X120774593Y-113820175D01*
X120774594Y-113820178D01*
X120819134Y-113986407D01*
X120817472Y-114056256D01*
X120778310Y-114114119D01*
X120714081Y-114141623D01*
X120699360Y-114142500D01*
X114375863Y-114142500D01*
X114368376Y-114142274D01*
X114357613Y-114141623D01*
X114320166Y-114139357D01*
X114254439Y-114115662D01*
X114211955Y-114060191D01*
X114206206Y-113990559D01*
X114228699Y-113940859D01*
X114293942Y-113854464D01*
X114293942Y-113854462D01*
X114293944Y-113854461D01*
X114385264Y-113671064D01*
X114441332Y-113474007D01*
X114446793Y-113415067D01*
X114460236Y-113270000D01*
X114441332Y-113065995D01*
X114441332Y-113065992D01*
X114385264Y-112868935D01*
X114293944Y-112685538D01*
X114170473Y-112522037D01*
X114019069Y-112384014D01*
X113878006Y-112296671D01*
X113844875Y-112276157D01*
X113844873Y-112276156D01*
X113653831Y-112202147D01*
X113631401Y-112197954D01*
X113452440Y-112164500D01*
X113247560Y-112164500D01*
X113136436Y-112185273D01*
X113046168Y-112202147D01*
X112855126Y-112276156D01*
X112680930Y-112384014D01*
X112529526Y-112522037D01*
X112406055Y-112685538D01*
X112314735Y-112868935D01*
X112258667Y-113065992D01*
X112239764Y-113270000D01*
X112258667Y-113474007D01*
X112314735Y-113671064D01*
X112406055Y-113854461D01*
X112529526Y-114017962D01*
X112680930Y-114155985D01*
X112680932Y-114155986D01*
X112680933Y-114155987D01*
X112855125Y-114263843D01*
X113046169Y-114337853D01*
X113247560Y-114375500D01*
X113247562Y-114375500D01*
X113452440Y-114375500D01*
X113539597Y-114359207D01*
X113609110Y-114366237D01*
X113663789Y-114409733D01*
X113686272Y-114475887D01*
X113669420Y-114543694D01*
X113650063Y-114568775D01*
X113550656Y-114668182D01*
X113489336Y-114701666D01*
X113462977Y-114704500D01*
X113452440Y-114704500D01*
X113247560Y-114704500D01*
X113148970Y-114722930D01*
X113046168Y-114742147D01*
X112855126Y-114816156D01*
X112680933Y-114924012D01*
X112529525Y-115062040D01*
X112505585Y-115093741D01*
X112449475Y-115135375D01*
X112379763Y-115140065D01*
X112318952Y-115106692D01*
X106433900Y-109221640D01*
X106400415Y-109160317D01*
X106405399Y-109090625D01*
X106422775Y-109059036D01*
X106450562Y-109022395D01*
X106505070Y-108884174D01*
X106515500Y-108797320D01*
X106515500Y-107582680D01*
X106505070Y-107495826D01*
X106505069Y-107495823D01*
X106450562Y-107357604D01*
X106360785Y-107239214D01*
X106242395Y-107149437D01*
X106100574Y-107093510D01*
X106045431Y-107050604D01*
X106022238Y-106984696D01*
X106038359Y-106916712D01*
X106058380Y-106890479D01*
X110463940Y-102484918D01*
X110525263Y-102451434D01*
X110551621Y-102448600D01*
X115044537Y-102448600D01*
X115052024Y-102448826D01*
X115108878Y-102452265D01*
X115164910Y-102441995D01*
X115172292Y-102440872D01*
X115228834Y-102434008D01*
X115237310Y-102430793D01*
X115258930Y-102424765D01*
X115267842Y-102423133D01*
X115319787Y-102399753D01*
X115326665Y-102396904D01*
X115379945Y-102376699D01*
X115387404Y-102371549D01*
X115406949Y-102360525D01*
X115415217Y-102356805D01*
X115460056Y-102321675D01*
X115466064Y-102317254D01*
X115512949Y-102284893D01*
X115550718Y-102242259D01*
X115555835Y-102236823D01*
X120065940Y-97726719D01*
X120127264Y-97693234D01*
X120153622Y-97690400D01*
X120735925Y-97690400D01*
X120802964Y-97710085D01*
G37*
%TD.AperFunction*%
%TA.AperFunction,Conductor*%
G36*
X128385930Y-110617985D02*
G01*
X128431685Y-110670789D01*
X128441629Y-110739947D01*
X128418158Y-110796610D01*
X128397536Y-110824156D01*
X128267287Y-111062692D01*
X128172305Y-111317345D01*
X128114535Y-111582910D01*
X128113027Y-111604000D01*
X129340671Y-111604000D01*
X129300000Y-111769005D01*
X129300000Y-111938995D01*
X129340671Y-112104000D01*
X128113027Y-112104000D01*
X128114535Y-112125089D01*
X128172305Y-112390654D01*
X128267287Y-112645307D01*
X128397534Y-112883839D01*
X128560410Y-113101415D01*
X128752584Y-113293589D01*
X128970160Y-113456465D01*
X129208692Y-113586712D01*
X129463345Y-113681694D01*
X129728910Y-113739464D01*
X129750000Y-113740972D01*
X129750000Y-112507837D01*
X129831249Y-112538651D01*
X129957660Y-112554000D01*
X130042340Y-112554000D01*
X130168751Y-112538651D01*
X130250000Y-112507837D01*
X130250000Y-113740971D01*
X130271089Y-113739464D01*
X130536654Y-113681694D01*
X130791307Y-113586712D01*
X131029839Y-113456465D01*
X131247415Y-113293589D01*
X131439589Y-113101415D01*
X131602465Y-112883839D01*
X131732712Y-112645307D01*
X131827694Y-112390654D01*
X131885464Y-112125089D01*
X131886973Y-112104000D01*
X130659329Y-112104000D01*
X130700000Y-111938995D01*
X130700000Y-111769005D01*
X130659329Y-111604000D01*
X131886972Y-111604000D01*
X131885464Y-111582910D01*
X131827694Y-111317345D01*
X131732712Y-111062692D01*
X131602463Y-110824156D01*
X131581842Y-110796610D01*
X131557425Y-110731146D01*
X131572277Y-110662873D01*
X131621682Y-110613468D01*
X131681109Y-110598300D01*
X138318891Y-110598300D01*
X138385930Y-110617985D01*
X138431685Y-110670789D01*
X138441629Y-110739947D01*
X138418158Y-110796610D01*
X138397536Y-110824156D01*
X138267287Y-111062692D01*
X138172305Y-111317345D01*
X138114535Y-111582910D01*
X138113027Y-111604000D01*
X139340671Y-111604000D01*
X139300000Y-111769005D01*
X139300000Y-111938995D01*
X139340671Y-112104000D01*
X138113027Y-112104000D01*
X138114535Y-112125089D01*
X138172305Y-112390654D01*
X138267287Y-112645307D01*
X138397534Y-112883839D01*
X138560410Y-113101415D01*
X138752584Y-113293589D01*
X138970160Y-113456465D01*
X139208692Y-113586712D01*
X139463345Y-113681694D01*
X139728910Y-113739464D01*
X139750000Y-113740972D01*
X139750000Y-112507837D01*
X139831249Y-112538651D01*
X139957660Y-112554000D01*
X140042340Y-112554000D01*
X140168751Y-112538651D01*
X140250000Y-112507837D01*
X140250000Y-113740971D01*
X140271089Y-113739464D01*
X140536654Y-113681694D01*
X140791307Y-113586712D01*
X141029839Y-113456465D01*
X141247415Y-113293589D01*
X141439589Y-113101415D01*
X141602465Y-112883839D01*
X141732712Y-112645307D01*
X141827694Y-112390654D01*
X141885464Y-112125089D01*
X141886973Y-112104000D01*
X140659329Y-112104000D01*
X140700000Y-111938995D01*
X140700000Y-111769005D01*
X140659329Y-111604000D01*
X141886972Y-111604000D01*
X141885464Y-111582910D01*
X141827694Y-111317345D01*
X141732712Y-111062692D01*
X141602463Y-110824156D01*
X141581842Y-110796610D01*
X141557425Y-110731146D01*
X141572277Y-110662873D01*
X141621682Y-110613468D01*
X141681109Y-110598300D01*
X146024878Y-110598300D01*
X146091917Y-110617985D01*
X146112559Y-110634619D01*
X147785640Y-112307699D01*
X147790774Y-112313152D01*
X147828551Y-112355793D01*
X147875429Y-112388150D01*
X147881448Y-112392581D01*
X147914632Y-112418578D01*
X147926282Y-112427705D01*
X147934547Y-112431424D01*
X147954095Y-112442450D01*
X147961550Y-112447596D01*
X147961551Y-112447596D01*
X147961555Y-112447599D01*
X148014845Y-112467808D01*
X148021708Y-112470651D01*
X148073658Y-112494033D01*
X148082574Y-112495666D01*
X148104188Y-112501692D01*
X148112666Y-112504908D01*
X148126748Y-112510249D01*
X148125198Y-112514335D01*
X148163772Y-112530926D01*
X148200851Y-112583084D01*
X148230349Y-112662170D01*
X148363375Y-112905791D01*
X148446549Y-113016898D01*
X148529722Y-113128003D01*
X148725997Y-113324278D01*
X148948207Y-113490623D01*
X148948209Y-113490624D01*
X149191827Y-113623650D01*
X149306295Y-113666344D01*
X149451901Y-113720652D01*
X149723133Y-113779655D01*
X150000000Y-113799457D01*
X150276867Y-113779655D01*
X150548099Y-113720652D01*
X150770119Y-113637842D01*
X150839810Y-113632859D01*
X150901133Y-113666344D01*
X150934618Y-113727667D01*
X150929634Y-113797359D01*
X150901133Y-113841706D01*
X150636659Y-114106181D01*
X150575336Y-114139666D01*
X150548978Y-114142500D01*
X123460640Y-114142500D01*
X123393601Y-114122815D01*
X123347846Y-114070011D01*
X123337902Y-114000853D01*
X123340863Y-113986414D01*
X123385406Y-113820178D01*
X123405544Y-113590000D01*
X123385406Y-113359822D01*
X123325604Y-113136637D01*
X123227955Y-112927228D01*
X123095426Y-112737957D01*
X122932043Y-112574574D01*
X122742772Y-112442045D01*
X122674133Y-112410038D01*
X122621694Y-112363865D01*
X122602543Y-112296671D01*
X122622759Y-112229790D01*
X122674136Y-112185273D01*
X122722445Y-112162746D01*
X122791111Y-112114664D01*
X122228765Y-111552318D01*
X122352724Y-111498475D01*
X122463608Y-111408265D01*
X122546041Y-111291483D01*
X122579865Y-111196311D01*
X123144664Y-111761110D01*
X123192748Y-111692442D01*
X123287399Y-111489461D01*
X123345369Y-111273116D01*
X123364889Y-111050000D01*
X123345369Y-110826883D01*
X123325946Y-110754394D01*
X123327609Y-110684544D01*
X123366771Y-110626681D01*
X123430999Y-110599177D01*
X123445721Y-110598300D01*
X128318891Y-110598300D01*
X128385930Y-110617985D01*
G37*
%TD.AperFunction*%
%TA.AperFunction,Conductor*%
G36*
X115730017Y-99967685D02*
G01*
X115775772Y-100020489D01*
X115785716Y-100089647D01*
X115756691Y-100153203D01*
X115750659Y-100159681D01*
X114829059Y-101081281D01*
X114767736Y-101114766D01*
X114741378Y-101117600D01*
X114374463Y-101117600D01*
X114307424Y-101097915D01*
X114261669Y-101045111D01*
X114251725Y-100975953D01*
X114275509Y-100918873D01*
X114293944Y-100894461D01*
X114385264Y-100711064D01*
X114441332Y-100514007D01*
X114444287Y-100482110D01*
X114460236Y-100310000D01*
X114441332Y-100105995D01*
X114441315Y-100105935D01*
X114441315Y-100105820D01*
X114440272Y-100094554D01*
X114441411Y-100094448D01*
X114441901Y-100036068D01*
X114480168Y-99977609D01*
X114543965Y-99949118D01*
X114560581Y-99948000D01*
X115662978Y-99948000D01*
X115730017Y-99967685D01*
G37*
%TD.AperFunction*%
%TA.AperFunction,Conductor*%
G36*
X120727942Y-95853528D02*
G01*
X120783876Y-95895399D01*
X120808137Y-95958902D01*
X120814630Y-96033116D01*
X120860233Y-96203306D01*
X120858570Y-96273156D01*
X120819408Y-96331019D01*
X120755180Y-96358523D01*
X120740458Y-96359400D01*
X120418921Y-96359400D01*
X120351882Y-96339715D01*
X120306127Y-96286911D01*
X120296183Y-96217753D01*
X120325208Y-96154197D01*
X120331225Y-96147733D01*
X120596933Y-95882025D01*
X120658250Y-95848544D01*
X120727942Y-95853528D01*
G37*
%TD.AperFunction*%
%TA.AperFunction,Conductor*%
G36*
X180537039Y-44469685D02*
G01*
X180582794Y-44522489D01*
X180594000Y-44574000D01*
X180594000Y-144656623D01*
X180574315Y-144723662D01*
X180521511Y-144769417D01*
X180470625Y-144780621D01*
X79880625Y-145287372D01*
X79813487Y-145268026D01*
X79767467Y-145215453D01*
X79756000Y-145163374D01*
X79756000Y-140667518D01*
X85235000Y-140667518D01*
X85235354Y-140674132D01*
X85241400Y-140730371D01*
X85291647Y-140865089D01*
X85377811Y-140980188D01*
X85492910Y-141066352D01*
X85627628Y-141116599D01*
X85683867Y-141122645D01*
X85690482Y-141123000D01*
X86310000Y-141123000D01*
X86310000Y-140289683D01*
X86338819Y-140307209D01*
X86484404Y-140348000D01*
X86597622Y-140348000D01*
X86709783Y-140332584D01*
X86810000Y-140289053D01*
X86810000Y-141123000D01*
X87429518Y-141123000D01*
X87436132Y-141122645D01*
X87492371Y-141116599D01*
X87627089Y-141066352D01*
X87742188Y-140980188D01*
X87828352Y-140865089D01*
X87878599Y-140730371D01*
X87884645Y-140674132D01*
X87885000Y-140667518D01*
X87885000Y-140048000D01*
X87054852Y-140048000D01*
X87103559Y-139910953D01*
X87113877Y-139760114D01*
X87083116Y-139612085D01*
X87049910Y-139548000D01*
X87885000Y-139548000D01*
X87885000Y-138928481D01*
X87884645Y-138921867D01*
X87878599Y-138865628D01*
X87828352Y-138730910D01*
X87742188Y-138615811D01*
X87627089Y-138529647D01*
X87492371Y-138479400D01*
X87436132Y-138473354D01*
X87429518Y-138473000D01*
X86810000Y-138473000D01*
X86810000Y-139306316D01*
X86781181Y-139288791D01*
X86635596Y-139248000D01*
X86522378Y-139248000D01*
X86410217Y-139263416D01*
X86310000Y-139306946D01*
X86310000Y-138473000D01*
X85690482Y-138473000D01*
X85683867Y-138473354D01*
X85627628Y-138479400D01*
X85492910Y-138529647D01*
X85377811Y-138615811D01*
X85291647Y-138730910D01*
X85241400Y-138865628D01*
X85235354Y-138921867D01*
X85235000Y-138928481D01*
X85235000Y-139548000D01*
X86065148Y-139548000D01*
X86016441Y-139685047D01*
X86006123Y-139835886D01*
X86036884Y-139983915D01*
X86070090Y-140048000D01*
X85235000Y-140048000D01*
X85235000Y-140667518D01*
X79756000Y-140667518D01*
X79756000Y-135988000D01*
X85189819Y-135988000D01*
X85208506Y-136213519D01*
X85208506Y-136213522D01*
X85208507Y-136213524D01*
X85264060Y-136432897D01*
X85354963Y-136640134D01*
X85478735Y-136829582D01*
X85632002Y-136996074D01*
X85810583Y-137135069D01*
X86009605Y-137242774D01*
X86066537Y-137262319D01*
X86223638Y-137316253D01*
X86446851Y-137353500D01*
X86673149Y-137353500D01*
X86896361Y-137316253D01*
X87001094Y-137280297D01*
X87110395Y-137242774D01*
X87309417Y-137135069D01*
X87487998Y-136996074D01*
X87641265Y-136829582D01*
X87765037Y-136640134D01*
X87855940Y-136432897D01*
X87911493Y-136213524D01*
X87930180Y-135988000D01*
X87911493Y-135762476D01*
X87855940Y-135543103D01*
X87765037Y-135335866D01*
X87641265Y-135146418D01*
X87487998Y-134979926D01*
X87309417Y-134840931D01*
X87110395Y-134733226D01*
X87110391Y-134733224D01*
X87110390Y-134733224D01*
X86896361Y-134659746D01*
X86673149Y-134622500D01*
X86446851Y-134622500D01*
X86223638Y-134659746D01*
X86009609Y-134733224D01*
X85810581Y-134840932D01*
X85632001Y-134979926D01*
X85478734Y-135146419D01*
X85354964Y-135335863D01*
X85264060Y-135543103D01*
X85208506Y-135762480D01*
X85189819Y-135988000D01*
X79756000Y-135988000D01*
X79756000Y-125667518D01*
X85235000Y-125667518D01*
X85235354Y-125674132D01*
X85241400Y-125730371D01*
X85291647Y-125865089D01*
X85377811Y-125980188D01*
X85492910Y-126066352D01*
X85627628Y-126116599D01*
X85683867Y-126122645D01*
X85690482Y-126123000D01*
X86310000Y-126123000D01*
X86310000Y-125289683D01*
X86338819Y-125307209D01*
X86484404Y-125348000D01*
X86597622Y-125348000D01*
X86709783Y-125332584D01*
X86810000Y-125289053D01*
X86810000Y-126123000D01*
X87429518Y-126123000D01*
X87436132Y-126122645D01*
X87492371Y-126116599D01*
X87627089Y-126066352D01*
X87742188Y-125980188D01*
X87828352Y-125865089D01*
X87878599Y-125730371D01*
X87884645Y-125674132D01*
X87885000Y-125667518D01*
X87885000Y-125048000D01*
X87054852Y-125048000D01*
X87103559Y-124910953D01*
X87113877Y-124760114D01*
X87083116Y-124612085D01*
X87049910Y-124548000D01*
X87885000Y-124548000D01*
X87885000Y-123928481D01*
X87884645Y-123921867D01*
X87878599Y-123865628D01*
X87828352Y-123730910D01*
X87742188Y-123615811D01*
X87627089Y-123529647D01*
X87492371Y-123479400D01*
X87436132Y-123473354D01*
X87429518Y-123473000D01*
X86810000Y-123473000D01*
X86810000Y-124306316D01*
X86781181Y-124288791D01*
X86635596Y-124248000D01*
X86522378Y-124248000D01*
X86410217Y-124263416D01*
X86310000Y-124306946D01*
X86310000Y-123473000D01*
X85690482Y-123473000D01*
X85683867Y-123473354D01*
X85627628Y-123479400D01*
X85492910Y-123529647D01*
X85377811Y-123615811D01*
X85291647Y-123730910D01*
X85241400Y-123865628D01*
X85235354Y-123921867D01*
X85235000Y-123928481D01*
X85235000Y-124548000D01*
X86065148Y-124548000D01*
X86016441Y-124685047D01*
X86006123Y-124835886D01*
X86036884Y-124983915D01*
X86070090Y-125048000D01*
X85235000Y-125048000D01*
X85235000Y-125667518D01*
X79756000Y-125667518D01*
X79756000Y-80295000D01*
X82354562Y-80295000D01*
X82374276Y-80532906D01*
X82374276Y-80532909D01*
X82374277Y-80532911D01*
X82393390Y-80608388D01*
X82432882Y-80764335D01*
X82528774Y-80982949D01*
X82528776Y-80982952D01*
X82659347Y-81182806D01*
X82700500Y-81227510D01*
X82821031Y-81358443D01*
X82841225Y-81374160D01*
X83009421Y-81505071D01*
X83069517Y-81537593D01*
X83119107Y-81586811D01*
X83134499Y-81646647D01*
X83134499Y-118204137D01*
X83134273Y-118211622D01*
X83130834Y-118268476D01*
X83141099Y-118324487D01*
X83142226Y-118331891D01*
X83149092Y-118388436D01*
X83152308Y-118396916D01*
X83158333Y-118418528D01*
X83159966Y-118427440D01*
X83183338Y-118479370D01*
X83186204Y-118486290D01*
X83206400Y-118539545D01*
X83211551Y-118547007D01*
X83222573Y-118566548D01*
X83226295Y-118574818D01*
X83261420Y-118619653D01*
X83265849Y-118625670D01*
X83298207Y-118672549D01*
X83340838Y-118710317D01*
X83346291Y-118715451D01*
X84290587Y-119659747D01*
X85196029Y-120565188D01*
X85229514Y-120626511D01*
X85228554Y-120683308D01*
X85208506Y-120762478D01*
X85189819Y-120988000D01*
X85208506Y-121213519D01*
X85208506Y-121213522D01*
X85208507Y-121213524D01*
X85264060Y-121432897D01*
X85354963Y-121640134D01*
X85478735Y-121829582D01*
X85632002Y-121996074D01*
X85810583Y-122135069D01*
X86009605Y-122242774D01*
X86066537Y-122262319D01*
X86223638Y-122316253D01*
X86446851Y-122353500D01*
X86673149Y-122353500D01*
X86896361Y-122316253D01*
X87001094Y-122280297D01*
X87110395Y-122242774D01*
X87309417Y-122135069D01*
X87487998Y-121996074D01*
X87641265Y-121829582D01*
X87765037Y-121640134D01*
X87855940Y-121432897D01*
X87911493Y-121213524D01*
X87930180Y-120988000D01*
X87911493Y-120762476D01*
X87855940Y-120543103D01*
X87765037Y-120335866D01*
X87641265Y-120146418D01*
X87487998Y-119979926D01*
X87309417Y-119840931D01*
X87110395Y-119733226D01*
X87110391Y-119733224D01*
X87110390Y-119733224D01*
X86896361Y-119659746D01*
X86673149Y-119622500D01*
X86446851Y-119622500D01*
X86243117Y-119656496D01*
X86173752Y-119648114D01*
X86135027Y-119621868D01*
X84501819Y-117988659D01*
X84468334Y-117927336D01*
X84465500Y-117900978D01*
X84465500Y-110667518D01*
X85235000Y-110667518D01*
X85235354Y-110674132D01*
X85241400Y-110730371D01*
X85291647Y-110865089D01*
X85377811Y-110980188D01*
X85492910Y-111066352D01*
X85627628Y-111116599D01*
X85683867Y-111122645D01*
X85690482Y-111123000D01*
X86310000Y-111123000D01*
X86310000Y-110289683D01*
X86338819Y-110307209D01*
X86484404Y-110348000D01*
X86597622Y-110348000D01*
X86709783Y-110332584D01*
X86810000Y-110289053D01*
X86810000Y-111123000D01*
X87429518Y-111123000D01*
X87436132Y-111122645D01*
X87492371Y-111116599D01*
X87627089Y-111066352D01*
X87742188Y-110980188D01*
X87828352Y-110865089D01*
X87878599Y-110730371D01*
X87884645Y-110674132D01*
X87885000Y-110667518D01*
X87885000Y-110048000D01*
X87054852Y-110048000D01*
X87103559Y-109910953D01*
X87113877Y-109760114D01*
X87083116Y-109612085D01*
X87049910Y-109548000D01*
X87885000Y-109548000D01*
X87885000Y-108928481D01*
X87884645Y-108921867D01*
X87878599Y-108865628D01*
X87828352Y-108730910D01*
X87742188Y-108615811D01*
X87627089Y-108529647D01*
X87492371Y-108479400D01*
X87436132Y-108473354D01*
X87429518Y-108473000D01*
X86810000Y-108473000D01*
X86810000Y-109306316D01*
X86781181Y-109288791D01*
X86635596Y-109248000D01*
X86522378Y-109248000D01*
X86410217Y-109263416D01*
X86310000Y-109306946D01*
X86310000Y-108473000D01*
X85690482Y-108473000D01*
X85683867Y-108473354D01*
X85627628Y-108479400D01*
X85492910Y-108529647D01*
X85377811Y-108615811D01*
X85291647Y-108730910D01*
X85241400Y-108865628D01*
X85235354Y-108921867D01*
X85235000Y-108928481D01*
X85235000Y-109548000D01*
X86065148Y-109548000D01*
X86016441Y-109685047D01*
X86006123Y-109835886D01*
X86036884Y-109983915D01*
X86070090Y-110048000D01*
X85235000Y-110048000D01*
X85235000Y-110667518D01*
X84465500Y-110667518D01*
X84465500Y-105988000D01*
X85189819Y-105988000D01*
X85208506Y-106213519D01*
X85208507Y-106213521D01*
X85208507Y-106213524D01*
X85264060Y-106432897D01*
X85354963Y-106640134D01*
X85478735Y-106829582D01*
X85632002Y-106996074D01*
X85810583Y-107135069D01*
X86009605Y-107242774D01*
X86066537Y-107262319D01*
X86223638Y-107316253D01*
X86446851Y-107353500D01*
X86673148Y-107353500D01*
X86673149Y-107353500D01*
X86876881Y-107319503D01*
X86946245Y-107327885D01*
X86984971Y-107354131D01*
X93393881Y-113763040D01*
X93427366Y-113824363D01*
X93430200Y-113850721D01*
X93430200Y-123681837D01*
X93429974Y-123689324D01*
X93426535Y-123746178D01*
X93436799Y-123802187D01*
X93437926Y-123809591D01*
X93444792Y-123866136D01*
X93448008Y-123874616D01*
X93454033Y-123896228D01*
X93455666Y-123905140D01*
X93479038Y-123957070D01*
X93481904Y-123963990D01*
X93502100Y-124017245D01*
X93507251Y-124024707D01*
X93518273Y-124044248D01*
X93521995Y-124052518D01*
X93557120Y-124097353D01*
X93561549Y-124103370D01*
X93593907Y-124150249D01*
X93636538Y-124188017D01*
X93641991Y-124193151D01*
X95352302Y-125903462D01*
X95385787Y-125964785D01*
X95384396Y-126023234D01*
X95374593Y-126059819D01*
X95354455Y-126290000D01*
X95374593Y-126520175D01*
X95374594Y-126520178D01*
X95434396Y-126743363D01*
X95532045Y-126952772D01*
X95664574Y-127142043D01*
X95827957Y-127305426D01*
X96017228Y-127437955D01*
X96017231Y-127437956D01*
X96017232Y-127437957D01*
X96085865Y-127469961D01*
X96138305Y-127516133D01*
X96157457Y-127583327D01*
X96137241Y-127650208D01*
X96085866Y-127694725D01*
X96037556Y-127717252D01*
X95968888Y-127765333D01*
X95968887Y-127765334D01*
X96531235Y-128327681D01*
X96407276Y-128381525D01*
X96296392Y-128471735D01*
X96213959Y-128588517D01*
X96180135Y-128683688D01*
X95615334Y-128118887D01*
X95615333Y-128118888D01*
X95567252Y-128187555D01*
X95472599Y-128390539D01*
X95414630Y-128606883D01*
X95395110Y-128829999D01*
X95414630Y-129053116D01*
X95472599Y-129269459D01*
X95567252Y-129472442D01*
X95615334Y-129541111D01*
X96179439Y-128977006D01*
X96185418Y-129005775D01*
X96251181Y-129132693D01*
X96348749Y-129237162D01*
X96470884Y-129311434D01*
X96534339Y-129329213D01*
X95968888Y-129894664D01*
X96037554Y-129942745D01*
X96085865Y-129965273D01*
X96138305Y-130011445D01*
X96157457Y-130078639D01*
X96137242Y-130145520D01*
X96085867Y-130190038D01*
X96017228Y-130222045D01*
X95827953Y-130354577D01*
X95664577Y-130517953D01*
X95532044Y-130707230D01*
X95434396Y-130916635D01*
X95374593Y-131139824D01*
X95354455Y-131370000D01*
X95374593Y-131600175D01*
X95374594Y-131600178D01*
X95434396Y-131823363D01*
X95532045Y-132032772D01*
X95664574Y-132222043D01*
X95827957Y-132385426D01*
X96017228Y-132517955D01*
X96037951Y-132527618D01*
X96090390Y-132573791D01*
X96109541Y-132640985D01*
X96089325Y-132707866D01*
X96037951Y-132752381D01*
X96017230Y-132762044D01*
X96017228Y-132762045D01*
X95827953Y-132894577D01*
X95664577Y-133057953D01*
X95532044Y-133247230D01*
X95434396Y-133456635D01*
X95374593Y-133679824D01*
X95354455Y-133909999D01*
X95374593Y-134140175D01*
X95374594Y-134140178D01*
X95434396Y-134363363D01*
X95532045Y-134572772D01*
X95664574Y-134762043D01*
X95827957Y-134925426D01*
X96017228Y-135057955D01*
X96037951Y-135067618D01*
X96090390Y-135113791D01*
X96109541Y-135180985D01*
X96089325Y-135247866D01*
X96037951Y-135292381D01*
X96017230Y-135302044D01*
X96017228Y-135302045D01*
X95827953Y-135434577D01*
X95664577Y-135597953D01*
X95532044Y-135787230D01*
X95434396Y-135996635D01*
X95374593Y-136219824D01*
X95354455Y-136449999D01*
X95374593Y-136680175D01*
X95414626Y-136829582D01*
X95434396Y-136903363D01*
X95532045Y-137112772D01*
X95664574Y-137302043D01*
X95827957Y-137465426D01*
X96017228Y-137597955D01*
X96037951Y-137607618D01*
X96090390Y-137653791D01*
X96109541Y-137720985D01*
X96089325Y-137787866D01*
X96037951Y-137832381D01*
X96017230Y-137842044D01*
X96017228Y-137842045D01*
X95827953Y-137974577D01*
X95664577Y-138137953D01*
X95532044Y-138327230D01*
X95434396Y-138536635D01*
X95374593Y-138759824D01*
X95354455Y-138990000D01*
X95374593Y-139220175D01*
X95434396Y-139443364D01*
X95480664Y-139542585D01*
X95532045Y-139652772D01*
X95664574Y-139842043D01*
X95827957Y-140005426D01*
X96017228Y-140137955D01*
X96037951Y-140147618D01*
X96090390Y-140193791D01*
X96109541Y-140260985D01*
X96089325Y-140327866D01*
X96037951Y-140372381D01*
X96017230Y-140382044D01*
X96017228Y-140382045D01*
X95827953Y-140514577D01*
X95664577Y-140677953D01*
X95664574Y-140677956D01*
X95664574Y-140677957D01*
X95532430Y-140866679D01*
X95532044Y-140867230D01*
X95434396Y-141076635D01*
X95374593Y-141299824D01*
X95354455Y-141529999D01*
X95374593Y-141760175D01*
X95374594Y-141760178D01*
X95434396Y-141983363D01*
X95532045Y-142192772D01*
X95664574Y-142382043D01*
X95827957Y-142545426D01*
X96017228Y-142677955D01*
X96226637Y-142775604D01*
X96449822Y-142835406D01*
X96680000Y-142855544D01*
X96910178Y-142835406D01*
X97133363Y-142775604D01*
X97342772Y-142677955D01*
X97532043Y-142545426D01*
X97695426Y-142382043D01*
X97827955Y-142192772D01*
X97925604Y-141983363D01*
X97985406Y-141760178D01*
X98005544Y-141530000D01*
X97985406Y-141299822D01*
X97925604Y-141076637D01*
X97827955Y-140867228D01*
X97695426Y-140677957D01*
X97532043Y-140514574D01*
X97342772Y-140382045D01*
X97322050Y-140372382D01*
X97322046Y-140372380D01*
X97269608Y-140326206D01*
X97250458Y-140259012D01*
X97270675Y-140192131D01*
X97322047Y-140147619D01*
X97342772Y-140137955D01*
X97532043Y-140005426D01*
X97695426Y-139842043D01*
X97827955Y-139652772D01*
X97925604Y-139443363D01*
X97985406Y-139220178D01*
X98005544Y-138990000D01*
X97985406Y-138759822D01*
X97925604Y-138536637D01*
X97827955Y-138327228D01*
X97695426Y-138137957D01*
X97532043Y-137974574D01*
X97342772Y-137842045D01*
X97322048Y-137832381D01*
X97269610Y-137786210D01*
X97250458Y-137719016D01*
X97270674Y-137652135D01*
X97322048Y-137607618D01*
X97342772Y-137597955D01*
X97532043Y-137465426D01*
X97695426Y-137302043D01*
X97827955Y-137112772D01*
X97925604Y-136903363D01*
X97985406Y-136680178D01*
X98005544Y-136450000D01*
X97985406Y-136219822D01*
X97925604Y-135996637D01*
X97827955Y-135787228D01*
X97695426Y-135597957D01*
X97532043Y-135434574D01*
X97342772Y-135302045D01*
X97322048Y-135292381D01*
X97269610Y-135246210D01*
X97250458Y-135179016D01*
X97270674Y-135112135D01*
X97322048Y-135067618D01*
X97342772Y-135057955D01*
X97532043Y-134925426D01*
X97695426Y-134762043D01*
X97827955Y-134572772D01*
X97925604Y-134363363D01*
X97985406Y-134140178D01*
X98005544Y-133910000D01*
X97985406Y-133679822D01*
X97925604Y-133456637D01*
X97827955Y-133247228D01*
X97695426Y-133057957D01*
X97532043Y-132894574D01*
X97342772Y-132762045D01*
X97322048Y-132752381D01*
X97269610Y-132706210D01*
X97250458Y-132639016D01*
X97270674Y-132572135D01*
X97322048Y-132527618D01*
X97342772Y-132517955D01*
X97532043Y-132385426D01*
X97695426Y-132222043D01*
X97827955Y-132032772D01*
X97925604Y-131823363D01*
X97985406Y-131600178D01*
X98005544Y-131370000D01*
X97985406Y-131139822D01*
X97925604Y-130916637D01*
X97827955Y-130707228D01*
X97695426Y-130517957D01*
X97532043Y-130354574D01*
X97342772Y-130222045D01*
X97274133Y-130190038D01*
X97221694Y-130143865D01*
X97202543Y-130076671D01*
X97222759Y-130009790D01*
X97274136Y-129965273D01*
X97322445Y-129942746D01*
X97391111Y-129894664D01*
X96828765Y-129332318D01*
X96952724Y-129278475D01*
X97063608Y-129188265D01*
X97146041Y-129071483D01*
X97179864Y-128976311D01*
X97744664Y-129541110D01*
X97792748Y-129472442D01*
X97887399Y-129269461D01*
X97945369Y-129053116D01*
X97964889Y-128830000D01*
X97945369Y-128606883D01*
X97887400Y-128390540D01*
X97792747Y-128187558D01*
X97744663Y-128118887D01*
X97180559Y-128682991D01*
X97174582Y-128654225D01*
X97108819Y-128527307D01*
X97011251Y-128422838D01*
X96889116Y-128348566D01*
X96825660Y-128330786D01*
X97391111Y-127765334D01*
X97322442Y-127717252D01*
X97274133Y-127694725D01*
X97221694Y-127648553D01*
X97202542Y-127581359D01*
X97222758Y-127514478D01*
X97274130Y-127469963D01*
X97342772Y-127437955D01*
X97532043Y-127305426D01*
X97695426Y-127142043D01*
X97827955Y-126952772D01*
X97925604Y-126743363D01*
X97985406Y-126520178D01*
X98005544Y-126290000D01*
X97985406Y-126059822D01*
X97925604Y-125836637D01*
X97827955Y-125627228D01*
X97695426Y-125437957D01*
X97532043Y-125274574D01*
X97342772Y-125142045D01*
X97322048Y-125132381D01*
X97269610Y-125086210D01*
X97250458Y-125019016D01*
X97270674Y-124952135D01*
X97322048Y-124907618D01*
X97342772Y-124897955D01*
X97532043Y-124765426D01*
X97695426Y-124602043D01*
X97827955Y-124412772D01*
X97925604Y-124203363D01*
X97985406Y-123980178D01*
X98005544Y-123750000D01*
X97985406Y-123519822D01*
X97925604Y-123296637D01*
X97827955Y-123087228D01*
X97695426Y-122897957D01*
X97532043Y-122734574D01*
X97342772Y-122602045D01*
X97322050Y-122592382D01*
X97322046Y-122592380D01*
X97269608Y-122546206D01*
X97250458Y-122479012D01*
X97270675Y-122412131D01*
X97322047Y-122367619D01*
X97342772Y-122357955D01*
X97532043Y-122225426D01*
X97695426Y-122062043D01*
X97827955Y-121872772D01*
X97925604Y-121663363D01*
X97985406Y-121440178D01*
X98005544Y-121210000D01*
X97985406Y-120979822D01*
X97925604Y-120756637D01*
X97827955Y-120547228D01*
X97695426Y-120357957D01*
X97532043Y-120194574D01*
X97342772Y-120062045D01*
X97322048Y-120052381D01*
X97269610Y-120006210D01*
X97250458Y-119939016D01*
X97270674Y-119872135D01*
X97322048Y-119827618D01*
X97342772Y-119817955D01*
X97532043Y-119685426D01*
X97695426Y-119522043D01*
X97827955Y-119332772D01*
X97925604Y-119123363D01*
X97985406Y-118900178D01*
X98005544Y-118670000D01*
X97985406Y-118439822D01*
X97925604Y-118216637D01*
X97827955Y-118007228D01*
X97695426Y-117817957D01*
X97532043Y-117654574D01*
X97342772Y-117522045D01*
X97322048Y-117512381D01*
X97269610Y-117466210D01*
X97250458Y-117399016D01*
X97270674Y-117332135D01*
X97322048Y-117287618D01*
X97342772Y-117277955D01*
X97532043Y-117145426D01*
X97695426Y-116982043D01*
X97827955Y-116792772D01*
X97925604Y-116583363D01*
X97985406Y-116360178D01*
X98005544Y-116130000D01*
X97985406Y-115899822D01*
X97961338Y-115810000D01*
X104299764Y-115810000D01*
X104318667Y-116014007D01*
X104374735Y-116211064D01*
X104466055Y-116394461D01*
X104589526Y-116557962D01*
X104740930Y-116695985D01*
X104740932Y-116695986D01*
X104740933Y-116695987D01*
X104915125Y-116803843D01*
X105106169Y-116877853D01*
X105307560Y-116915500D01*
X105307562Y-116915500D01*
X105512438Y-116915500D01*
X105512440Y-116915500D01*
X105713831Y-116877853D01*
X105904875Y-116803843D01*
X106079067Y-116695987D01*
X106206524Y-116579794D01*
X106230473Y-116557962D01*
X106234209Y-116553015D01*
X106353942Y-116394464D01*
X106353942Y-116394462D01*
X106353944Y-116394461D01*
X106445264Y-116211064D01*
X106501332Y-116014007D01*
X106504287Y-115982110D01*
X106520236Y-115810000D01*
X106501332Y-115605995D01*
X106501332Y-115605992D01*
X106445264Y-115408935D01*
X106353944Y-115225538D01*
X106230473Y-115062037D01*
X106079069Y-114924014D01*
X105974088Y-114859012D01*
X105904875Y-114816157D01*
X105904873Y-114816156D01*
X105713831Y-114742147D01*
X105691390Y-114737952D01*
X105512440Y-114704500D01*
X105307560Y-114704500D01*
X105208970Y-114722930D01*
X105106168Y-114742147D01*
X104915126Y-114816156D01*
X104740930Y-114924014D01*
X104589526Y-115062037D01*
X104466055Y-115225538D01*
X104374735Y-115408935D01*
X104318667Y-115605992D01*
X104299764Y-115810000D01*
X97961338Y-115810000D01*
X97925604Y-115676637D01*
X97827955Y-115467228D01*
X97695426Y-115277957D01*
X97532043Y-115114574D01*
X97342772Y-114982045D01*
X97342766Y-114982042D01*
X97322046Y-114972380D01*
X97269608Y-114926206D01*
X97250458Y-114859012D01*
X97270675Y-114792131D01*
X97322047Y-114747619D01*
X97342772Y-114737955D01*
X97532043Y-114605426D01*
X97695426Y-114442043D01*
X97827955Y-114252772D01*
X97925604Y-114043363D01*
X97985406Y-113820178D01*
X98005544Y-113590000D01*
X97985406Y-113359822D01*
X97925604Y-113136637D01*
X97827955Y-112927228D01*
X97695426Y-112737957D01*
X97532043Y-112574574D01*
X97342772Y-112442045D01*
X97322048Y-112432381D01*
X97269610Y-112386210D01*
X97250458Y-112319016D01*
X97270674Y-112252135D01*
X97322048Y-112207618D01*
X97342772Y-112197955D01*
X97532043Y-112065426D01*
X97695426Y-111902043D01*
X97827955Y-111712772D01*
X97925604Y-111503363D01*
X97985406Y-111280178D01*
X98005544Y-111050000D01*
X97985406Y-110819822D01*
X97925604Y-110596637D01*
X97827955Y-110387228D01*
X97695426Y-110197957D01*
X97532043Y-110034574D01*
X97342772Y-109902045D01*
X97322048Y-109892381D01*
X97269610Y-109846210D01*
X97250458Y-109779016D01*
X97270674Y-109712135D01*
X97322048Y-109667618D01*
X97342772Y-109657955D01*
X97532043Y-109525426D01*
X97695426Y-109362043D01*
X97827955Y-109172772D01*
X97925604Y-108963363D01*
X97985406Y-108740178D01*
X98005544Y-108510000D01*
X98000994Y-108457999D01*
X97985406Y-108279824D01*
X97985406Y-108279822D01*
X97925604Y-108056637D01*
X97827955Y-107847228D01*
X97695426Y-107657957D01*
X97532043Y-107494574D01*
X97342772Y-107362045D01*
X97342766Y-107362042D01*
X97322046Y-107352380D01*
X97269608Y-107306206D01*
X97250458Y-107239012D01*
X97270675Y-107172131D01*
X97322047Y-107127619D01*
X97342772Y-107117955D01*
X97532043Y-106985426D01*
X97695426Y-106822043D01*
X97827955Y-106632772D01*
X97925604Y-106423363D01*
X97985406Y-106200178D01*
X98005544Y-105970000D01*
X97985406Y-105739822D01*
X97925604Y-105516637D01*
X97827955Y-105307228D01*
X97695426Y-105117957D01*
X97532043Y-104954574D01*
X97342772Y-104822045D01*
X97322048Y-104812381D01*
X97269610Y-104766210D01*
X97250458Y-104699016D01*
X97270674Y-104632135D01*
X97322048Y-104587618D01*
X97342772Y-104577955D01*
X97532043Y-104445426D01*
X97695426Y-104282043D01*
X97827955Y-104092772D01*
X97925604Y-103883363D01*
X97985406Y-103660178D01*
X98005544Y-103430000D01*
X97985406Y-103199822D01*
X97925604Y-102976637D01*
X97827955Y-102767228D01*
X97695426Y-102577957D01*
X97532043Y-102414574D01*
X97342772Y-102282045D01*
X97322048Y-102272381D01*
X97269610Y-102226210D01*
X97250458Y-102159016D01*
X97270674Y-102092135D01*
X97322048Y-102047618D01*
X97342772Y-102037955D01*
X97532043Y-101905426D01*
X97695426Y-101742043D01*
X97827955Y-101552772D01*
X97925604Y-101343363D01*
X97985406Y-101120178D01*
X98005544Y-100890000D01*
X97985406Y-100659822D01*
X97925604Y-100436637D01*
X97827955Y-100227228D01*
X97695426Y-100037957D01*
X97532043Y-99874574D01*
X97342772Y-99742045D01*
X97322048Y-99732381D01*
X97269610Y-99686210D01*
X97250458Y-99619016D01*
X97270674Y-99552135D01*
X97322048Y-99507618D01*
X97342772Y-99497955D01*
X97532043Y-99365426D01*
X97695426Y-99202043D01*
X97827955Y-99012772D01*
X97925604Y-98803363D01*
X97985406Y-98580178D01*
X98005544Y-98350000D01*
X97985406Y-98119822D01*
X97925604Y-97896637D01*
X97827955Y-97687228D01*
X97695426Y-97497957D01*
X97532043Y-97334574D01*
X97527042Y-97329573D01*
X97493557Y-97268250D01*
X97498541Y-97198558D01*
X97540413Y-97142625D01*
X97575381Y-97128619D01*
X97574320Y-97125928D01*
X97727395Y-97065562D01*
X97845785Y-96975785D01*
X97935562Y-96857395D01*
X97943472Y-96837338D01*
X97990070Y-96719174D01*
X98000500Y-96632320D01*
X98000500Y-94987680D01*
X97990070Y-94900826D01*
X97990069Y-94900823D01*
X97935562Y-94762604D01*
X97845785Y-94644214D01*
X97727395Y-94554437D01*
X97589176Y-94499930D01*
X97534136Y-94493320D01*
X97502320Y-94489500D01*
X95857680Y-94489500D01*
X95854015Y-94489940D01*
X95854016Y-94489940D01*
X95770823Y-94499930D01*
X95632604Y-94554437D01*
X95514214Y-94644214D01*
X95424437Y-94762604D01*
X95369930Y-94900823D01*
X95369930Y-94900826D01*
X95359500Y-94987680D01*
X95359500Y-96632320D01*
X95359940Y-96635983D01*
X95369930Y-96719176D01*
X95424437Y-96857395D01*
X95514214Y-96975785D01*
X95632604Y-97065562D01*
X95785680Y-97125928D01*
X95784385Y-97129209D01*
X95824258Y-97146300D01*
X95863401Y-97204176D01*
X95865040Y-97274027D01*
X95832957Y-97329573D01*
X95664577Y-97497953D01*
X95664574Y-97497956D01*
X95664574Y-97497957D01*
X95540042Y-97675808D01*
X95532044Y-97687230D01*
X95434396Y-97896635D01*
X95374593Y-98119824D01*
X95354455Y-98349999D01*
X95374593Y-98580175D01*
X95423806Y-98763843D01*
X95434396Y-98803363D01*
X95532045Y-99012772D01*
X95664574Y-99202043D01*
X95827957Y-99365426D01*
X96017228Y-99497955D01*
X96037951Y-99507618D01*
X96090390Y-99553791D01*
X96109541Y-99620985D01*
X96089325Y-99687866D01*
X96037951Y-99732381D01*
X96017230Y-99742044D01*
X96017228Y-99742045D01*
X95827953Y-99874577D01*
X95664577Y-100037953D01*
X95664574Y-100037956D01*
X95664574Y-100037957D01*
X95549261Y-100202642D01*
X95532044Y-100227230D01*
X95434396Y-100436635D01*
X95374593Y-100659824D01*
X95354455Y-100890000D01*
X95374593Y-101120175D01*
X95429942Y-101326743D01*
X95434396Y-101343363D01*
X95532045Y-101552772D01*
X95664574Y-101742043D01*
X95827957Y-101905426D01*
X96017228Y-102037955D01*
X96037951Y-102047618D01*
X96090390Y-102093791D01*
X96109541Y-102160985D01*
X96089325Y-102227866D01*
X96037951Y-102272381D01*
X96017228Y-102282045D01*
X95849110Y-102399763D01*
X95827953Y-102414577D01*
X95664577Y-102577953D01*
X95532044Y-102767230D01*
X95434396Y-102976635D01*
X95374593Y-103199824D01*
X95354455Y-103430000D01*
X95374593Y-103660175D01*
X95374594Y-103660178D01*
X95434396Y-103883363D01*
X95532045Y-104092772D01*
X95664574Y-104282043D01*
X95827957Y-104445426D01*
X96017228Y-104577955D01*
X96037951Y-104587618D01*
X96090390Y-104633791D01*
X96109541Y-104700985D01*
X96089325Y-104767866D01*
X96037951Y-104812381D01*
X96017230Y-104822044D01*
X96017228Y-104822045D01*
X95827953Y-104954577D01*
X95664577Y-105117953D01*
X95664574Y-105117956D01*
X95664574Y-105117957D01*
X95644646Y-105146418D01*
X95532044Y-105307230D01*
X95434396Y-105516635D01*
X95374593Y-105739824D01*
X95354455Y-105970000D01*
X95374593Y-106200175D01*
X95434396Y-106423364D01*
X95487022Y-106536220D01*
X95532045Y-106632772D01*
X95664574Y-106822043D01*
X95827957Y-106985426D01*
X96017228Y-107117955D01*
X96037950Y-107127617D01*
X96090388Y-107173788D01*
X96109541Y-107240981D01*
X96089326Y-107307862D01*
X96037954Y-107352379D01*
X96017232Y-107362042D01*
X95827953Y-107494577D01*
X95664577Y-107657953D01*
X95664574Y-107657956D01*
X95664574Y-107657957D01*
X95533956Y-107844500D01*
X95532044Y-107847230D01*
X95434396Y-108056635D01*
X95374593Y-108279824D01*
X95354455Y-108509999D01*
X95374593Y-108740175D01*
X95434396Y-108963364D01*
X95461923Y-109022395D01*
X95532045Y-109172772D01*
X95664574Y-109362043D01*
X95827957Y-109525426D01*
X96017228Y-109657955D01*
X96037951Y-109667618D01*
X96090390Y-109713791D01*
X96109541Y-109780985D01*
X96089325Y-109847866D01*
X96037951Y-109892381D01*
X96017230Y-109902044D01*
X96017228Y-109902045D01*
X95827953Y-110034577D01*
X95664577Y-110197953D01*
X95664574Y-110197956D01*
X95664574Y-110197957D01*
X95572863Y-110328935D01*
X95532044Y-110387230D01*
X95434396Y-110596635D01*
X95374593Y-110819824D01*
X95354455Y-111049999D01*
X95374593Y-111280175D01*
X95434396Y-111503364D01*
X95471489Y-111582910D01*
X95532045Y-111712772D01*
X95664574Y-111902043D01*
X95827957Y-112065426D01*
X96017228Y-112197955D01*
X96037951Y-112207618D01*
X96090390Y-112253791D01*
X96109541Y-112320985D01*
X96089325Y-112387866D01*
X96037951Y-112432381D01*
X96017228Y-112442045D01*
X95879261Y-112538651D01*
X95827953Y-112574577D01*
X95664577Y-112737953D01*
X95664574Y-112737956D01*
X95664574Y-112737957D01*
X95537013Y-112920134D01*
X95532044Y-112927230D01*
X95434396Y-113136635D01*
X95374593Y-113359824D01*
X95354455Y-113590000D01*
X95374593Y-113820175D01*
X95434396Y-114043364D01*
X95471445Y-114122815D01*
X95532045Y-114252772D01*
X95664574Y-114442043D01*
X95827957Y-114605426D01*
X96017228Y-114737955D01*
X96037950Y-114747617D01*
X96090388Y-114793788D01*
X96109541Y-114860981D01*
X96089326Y-114927862D01*
X96037954Y-114972379D01*
X96017232Y-114982042D01*
X95827953Y-115114577D01*
X95664577Y-115277953D01*
X95664574Y-115277956D01*
X95664574Y-115277957D01*
X95545486Y-115448033D01*
X95532044Y-115467230D01*
X95434396Y-115676635D01*
X95374593Y-115899824D01*
X95354455Y-116130000D01*
X95374593Y-116360175D01*
X95434396Y-116583364D01*
X95475541Y-116671599D01*
X95532045Y-116792772D01*
X95664574Y-116982043D01*
X95827957Y-117145426D01*
X96017228Y-117277955D01*
X96037951Y-117287618D01*
X96090390Y-117333791D01*
X96109541Y-117400985D01*
X96089325Y-117467866D01*
X96037951Y-117512381D01*
X96017230Y-117522044D01*
X96017228Y-117522045D01*
X95827953Y-117654577D01*
X95664577Y-117817953D01*
X95664574Y-117817956D01*
X95664574Y-117817957D01*
X95545048Y-117988659D01*
X95532044Y-118007230D01*
X95434396Y-118216635D01*
X95374593Y-118439824D01*
X95354455Y-118670000D01*
X95374593Y-118900175D01*
X95420540Y-119071654D01*
X95434396Y-119123363D01*
X95532045Y-119332772D01*
X95664574Y-119522043D01*
X95827957Y-119685426D01*
X96017228Y-119817955D01*
X96037950Y-119827617D01*
X96090388Y-119873788D01*
X96109541Y-119940981D01*
X96089326Y-120007862D01*
X96037954Y-120052379D01*
X96017232Y-120062042D01*
X96017227Y-120062045D01*
X96017228Y-120062045D01*
X95896730Y-120146419D01*
X95827953Y-120194577D01*
X95664577Y-120357953D01*
X95664574Y-120357956D01*
X95664574Y-120357957D01*
X95534934Y-120543103D01*
X95532044Y-120547230D01*
X95434396Y-120756635D01*
X95374593Y-120979824D01*
X95354455Y-121209999D01*
X95374593Y-121440175D01*
X95374594Y-121440178D01*
X95434396Y-121663363D01*
X95532045Y-121872772D01*
X95664574Y-122062043D01*
X95827957Y-122225426D01*
X96017228Y-122357955D01*
X96037951Y-122367618D01*
X96090390Y-122413791D01*
X96109541Y-122480985D01*
X96089325Y-122547866D01*
X96037951Y-122592381D01*
X96017230Y-122602044D01*
X96017228Y-122602045D01*
X95827953Y-122734577D01*
X95664577Y-122897953D01*
X95532044Y-123087230D01*
X95434396Y-123296635D01*
X95374593Y-123519824D01*
X95355645Y-123736402D01*
X95330193Y-123801471D01*
X95273602Y-123842450D01*
X95203840Y-123846328D01*
X95144436Y-123813276D01*
X94797518Y-123466358D01*
X94764033Y-123405035D01*
X94761199Y-123378677D01*
X94761199Y-118539545D01*
X94761199Y-113547527D01*
X94761423Y-113540110D01*
X94764865Y-113483222D01*
X94754595Y-113427183D01*
X94753471Y-113419795D01*
X94752897Y-113415069D01*
X94746608Y-113363266D01*
X94743392Y-113354788D01*
X94737366Y-113333174D01*
X94735733Y-113324258D01*
X94712351Y-113272308D01*
X94709508Y-113265445D01*
X94689299Y-113212155D01*
X94684150Y-113204695D01*
X94673123Y-113185144D01*
X94669405Y-113176882D01*
X94666538Y-113173222D01*
X94634281Y-113132048D01*
X94629850Y-113126029D01*
X94597493Y-113079151D01*
X94554852Y-113041374D01*
X94549399Y-113036240D01*
X87923969Y-106410809D01*
X87890484Y-106349486D01*
X87891444Y-106292690D01*
X87911493Y-106213524D01*
X87930180Y-105988000D01*
X87911493Y-105762476D01*
X87855940Y-105543103D01*
X87765037Y-105335866D01*
X87641265Y-105146418D01*
X87487998Y-104979926D01*
X87309417Y-104840931D01*
X87110395Y-104733226D01*
X87110391Y-104733224D01*
X87110390Y-104733224D01*
X86896361Y-104659746D01*
X86673149Y-104622500D01*
X86446851Y-104622500D01*
X86223638Y-104659746D01*
X86009609Y-104733224D01*
X85810581Y-104840932D01*
X85632001Y-104979926D01*
X85478734Y-105146419D01*
X85354964Y-105335863D01*
X85264060Y-105543103D01*
X85208506Y-105762480D01*
X85189819Y-105988000D01*
X84465500Y-105988000D01*
X84465500Y-95667518D01*
X85235000Y-95667518D01*
X85235354Y-95674132D01*
X85241400Y-95730371D01*
X85291647Y-95865089D01*
X85377811Y-95980188D01*
X85492910Y-96066352D01*
X85627628Y-96116599D01*
X85683867Y-96122645D01*
X85690482Y-96123000D01*
X86310000Y-96123000D01*
X86310000Y-95289683D01*
X86338819Y-95307209D01*
X86484404Y-95348000D01*
X86597622Y-95348000D01*
X86709783Y-95332584D01*
X86810000Y-95289053D01*
X86810000Y-96123000D01*
X87429518Y-96123000D01*
X87436132Y-96122645D01*
X87492371Y-96116599D01*
X87627089Y-96066352D01*
X87742188Y-95980188D01*
X87828352Y-95865089D01*
X87878599Y-95730371D01*
X87884645Y-95674132D01*
X87885000Y-95667518D01*
X87885000Y-95048000D01*
X87054852Y-95048000D01*
X87103559Y-94910953D01*
X87113877Y-94760114D01*
X87083116Y-94612085D01*
X87049910Y-94548000D01*
X87885000Y-94548000D01*
X87885000Y-93928481D01*
X87884645Y-93921867D01*
X87878599Y-93865628D01*
X87828352Y-93730910D01*
X87742188Y-93615811D01*
X87627089Y-93529647D01*
X87492371Y-93479400D01*
X87436132Y-93473354D01*
X87429518Y-93473000D01*
X86810000Y-93473000D01*
X86810000Y-94306316D01*
X86781181Y-94288791D01*
X86635596Y-94248000D01*
X86522378Y-94248000D01*
X86410217Y-94263416D01*
X86310000Y-94306946D01*
X86310000Y-93473000D01*
X85690482Y-93473000D01*
X85683867Y-93473354D01*
X85627628Y-93479400D01*
X85492910Y-93529647D01*
X85377811Y-93615811D01*
X85291647Y-93730910D01*
X85241400Y-93865628D01*
X85235354Y-93921867D01*
X85235000Y-93928481D01*
X85235000Y-94548000D01*
X86065148Y-94548000D01*
X86016441Y-94685047D01*
X86006123Y-94835886D01*
X86036884Y-94983915D01*
X86070090Y-95048000D01*
X85235000Y-95048000D01*
X85235000Y-95667518D01*
X84465500Y-95667518D01*
X84465500Y-90988000D01*
X85189819Y-90988000D01*
X85208506Y-91213519D01*
X85208506Y-91213522D01*
X85208507Y-91213524D01*
X85264060Y-91432897D01*
X85307262Y-91531387D01*
X85354964Y-91640136D01*
X85361082Y-91649500D01*
X85478735Y-91829582D01*
X85632002Y-91996074D01*
X85810583Y-92135069D01*
X86009605Y-92242774D01*
X86066537Y-92262319D01*
X86223638Y-92316253D01*
X86446851Y-92353500D01*
X86673149Y-92353500D01*
X86896361Y-92316253D01*
X87001094Y-92280297D01*
X87110395Y-92242774D01*
X87309417Y-92135069D01*
X87487998Y-91996074D01*
X87641265Y-91829582D01*
X87765037Y-91640134D01*
X87855940Y-91432897D01*
X87911493Y-91213524D01*
X87930180Y-90988000D01*
X87911493Y-90762476D01*
X87855940Y-90543103D01*
X87765037Y-90335866D01*
X87641265Y-90146418D01*
X87487998Y-89979926D01*
X87309417Y-89840931D01*
X87110395Y-89733226D01*
X87110391Y-89733224D01*
X87110390Y-89733224D01*
X86896361Y-89659746D01*
X86673149Y-89622500D01*
X86446851Y-89622500D01*
X86223638Y-89659746D01*
X86009609Y-89733224D01*
X85810581Y-89840932D01*
X85632001Y-89979926D01*
X85478734Y-90146419D01*
X85354964Y-90335863D01*
X85264060Y-90543103D01*
X85208506Y-90762480D01*
X85189819Y-90988000D01*
X84465500Y-90988000D01*
X84465500Y-81646648D01*
X84485185Y-81579609D01*
X84530484Y-81537593D01*
X84590580Y-81505071D01*
X84758775Y-81374160D01*
X84823769Y-81348517D01*
X84892309Y-81362083D01*
X84942633Y-81410552D01*
X84950291Y-81426522D01*
X84964437Y-81462394D01*
X85054214Y-81580785D01*
X85172604Y-81670562D01*
X85310823Y-81725069D01*
X85310826Y-81725070D01*
X85397680Y-81735500D01*
X85401380Y-81735500D01*
X87278620Y-81735500D01*
X87282320Y-81735500D01*
X87369174Y-81725070D01*
X87507395Y-81670562D01*
X87625785Y-81580785D01*
X87715562Y-81462395D01*
X87770070Y-81324174D01*
X87780500Y-81237320D01*
X87780500Y-80264000D01*
X90934709Y-80264000D01*
X90934904Y-80267472D01*
X90949810Y-80532911D01*
X90953857Y-80604964D01*
X90954436Y-80608374D01*
X90954438Y-80608388D01*
X91010477Y-80938207D01*
X91010479Y-80938216D01*
X91011061Y-80941641D01*
X91012022Y-80944978D01*
X91012024Y-80944985D01*
X91104637Y-81266452D01*
X91104640Y-81266461D01*
X91105601Y-81269796D01*
X91106930Y-81273004D01*
X91106933Y-81273013D01*
X91229864Y-81569793D01*
X91236288Y-81585302D01*
X91401478Y-81884192D01*
X91599096Y-82162708D01*
X91826654Y-82417346D01*
X92081292Y-82644904D01*
X92359808Y-82842522D01*
X92658698Y-83007712D01*
X92974204Y-83138399D01*
X93302359Y-83232939D01*
X93639036Y-83290143D01*
X93980000Y-83309291D01*
X94320964Y-83290143D01*
X94657641Y-83232939D01*
X94985796Y-83138399D01*
X95301302Y-83007712D01*
X95600192Y-82842522D01*
X95878708Y-82644904D01*
X96133346Y-82417346D01*
X96360904Y-82162708D01*
X96558522Y-81884192D01*
X96723712Y-81585302D01*
X96854399Y-81269796D01*
X96948939Y-80941641D01*
X97006143Y-80604964D01*
X97025291Y-80264000D01*
X97006143Y-79923036D01*
X96948939Y-79586359D01*
X96854399Y-79258204D01*
X96723712Y-78942698D01*
X96558522Y-78643808D01*
X96360904Y-78365292D01*
X96133346Y-78110654D01*
X95878708Y-77883096D01*
X95779427Y-77812652D01*
X95603035Y-77687495D01*
X95603032Y-77687493D01*
X95600192Y-77685478D01*
X95301302Y-77520288D01*
X95298091Y-77518958D01*
X95298087Y-77518956D01*
X94989013Y-77390933D01*
X94989004Y-77390930D01*
X94985796Y-77389601D01*
X94982461Y-77388640D01*
X94982452Y-77388637D01*
X94660985Y-77296024D01*
X94660978Y-77296022D01*
X94657641Y-77295061D01*
X94654216Y-77294479D01*
X94654207Y-77294477D01*
X94324388Y-77238438D01*
X94324374Y-77238436D01*
X94320964Y-77237857D01*
X94317500Y-77237662D01*
X94317496Y-77237662D01*
X93983472Y-77218904D01*
X93980000Y-77218709D01*
X93976528Y-77218904D01*
X93642503Y-77237662D01*
X93642497Y-77237662D01*
X93639036Y-77237857D01*
X93635627Y-77238436D01*
X93635611Y-77238438D01*
X93305792Y-77294477D01*
X93305779Y-77294479D01*
X93302359Y-77295061D01*
X93299025Y-77296021D01*
X93299014Y-77296024D01*
X92977547Y-77388637D01*
X92977532Y-77388642D01*
X92974204Y-77389601D01*
X92971000Y-77390927D01*
X92970986Y-77390933D01*
X92661912Y-77518956D01*
X92661901Y-77518961D01*
X92658698Y-77520288D01*
X92655658Y-77521967D01*
X92655654Y-77521970D01*
X92362852Y-77683795D01*
X92362843Y-77683800D01*
X92359808Y-77685478D01*
X92356975Y-77687487D01*
X92356964Y-77687495D01*
X92084138Y-77881076D01*
X92084130Y-77881081D01*
X92081292Y-77883096D01*
X92078703Y-77885409D01*
X92078695Y-77885416D01*
X91829239Y-78108343D01*
X91829230Y-78108351D01*
X91826654Y-78110654D01*
X91824351Y-78113230D01*
X91824343Y-78113239D01*
X91601416Y-78362695D01*
X91601409Y-78362703D01*
X91599096Y-78365292D01*
X91597081Y-78368130D01*
X91597076Y-78368138D01*
X91403495Y-78640964D01*
X91403487Y-78640975D01*
X91401478Y-78643808D01*
X91399800Y-78646843D01*
X91399795Y-78646852D01*
X91249143Y-78919438D01*
X91236288Y-78942698D01*
X91234961Y-78945901D01*
X91234956Y-78945912D01*
X91106933Y-79254986D01*
X91106927Y-79255000D01*
X91105601Y-79258204D01*
X91104642Y-79261532D01*
X91104637Y-79261547D01*
X91012024Y-79583014D01*
X91012021Y-79583025D01*
X91011061Y-79586359D01*
X91010479Y-79589779D01*
X91010477Y-79589792D01*
X90954438Y-79919611D01*
X90954436Y-79919627D01*
X90953857Y-79923036D01*
X90953662Y-79926497D01*
X90953662Y-79926503D01*
X90935993Y-80241132D01*
X90934709Y-80264000D01*
X87780500Y-80264000D01*
X87780500Y-79352680D01*
X87770070Y-79265826D01*
X87761462Y-79243997D01*
X87715562Y-79127604D01*
X87625785Y-79009214D01*
X87507395Y-78919437D01*
X87369176Y-78864930D01*
X87314136Y-78858320D01*
X87282320Y-78854500D01*
X85397680Y-78854500D01*
X85394015Y-78854940D01*
X85394016Y-78854940D01*
X85310823Y-78864930D01*
X85172604Y-78919437D01*
X85054214Y-79009214D01*
X84964438Y-79127604D01*
X84950291Y-79163478D01*
X84907384Y-79218621D01*
X84841476Y-79241813D01*
X84773492Y-79225692D01*
X84758775Y-79215840D01*
X84666539Y-79144051D01*
X84590579Y-79084929D01*
X84380625Y-78971307D01*
X84380621Y-78971305D01*
X84380620Y-78971305D01*
X84154836Y-78893793D01*
X83981867Y-78864930D01*
X83919363Y-78854500D01*
X83680637Y-78854500D01*
X83621769Y-78864323D01*
X83445163Y-78893793D01*
X83219379Y-78971305D01*
X83219375Y-78971306D01*
X83219375Y-78971307D01*
X83149328Y-79009215D01*
X83009419Y-79084930D01*
X82821031Y-79231556D01*
X82659348Y-79407193D01*
X82528774Y-79607050D01*
X82432882Y-79825664D01*
X82374276Y-80057093D01*
X82354562Y-80295000D01*
X79756000Y-80295000D01*
X79756000Y-70612000D01*
X102130542Y-70612000D01*
X102150345Y-70888867D01*
X102209347Y-71160097D01*
X102306349Y-71420172D01*
X102438463Y-71662119D01*
X102439377Y-71663793D01*
X102605722Y-71886003D01*
X102801997Y-72082278D01*
X103024207Y-72248623D01*
X103033532Y-72253715D01*
X103267827Y-72381650D01*
X103397864Y-72430150D01*
X103527901Y-72478652D01*
X103799133Y-72537655D01*
X104076000Y-72557457D01*
X104352867Y-72537655D01*
X104624099Y-72478652D01*
X104884172Y-72381650D01*
X105127793Y-72248623D01*
X105350003Y-72082278D01*
X105546278Y-71886003D01*
X105712623Y-71663793D01*
X105845650Y-71420172D01*
X105942652Y-71160099D01*
X106001655Y-70888867D01*
X106021457Y-70612000D01*
X106001655Y-70335133D01*
X105942652Y-70063901D01*
X105845650Y-69803828D01*
X105845650Y-69803827D01*
X105712624Y-69560209D01*
X105712623Y-69560207D01*
X105546278Y-69337997D01*
X105350003Y-69141722D01*
X105127793Y-68975377D01*
X105127791Y-68975376D01*
X105127790Y-68975375D01*
X104884172Y-68842349D01*
X104624097Y-68745347D01*
X104352867Y-68686345D01*
X104076000Y-68666542D01*
X103799132Y-68686345D01*
X103527902Y-68745347D01*
X103267827Y-68842349D01*
X103024209Y-68975375D01*
X102801994Y-69141724D01*
X102605724Y-69337994D01*
X102439375Y-69560209D01*
X102306349Y-69803827D01*
X102209347Y-70063902D01*
X102150345Y-70335132D01*
X102130542Y-70612000D01*
X79756000Y-70612000D01*
X79756000Y-59868000D01*
X85749818Y-59868000D01*
X85768507Y-60081616D01*
X85824008Y-60288748D01*
X85861799Y-60369791D01*
X85914632Y-60483091D01*
X86037627Y-60658745D01*
X86189255Y-60810373D01*
X86364909Y-60933368D01*
X86559253Y-61023992D01*
X86613984Y-61038657D01*
X86673645Y-61075022D01*
X86704174Y-61137869D01*
X86695879Y-61207244D01*
X86651394Y-61261122D01*
X86626685Y-61274058D01*
X86449542Y-61342684D01*
X86337567Y-61412014D01*
X86838633Y-61913081D01*
X86834839Y-61913627D01*
X86701438Y-61974549D01*
X86590605Y-62070587D01*
X86511318Y-62193960D01*
X86488866Y-62270420D01*
X85981847Y-61763401D01*
X85981846Y-61763401D01*
X85968176Y-61781503D01*
X85870284Y-61978096D01*
X85810186Y-62189321D01*
X85789923Y-62408000D01*
X85810186Y-62626678D01*
X85870284Y-62837903D01*
X85968176Y-63034494D01*
X85981847Y-63052598D01*
X86488866Y-62545579D01*
X86511318Y-62622040D01*
X86590605Y-62745413D01*
X86701438Y-62841451D01*
X86834839Y-62902373D01*
X86838633Y-62902918D01*
X86337567Y-63403984D01*
X86449541Y-63473315D01*
X86654315Y-63552645D01*
X86870196Y-63593000D01*
X87089804Y-63593000D01*
X87305680Y-63552646D01*
X87510463Y-63473312D01*
X87622431Y-63403984D01*
X87121366Y-62902918D01*
X87125161Y-62902373D01*
X87258562Y-62841451D01*
X87369395Y-62745413D01*
X87448682Y-62622040D01*
X87471133Y-62545580D01*
X87978150Y-63052598D01*
X87978151Y-63052597D01*
X87991823Y-63034494D01*
X88089715Y-62837903D01*
X88149813Y-62626678D01*
X88170076Y-62408000D01*
X88149813Y-62189321D01*
X88089715Y-61978096D01*
X87991823Y-61781504D01*
X87978151Y-61763400D01*
X87471133Y-62270419D01*
X87448682Y-62193960D01*
X87369395Y-62070587D01*
X87258562Y-61974549D01*
X87125161Y-61913627D01*
X87121363Y-61913081D01*
X87622431Y-61412014D01*
X87622430Y-61412013D01*
X87510461Y-61342685D01*
X87333314Y-61274058D01*
X87277912Y-61231486D01*
X87254322Y-61165719D01*
X87270033Y-61097638D01*
X87320057Y-61048860D01*
X87346011Y-61038658D01*
X87400747Y-61023992D01*
X87595091Y-60933368D01*
X87770745Y-60810373D01*
X87922373Y-60658745D01*
X87973046Y-60586376D01*
X88027624Y-60542751D01*
X88074621Y-60533500D01*
X142201637Y-60533500D01*
X142209124Y-60533726D01*
X142265978Y-60537165D01*
X142322010Y-60526895D01*
X142329392Y-60525772D01*
X142385934Y-60518908D01*
X142394410Y-60515693D01*
X142416030Y-60509665D01*
X142424942Y-60508033D01*
X142476887Y-60484653D01*
X142483765Y-60481804D01*
X142537045Y-60461599D01*
X142544504Y-60456449D01*
X142564049Y-60445425D01*
X142572317Y-60441705D01*
X142617156Y-60406575D01*
X142623164Y-60402154D01*
X142670049Y-60369793D01*
X142707818Y-60327159D01*
X142712935Y-60321723D01*
X148482840Y-54551818D01*
X148544163Y-54518334D01*
X148570521Y-54515500D01*
X149136620Y-54515500D01*
X149140320Y-54515500D01*
X149227174Y-54505070D01*
X149365395Y-54450562D01*
X149483785Y-54360785D01*
X149573562Y-54242395D01*
X149628070Y-54104174D01*
X149638500Y-54017320D01*
X149638500Y-53929334D01*
X149658185Y-53862296D01*
X149710989Y-53816541D01*
X149718516Y-53813398D01*
X149736445Y-53806599D01*
X149743904Y-53801449D01*
X149763449Y-53790425D01*
X149771717Y-53786705D01*
X149816556Y-53751575D01*
X149822564Y-53747154D01*
X149869449Y-53714793D01*
X149907218Y-53672159D01*
X149912335Y-53666723D01*
X150779240Y-52799819D01*
X150840563Y-52766334D01*
X150866921Y-52763500D01*
X153846324Y-52763500D01*
X153913363Y-52783185D01*
X153959118Y-52835989D01*
X153969062Y-52905147D01*
X153966099Y-52919594D01*
X153946424Y-52993021D01*
X153927178Y-53212999D01*
X153946424Y-53432978D01*
X154003579Y-53646281D01*
X154096898Y-53846406D01*
X154142258Y-53911187D01*
X154809096Y-53244349D01*
X154809051Y-53244898D01*
X154840266Y-53368162D01*
X154909813Y-53474612D01*
X155010157Y-53552713D01*
X155130422Y-53594000D01*
X155166553Y-53594000D01*
X154495812Y-54264740D01*
X154560593Y-54310101D01*
X154760718Y-54403420D01*
X154974021Y-54460575D01*
X155194000Y-54479821D01*
X155413978Y-54460575D01*
X155627281Y-54403420D01*
X155827408Y-54310100D01*
X155892187Y-54264740D01*
X155221448Y-53594000D01*
X155225569Y-53594000D01*
X155319421Y-53578339D01*
X155431251Y-53517820D01*
X155517371Y-53424269D01*
X155568448Y-53307823D01*
X155574105Y-53239551D01*
X156245740Y-53911186D01*
X156291100Y-53846408D01*
X156384420Y-53646281D01*
X156441575Y-53432978D01*
X156460821Y-53213000D01*
X156441575Y-52993021D01*
X156421901Y-52919594D01*
X156423564Y-52849744D01*
X156462726Y-52791881D01*
X156526955Y-52764377D01*
X156541676Y-52763500D01*
X173876578Y-52763500D01*
X173943617Y-52783185D01*
X173964259Y-52799819D01*
X174699647Y-53535207D01*
X174704780Y-53540660D01*
X174733370Y-53572930D01*
X174742551Y-53583293D01*
X174758063Y-53594000D01*
X174789411Y-53615638D01*
X174795444Y-53620077D01*
X174804838Y-53627437D01*
X174840282Y-53655205D01*
X174848549Y-53658925D01*
X174868087Y-53669944D01*
X174875555Y-53675099D01*
X174875558Y-53675100D01*
X174893470Y-53681893D01*
X174949173Y-53724070D01*
X174973231Y-53789667D01*
X174973500Y-53797834D01*
X174973500Y-53885820D01*
X174973940Y-53889483D01*
X174983930Y-53972676D01*
X175038437Y-54110895D01*
X175128214Y-54229285D01*
X175192466Y-54278008D01*
X175233989Y-54334200D01*
X175238541Y-54403921D01*
X175204677Y-54465035D01*
X175191852Y-54476078D01*
X175156812Y-54502308D01*
X175070647Y-54617410D01*
X175020400Y-54752128D01*
X175014354Y-54808367D01*
X175014000Y-54814981D01*
X175014000Y-55371500D01*
X175988283Y-55371500D01*
X175952629Y-55410231D01*
X175901552Y-55526677D01*
X175891051Y-55653398D01*
X175922266Y-55776662D01*
X175984227Y-55871500D01*
X175014000Y-55871500D01*
X175014000Y-56428018D01*
X175014354Y-56434632D01*
X175020400Y-56490871D01*
X175070647Y-56625589D01*
X175156812Y-56740690D01*
X175191851Y-56766920D01*
X175233723Y-56822853D01*
X175238707Y-56892545D01*
X175205223Y-56953868D01*
X175192466Y-56964991D01*
X175128214Y-57013714D01*
X175038437Y-57132104D01*
X174983930Y-57270323D01*
X174983930Y-57270326D01*
X174973500Y-57357180D01*
X174973500Y-58965820D01*
X174973940Y-58969483D01*
X174983930Y-59052676D01*
X175038437Y-59190895D01*
X175128213Y-59309284D01*
X175159085Y-59332694D01*
X175200609Y-59388886D01*
X175205162Y-59458607D01*
X175171297Y-59519722D01*
X175159088Y-59530302D01*
X175128214Y-59553714D01*
X175038437Y-59672104D01*
X174983930Y-59810323D01*
X174983930Y-59810326D01*
X174973500Y-59897180D01*
X174973500Y-61505820D01*
X174973940Y-61509483D01*
X174983930Y-61592676D01*
X175038437Y-61730895D01*
X175128213Y-61849284D01*
X175159085Y-61872694D01*
X175200609Y-61928886D01*
X175205162Y-61998607D01*
X175171297Y-62059722D01*
X175159088Y-62070302D01*
X175128214Y-62093714D01*
X175038437Y-62212104D01*
X174983930Y-62350323D01*
X174982928Y-62358666D01*
X174973500Y-62437180D01*
X174973500Y-64045820D01*
X174973940Y-64049483D01*
X174983930Y-64132676D01*
X175038437Y-64270895D01*
X175128214Y-64389285D01*
X175159086Y-64412696D01*
X175200610Y-64468889D01*
X175205161Y-64538610D01*
X175171296Y-64599724D01*
X175159086Y-64610304D01*
X175128214Y-64633714D01*
X175038437Y-64752104D01*
X174983930Y-64890323D01*
X174983930Y-64890326D01*
X174973500Y-64977180D01*
X174973500Y-66585820D01*
X174973940Y-66589483D01*
X174983930Y-66672676D01*
X175038437Y-66810895D01*
X175128214Y-66929285D01*
X175159086Y-66952696D01*
X175200610Y-67008889D01*
X175205161Y-67078610D01*
X175171296Y-67139724D01*
X175159086Y-67150304D01*
X175128214Y-67173714D01*
X175038437Y-67292104D01*
X174983930Y-67430323D01*
X174983930Y-67430326D01*
X174973500Y-67517180D01*
X174973500Y-67520880D01*
X174973500Y-67532000D01*
X174953815Y-67599039D01*
X174901011Y-67644794D01*
X174849500Y-67656000D01*
X113109263Y-67656000D01*
X113101776Y-67655774D01*
X113044920Y-67652334D01*
X112988911Y-67662598D01*
X112981511Y-67663725D01*
X112924962Y-67670592D01*
X112916483Y-67673808D01*
X112894878Y-67679831D01*
X112885959Y-67681466D01*
X112834029Y-67704836D01*
X112827116Y-67707699D01*
X112773854Y-67727900D01*
X112766386Y-67733055D01*
X112746854Y-67744071D01*
X112738582Y-67747794D01*
X112693748Y-67782918D01*
X112687721Y-67787353D01*
X112640851Y-67819706D01*
X112603074Y-67862346D01*
X112597942Y-67867797D01*
X105557824Y-74907915D01*
X105496501Y-74941400D01*
X105426809Y-74936416D01*
X105370876Y-74894545D01*
X105330371Y-74840437D01*
X105204278Y-74671997D01*
X105008003Y-74475722D01*
X104785793Y-74309377D01*
X104785791Y-74309376D01*
X104785790Y-74309375D01*
X104542172Y-74176349D01*
X104282097Y-74079347D01*
X104010867Y-74020345D01*
X103734000Y-74000542D01*
X103457132Y-74020345D01*
X103185902Y-74079347D01*
X102925827Y-74176349D01*
X102682209Y-74309375D01*
X102459994Y-74475724D01*
X102263724Y-74671994D01*
X102097375Y-74894209D01*
X101964349Y-75137827D01*
X101867347Y-75397902D01*
X101808345Y-75669132D01*
X101788542Y-75946000D01*
X101808345Y-76222867D01*
X101867347Y-76494097D01*
X101964349Y-76754172D01*
X102097375Y-76997790D01*
X102097377Y-76997793D01*
X102263722Y-77220003D01*
X102459997Y-77416278D01*
X102682207Y-77582623D01*
X102682209Y-77582624D01*
X102925827Y-77715650D01*
X103055864Y-77764150D01*
X103185901Y-77812652D01*
X103457133Y-77871655D01*
X103734000Y-77891457D01*
X104010867Y-77871655D01*
X104282099Y-77812652D01*
X104542172Y-77715650D01*
X104785793Y-77582623D01*
X105008003Y-77416278D01*
X105204278Y-77220003D01*
X105370623Y-76997793D01*
X105503650Y-76754172D01*
X105503651Y-76754171D01*
X105533147Y-76675087D01*
X105575018Y-76619153D01*
X105608558Y-76605696D01*
X105607251Y-76602250D01*
X105621338Y-76596906D01*
X105629810Y-76593693D01*
X105651430Y-76587665D01*
X105660342Y-76586033D01*
X105712287Y-76562653D01*
X105719165Y-76559804D01*
X105772445Y-76539599D01*
X105779904Y-76534449D01*
X105799449Y-76523425D01*
X105807717Y-76519705D01*
X105852556Y-76484575D01*
X105858564Y-76480154D01*
X105905449Y-76447793D01*
X105943218Y-76405159D01*
X105948335Y-76399723D01*
X113324739Y-69023319D01*
X113386063Y-68989834D01*
X113412421Y-68987000D01*
X127257357Y-68987000D01*
X127324396Y-69006685D01*
X127370151Y-69059489D01*
X127380095Y-69128647D01*
X127351070Y-69192203D01*
X127345038Y-69198681D01*
X127205724Y-69337994D01*
X127039375Y-69560209D01*
X126906349Y-69803827D01*
X126809347Y-70063902D01*
X126750345Y-70335132D01*
X126730542Y-70612000D01*
X126750345Y-70888867D01*
X126809347Y-71160097D01*
X126906349Y-71420172D01*
X127038463Y-71662119D01*
X127039377Y-71663793D01*
X127205722Y-71886003D01*
X127401997Y-72082278D01*
X127624207Y-72248623D01*
X127633532Y-72253715D01*
X127867827Y-72381650D01*
X127997864Y-72430150D01*
X128127901Y-72478652D01*
X128399133Y-72537655D01*
X128656196Y-72556040D01*
X128675999Y-72557457D01*
X128675999Y-72557456D01*
X128676000Y-72557457D01*
X128952867Y-72537655D01*
X129224099Y-72478652D01*
X129484172Y-72381650D01*
X129727793Y-72248623D01*
X129950003Y-72082278D01*
X130146278Y-71886003D01*
X130312623Y-71663793D01*
X130445650Y-71420172D01*
X130542652Y-71160099D01*
X130601655Y-70888867D01*
X130621457Y-70612000D01*
X130601655Y-70335133D01*
X130542652Y-70063901D01*
X130445650Y-69803828D01*
X130445650Y-69803827D01*
X130312624Y-69560209D01*
X130312623Y-69560207D01*
X130146278Y-69337997D01*
X130006962Y-69198681D01*
X129973477Y-69137358D01*
X129978461Y-69067666D01*
X130020333Y-69011733D01*
X130085797Y-68987316D01*
X130094643Y-68987000D01*
X169805278Y-68987000D01*
X169872317Y-69006685D01*
X169918072Y-69059489D01*
X169928016Y-69128647D01*
X169898991Y-69192203D01*
X169892959Y-69198681D01*
X152119972Y-86971667D01*
X152058649Y-87005152D01*
X151988957Y-87000168D01*
X151933024Y-86958296D01*
X151911126Y-86910347D01*
X151866652Y-86705901D01*
X151769650Y-86445828D01*
X151769650Y-86445827D01*
X151636624Y-86202209D01*
X151636623Y-86202207D01*
X151470278Y-85979997D01*
X151274003Y-85783722D01*
X151051793Y-85617377D01*
X151051791Y-85617376D01*
X151051790Y-85617375D01*
X150808172Y-85484349D01*
X150548097Y-85387347D01*
X150276867Y-85328345D01*
X150000000Y-85308542D01*
X149723132Y-85328345D01*
X149451902Y-85387347D01*
X149191827Y-85484349D01*
X148948209Y-85617375D01*
X148725994Y-85783724D01*
X148529724Y-85979994D01*
X148363375Y-86202209D01*
X148230349Y-86445827D01*
X148133347Y-86705902D01*
X148074345Y-86977132D01*
X148054542Y-87253999D01*
X148074345Y-87530867D01*
X148133347Y-87802097D01*
X148230349Y-88062172D01*
X148363375Y-88305790D01*
X148363377Y-88305793D01*
X148529722Y-88528003D01*
X148725997Y-88724278D01*
X148948207Y-88890623D01*
X148948209Y-88890624D01*
X149191827Y-89023650D01*
X149321864Y-89072150D01*
X149451901Y-89120652D01*
X149656345Y-89165126D01*
X149717666Y-89198609D01*
X149751151Y-89259932D01*
X149746167Y-89329624D01*
X149717666Y-89373972D01*
X131283459Y-107808181D01*
X131222136Y-107841666D01*
X131195778Y-107844500D01*
X123290596Y-107844500D01*
X123223557Y-107824815D01*
X123189022Y-107791624D01*
X123095426Y-107657957D01*
X122932046Y-107494577D01*
X122932043Y-107494574D01*
X122742772Y-107362045D01*
X122742766Y-107362042D01*
X122722046Y-107352380D01*
X122669608Y-107306206D01*
X122650458Y-107239012D01*
X122670675Y-107172131D01*
X122722047Y-107127619D01*
X122742772Y-107117955D01*
X122932043Y-106985426D01*
X123095426Y-106822043D01*
X123227955Y-106632772D01*
X123325604Y-106423363D01*
X123385406Y-106200178D01*
X123405544Y-105970000D01*
X123385406Y-105739822D01*
X123325604Y-105516637D01*
X123227955Y-105307228D01*
X123095426Y-105117957D01*
X122932043Y-104954574D01*
X122742772Y-104822045D01*
X122722048Y-104812381D01*
X122669610Y-104766210D01*
X122650458Y-104699016D01*
X122670674Y-104632135D01*
X122722048Y-104587618D01*
X122742772Y-104577955D01*
X122932043Y-104445426D01*
X123095426Y-104282043D01*
X123227955Y-104092772D01*
X123325604Y-103883363D01*
X123385406Y-103660178D01*
X123405544Y-103430000D01*
X123385406Y-103199822D01*
X123325604Y-102976637D01*
X123227955Y-102767228D01*
X123095426Y-102577957D01*
X122932043Y-102414574D01*
X122742772Y-102282045D01*
X122722050Y-102272382D01*
X122722046Y-102272380D01*
X122669608Y-102226206D01*
X122650458Y-102159012D01*
X122670675Y-102092131D01*
X122722047Y-102047619D01*
X122742772Y-102037955D01*
X122932043Y-101905426D01*
X123095426Y-101742043D01*
X123227955Y-101552772D01*
X123325604Y-101343363D01*
X123385406Y-101120178D01*
X123405544Y-100890000D01*
X123385406Y-100659822D01*
X123325604Y-100436637D01*
X123227955Y-100227228D01*
X123095426Y-100037957D01*
X122932043Y-99874574D01*
X122742772Y-99742045D01*
X122722048Y-99732381D01*
X122669610Y-99686210D01*
X122650458Y-99619016D01*
X122670674Y-99552135D01*
X122722048Y-99507618D01*
X122742772Y-99497955D01*
X122932043Y-99365426D01*
X123095426Y-99202043D01*
X123227955Y-99012772D01*
X123325604Y-98803363D01*
X123385406Y-98580178D01*
X123405544Y-98350000D01*
X123385406Y-98119822D01*
X123325604Y-97896637D01*
X123311693Y-97866804D01*
X123301201Y-97797727D01*
X123329721Y-97733943D01*
X123388198Y-97695704D01*
X123424075Y-97690400D01*
X130205237Y-97690400D01*
X130212724Y-97690626D01*
X130269578Y-97694065D01*
X130325610Y-97683795D01*
X130332992Y-97682672D01*
X130389534Y-97675808D01*
X130398010Y-97672593D01*
X130419630Y-97666565D01*
X130428542Y-97664933D01*
X130480487Y-97641553D01*
X130487365Y-97638704D01*
X130540645Y-97618499D01*
X130548104Y-97613349D01*
X130567649Y-97602325D01*
X130575917Y-97598605D01*
X130620756Y-97563475D01*
X130626764Y-97559054D01*
X130673649Y-97526693D01*
X130711418Y-97484059D01*
X130716535Y-97478623D01*
X139120680Y-89074477D01*
X139182001Y-89040994D01*
X139251691Y-89045977D01*
X139451901Y-89120652D01*
X139723133Y-89179655D01*
X140000000Y-89199457D01*
X140276867Y-89179655D01*
X140548099Y-89120652D01*
X140808172Y-89023650D01*
X141051793Y-88890623D01*
X141274003Y-88724278D01*
X141470278Y-88528003D01*
X141636623Y-88305793D01*
X141769650Y-88062172D01*
X141866652Y-87802099D01*
X141925655Y-87530867D01*
X141945457Y-87254000D01*
X141925655Y-86977133D01*
X141866652Y-86705901D01*
X141769650Y-86445828D01*
X141769650Y-86445827D01*
X141636624Y-86202209D01*
X141636623Y-86202207D01*
X141470278Y-85979997D01*
X141274003Y-85783722D01*
X141051793Y-85617377D01*
X141051791Y-85617376D01*
X141051790Y-85617375D01*
X140808172Y-85484349D01*
X140548097Y-85387347D01*
X140276867Y-85328345D01*
X140000000Y-85308542D01*
X139723132Y-85328345D01*
X139451902Y-85387347D01*
X139191827Y-85484349D01*
X138948209Y-85617375D01*
X138725994Y-85783724D01*
X138529724Y-85979994D01*
X138363375Y-86202209D01*
X138230349Y-86445827D01*
X138133347Y-86705902D01*
X138074345Y-86977132D01*
X138054542Y-87254000D01*
X138074345Y-87530867D01*
X138133347Y-87802097D01*
X138208020Y-88002306D01*
X138213004Y-88071998D01*
X138179519Y-88133320D01*
X129989759Y-96323081D01*
X129928436Y-96356566D01*
X129902078Y-96359400D01*
X128658131Y-96359400D01*
X128591092Y-96339715D01*
X128545337Y-96286911D01*
X128535393Y-96217753D01*
X128550743Y-96173401D01*
X128555140Y-96165785D01*
X128556723Y-96163043D01*
X128617816Y-95975018D01*
X128638481Y-95778400D01*
X128617816Y-95581782D01*
X128569801Y-95434007D01*
X128556723Y-95393756D01*
X128457872Y-95222543D01*
X128456001Y-95220465D01*
X128325584Y-95075622D01*
X128165641Y-94959416D01*
X128165640Y-94959415D01*
X127985029Y-94879002D01*
X127791653Y-94837900D01*
X127791651Y-94837900D01*
X127744821Y-94837900D01*
X127677782Y-94818215D01*
X127657140Y-94801581D01*
X127054451Y-94198891D01*
X127049317Y-94193438D01*
X127021595Y-94162147D01*
X127011549Y-94150807D01*
X126964670Y-94118449D01*
X126958653Y-94114020D01*
X126913818Y-94078895D01*
X126905548Y-94075173D01*
X126886007Y-94064151D01*
X126878545Y-94059000D01*
X126825290Y-94038804D01*
X126818370Y-94035938D01*
X126766440Y-94012566D01*
X126757528Y-94010933D01*
X126735916Y-94004908D01*
X126727436Y-94001692D01*
X126670891Y-93994826D01*
X126663493Y-93993699D01*
X126607478Y-93983435D01*
X126550624Y-93986874D01*
X126543137Y-93987100D01*
X122226122Y-93987100D01*
X122159083Y-93967415D01*
X122113328Y-93914611D01*
X122103384Y-93845453D01*
X122132409Y-93781897D01*
X122138441Y-93775419D01*
X127958040Y-87955819D01*
X128019363Y-87922334D01*
X128045721Y-87919500D01*
X128091041Y-87919500D01*
X128158080Y-87939185D01*
X128203835Y-87991989D01*
X128207222Y-88000165D01*
X128230349Y-88062170D01*
X128363375Y-88305791D01*
X128446549Y-88416898D01*
X128529722Y-88528003D01*
X128725997Y-88724278D01*
X128948207Y-88890623D01*
X128948209Y-88890624D01*
X129191827Y-89023650D01*
X129321864Y-89072150D01*
X129451901Y-89120652D01*
X129723133Y-89179655D01*
X130000000Y-89199457D01*
X130276867Y-89179655D01*
X130548099Y-89120652D01*
X130808172Y-89023650D01*
X131051793Y-88890623D01*
X131274003Y-88724278D01*
X131470278Y-88528003D01*
X131636623Y-88305793D01*
X131769650Y-88062172D01*
X131866652Y-87802099D01*
X131925655Y-87530867D01*
X131945457Y-87254000D01*
X131925655Y-86977133D01*
X131866652Y-86705901D01*
X131769650Y-86445828D01*
X131769650Y-86445827D01*
X131636624Y-86202209D01*
X131636623Y-86202207D01*
X131470278Y-85979997D01*
X131274003Y-85783722D01*
X131051793Y-85617377D01*
X131051791Y-85617376D01*
X131051790Y-85617375D01*
X130808172Y-85484349D01*
X130548097Y-85387347D01*
X130276867Y-85328345D01*
X130000000Y-85308542D01*
X129723131Y-85328345D01*
X129530019Y-85370354D01*
X129460327Y-85365370D01*
X129404394Y-85323498D01*
X129379977Y-85258034D01*
X129394829Y-85189761D01*
X129415976Y-85161511D01*
X131519488Y-83057999D01*
X133066465Y-83057999D01*
X133086554Y-83261970D01*
X133086554Y-83261972D01*
X133086555Y-83261974D01*
X133146052Y-83458109D01*
X133242669Y-83638868D01*
X133372695Y-83797305D01*
X133531132Y-83927331D01*
X133711891Y-84023948D01*
X133908026Y-84083445D01*
X134060880Y-84098500D01*
X148405785Y-84098500D01*
X148417938Y-84099096D01*
X148463000Y-84103535D01*
X148666974Y-84083446D01*
X148863109Y-84023948D01*
X149043868Y-83927331D01*
X149105216Y-83876984D01*
X149202305Y-83797305D01*
X149231043Y-83762286D01*
X149239195Y-83753292D01*
X156611825Y-76380662D01*
X156673146Y-76347179D01*
X156688692Y-76344817D01*
X156691041Y-76344612D01*
X156911183Y-76285625D01*
X157117738Y-76189307D01*
X157304429Y-76058584D01*
X157465584Y-75897429D01*
X157596307Y-75710738D01*
X157692625Y-75504183D01*
X157751612Y-75284041D01*
X157771475Y-75057000D01*
X157751612Y-74829959D01*
X157692625Y-74609817D01*
X157596307Y-74403263D01*
X157465584Y-74216571D01*
X157304429Y-74055416D01*
X157117738Y-73924693D01*
X156993110Y-73866578D01*
X156911184Y-73828375D01*
X156691038Y-73769387D01*
X156463999Y-73749524D01*
X156236961Y-73769387D01*
X156016815Y-73828375D01*
X155810265Y-73924692D01*
X155810263Y-73924693D01*
X155679289Y-74016402D01*
X155623567Y-74055419D01*
X155462419Y-74216567D01*
X155462416Y-74216570D01*
X155462416Y-74216571D01*
X155363803Y-74357406D01*
X155331692Y-74403265D01*
X155235375Y-74609816D01*
X155176388Y-74829959D01*
X155176183Y-74832306D01*
X155174839Y-74835739D01*
X155173581Y-74840437D01*
X155173056Y-74840296D01*
X155150727Y-74897373D01*
X155140336Y-74909173D01*
X148068330Y-81981181D01*
X148007007Y-82014666D01*
X147980649Y-82017500D01*
X134060880Y-82017500D01*
X134057862Y-82017797D01*
X134057846Y-82017798D01*
X133908029Y-82032554D01*
X133908025Y-82032555D01*
X133908026Y-82032555D01*
X133711891Y-82092052D01*
X133711887Y-82092053D01*
X133711887Y-82092054D01*
X133531132Y-82188668D01*
X133372695Y-82318695D01*
X133242668Y-82477132D01*
X133151914Y-82646923D01*
X133146052Y-82657891D01*
X133092660Y-82833899D01*
X133086554Y-82854029D01*
X133066465Y-83057999D01*
X131519488Y-83057999D01*
X138443669Y-76133819D01*
X138504993Y-76100334D01*
X138531351Y-76097500D01*
X147004051Y-76097500D01*
X147071090Y-76117185D01*
X147075174Y-76119925D01*
X147174260Y-76189306D01*
X147174261Y-76189306D01*
X147174262Y-76189307D01*
X147380817Y-76285625D01*
X147600959Y-76344612D01*
X147828000Y-76364475D01*
X148055041Y-76344612D01*
X148275183Y-76285625D01*
X148481738Y-76189307D01*
X148668429Y-76058584D01*
X148829584Y-75897429D01*
X148960307Y-75710738D01*
X149056625Y-75504183D01*
X149115612Y-75284041D01*
X149135475Y-75057000D01*
X149135475Y-75056999D01*
X150879178Y-75056999D01*
X150898424Y-75276978D01*
X150955579Y-75490281D01*
X151048898Y-75690406D01*
X151094258Y-75755187D01*
X151761096Y-75088349D01*
X151761051Y-75088898D01*
X151792266Y-75212162D01*
X151861813Y-75318612D01*
X151962157Y-75396713D01*
X152082422Y-75438000D01*
X152118553Y-75438000D01*
X151447812Y-76108740D01*
X151512593Y-76154101D01*
X151712718Y-76247420D01*
X151926021Y-76304575D01*
X152145999Y-76323821D01*
X152365978Y-76304575D01*
X152579281Y-76247420D01*
X152779408Y-76154100D01*
X152844187Y-76108740D01*
X152173448Y-75438000D01*
X152177569Y-75438000D01*
X152271421Y-75422339D01*
X152383251Y-75361820D01*
X152469371Y-75268269D01*
X152520448Y-75151823D01*
X152526105Y-75083552D01*
X153197740Y-75755186D01*
X153243100Y-75690408D01*
X153336420Y-75490281D01*
X153393575Y-75276978D01*
X153412821Y-75056999D01*
X153393575Y-74837021D01*
X153336421Y-74623720D01*
X153243098Y-74423589D01*
X153197740Y-74358811D01*
X152530903Y-75025648D01*
X152530949Y-75025102D01*
X152499734Y-74901838D01*
X152430187Y-74795388D01*
X152329843Y-74717287D01*
X152209578Y-74676000D01*
X152173447Y-74676000D01*
X152844187Y-74005258D01*
X152779406Y-73959898D01*
X152579281Y-73866579D01*
X152365978Y-73809424D01*
X152145999Y-73790178D01*
X151926021Y-73809424D01*
X151712719Y-73866578D01*
X151512589Y-73959900D01*
X151447812Y-74005258D01*
X151447811Y-74005258D01*
X152118554Y-74676000D01*
X152114431Y-74676000D01*
X152020579Y-74691661D01*
X151908749Y-74752180D01*
X151822629Y-74845731D01*
X151771552Y-74962177D01*
X151765894Y-75030447D01*
X151094258Y-74358811D01*
X151094258Y-74358812D01*
X151048900Y-74423589D01*
X150955578Y-74623719D01*
X150898424Y-74837021D01*
X150879178Y-75056999D01*
X149135475Y-75056999D01*
X149115612Y-74829959D01*
X149056625Y-74609817D01*
X148960307Y-74403263D01*
X148829584Y-74216571D01*
X148668429Y-74055416D01*
X148481738Y-73924693D01*
X148357110Y-73866578D01*
X148275184Y-73828375D01*
X148055038Y-73769387D01*
X147827999Y-73749524D01*
X147600961Y-73769387D01*
X147380815Y-73828375D01*
X147174262Y-73924693D01*
X147075175Y-73994075D01*
X147008969Y-74016402D01*
X147004052Y-74016500D01*
X138106215Y-74016500D01*
X138094061Y-74015903D01*
X138049000Y-74011465D01*
X138048999Y-74011465D01*
X137845024Y-74031554D01*
X137694541Y-74077204D01*
X137648891Y-74091051D01*
X137468132Y-74187668D01*
X137309696Y-74317693D01*
X137280967Y-74352699D01*
X137272796Y-74361713D01*
X130509489Y-81125020D01*
X130448166Y-81158505D01*
X130378474Y-81153521D01*
X130322541Y-81111649D01*
X130298124Y-81046185D01*
X130300642Y-81010981D01*
X130347655Y-80794867D01*
X130367457Y-80518000D01*
X130347655Y-80241133D01*
X130288652Y-79969901D01*
X130234856Y-79825667D01*
X130191650Y-79709827D01*
X130058624Y-79466209D01*
X129973637Y-79352680D01*
X129892278Y-79243997D01*
X129696003Y-79047722D01*
X129473793Y-78881377D01*
X129473791Y-78881376D01*
X129473790Y-78881375D01*
X129230172Y-78748349D01*
X128970097Y-78651347D01*
X128698867Y-78592345D01*
X128421999Y-78572542D01*
X128145132Y-78592345D01*
X127873902Y-78651347D01*
X127613827Y-78748349D01*
X127370209Y-78881375D01*
X127147994Y-79047724D01*
X126951724Y-79243994D01*
X126785375Y-79466209D01*
X126652349Y-79709827D01*
X126555347Y-79969902D01*
X126496345Y-80241132D01*
X126476542Y-80518000D01*
X126496345Y-80794867D01*
X126555347Y-81066097D01*
X126652349Y-81326172D01*
X126767794Y-81537593D01*
X126785377Y-81569793D01*
X126951722Y-81792003D01*
X127147997Y-81988278D01*
X127166409Y-82002061D01*
X127208279Y-82057995D01*
X127213263Y-82127686D01*
X127179777Y-82189009D01*
X127170762Y-82197180D01*
X127064753Y-82284179D01*
X127064748Y-82284183D01*
X127062403Y-82286108D01*
X127060271Y-82288239D01*
X127060250Y-82288259D01*
X126097330Y-83251181D01*
X126036007Y-83284666D01*
X126009649Y-83287500D01*
X118593021Y-83287500D01*
X118525982Y-83267815D01*
X118480227Y-83215011D01*
X118470283Y-83145853D01*
X118499308Y-83082297D01*
X118505340Y-83075819D01*
X124933340Y-76647819D01*
X124994663Y-76614334D01*
X125021021Y-76611500D01*
X126425041Y-76611500D01*
X126492080Y-76631185D01*
X126537835Y-76683989D01*
X126541222Y-76692165D01*
X126564349Y-76754170D01*
X126697375Y-76997791D01*
X126765867Y-77089285D01*
X126863722Y-77220003D01*
X127059997Y-77416278D01*
X127282207Y-77582623D01*
X127282209Y-77582624D01*
X127525827Y-77715650D01*
X127655864Y-77764150D01*
X127785901Y-77812652D01*
X128057133Y-77871655D01*
X128334000Y-77891457D01*
X128610867Y-77871655D01*
X128882099Y-77812652D01*
X129142172Y-77715650D01*
X129385793Y-77582623D01*
X129608003Y-77416278D01*
X129804278Y-77220003D01*
X129970623Y-76997793D01*
X130103650Y-76754172D01*
X130200652Y-76494099D01*
X130259655Y-76222867D01*
X130279457Y-75946000D01*
X130259655Y-75669133D01*
X130200652Y-75397901D01*
X130131375Y-75212162D01*
X130103650Y-75137827D01*
X129972352Y-74897373D01*
X129970623Y-74894207D01*
X129804278Y-74671997D01*
X129608003Y-74475722D01*
X129385793Y-74309377D01*
X129385791Y-74309376D01*
X129385790Y-74309375D01*
X129142172Y-74176349D01*
X128882097Y-74079347D01*
X128610867Y-74020345D01*
X128334000Y-74000542D01*
X128057132Y-74020345D01*
X127785902Y-74079347D01*
X127525827Y-74176349D01*
X127282209Y-74309375D01*
X127059994Y-74475724D01*
X126863724Y-74671994D01*
X126697375Y-74894208D01*
X126564349Y-75137829D01*
X126541222Y-75199835D01*
X126499350Y-75255768D01*
X126433886Y-75280184D01*
X126425041Y-75280500D01*
X124717863Y-75280500D01*
X124710376Y-75280274D01*
X124653520Y-75276834D01*
X124597511Y-75287098D01*
X124590111Y-75288225D01*
X124533562Y-75295092D01*
X124525083Y-75298308D01*
X124503478Y-75304331D01*
X124494559Y-75305966D01*
X124442629Y-75329336D01*
X124435716Y-75332199D01*
X124382454Y-75352400D01*
X124374986Y-75357555D01*
X124355454Y-75368571D01*
X124347182Y-75372294D01*
X124302348Y-75407418D01*
X124296321Y-75411853D01*
X124249451Y-75444206D01*
X124211674Y-75486846D01*
X124206542Y-75492297D01*
X106727181Y-92971658D01*
X106665858Y-93005143D01*
X106596166Y-93000159D01*
X106540233Y-92958287D01*
X106515816Y-92892823D01*
X106515500Y-92883977D01*
X106515500Y-92086380D01*
X106515500Y-92082680D01*
X106505070Y-91995826D01*
X106450562Y-91857605D01*
X106450562Y-91857604D01*
X106360785Y-91739214D01*
X106242395Y-91649437D01*
X106104176Y-91594930D01*
X106049136Y-91588320D01*
X106017320Y-91584500D01*
X104802680Y-91584500D01*
X104799015Y-91584940D01*
X104799016Y-91584940D01*
X104715825Y-91594930D01*
X104656990Y-91618132D01*
X104587403Y-91624413D01*
X104525467Y-91592076D01*
X104490846Y-91531387D01*
X104487500Y-91502777D01*
X104487500Y-82426958D01*
X104507185Y-82359919D01*
X104559989Y-82314164D01*
X104568168Y-82310776D01*
X104580950Y-82306008D01*
X104630172Y-82287650D01*
X104873793Y-82154623D01*
X105096003Y-81988278D01*
X105292278Y-81792003D01*
X105458623Y-81569793D01*
X105591650Y-81326172D01*
X105688652Y-81066099D01*
X105747655Y-80794867D01*
X105767457Y-80518000D01*
X105747655Y-80241133D01*
X105688652Y-79969901D01*
X105634856Y-79825667D01*
X105591650Y-79709827D01*
X105458624Y-79466209D01*
X105373637Y-79352680D01*
X105292278Y-79243997D01*
X105096003Y-79047722D01*
X104873793Y-78881377D01*
X104873791Y-78881376D01*
X104873790Y-78881375D01*
X104630172Y-78748349D01*
X104370097Y-78651347D01*
X104098867Y-78592345D01*
X103822000Y-78572542D01*
X103545132Y-78592345D01*
X103273902Y-78651347D01*
X103013827Y-78748349D01*
X102770209Y-78881375D01*
X102547994Y-79047724D01*
X102351724Y-79243994D01*
X102185375Y-79466209D01*
X102052349Y-79709827D01*
X101955347Y-79969902D01*
X101896345Y-80241132D01*
X101876542Y-80518000D01*
X101896345Y-80794867D01*
X101955347Y-81066097D01*
X102052349Y-81326172D01*
X102167794Y-81537593D01*
X102185377Y-81569793D01*
X102351722Y-81792003D01*
X102547997Y-81988278D01*
X102770207Y-82154623D01*
X103007471Y-82284179D01*
X103013828Y-82287650D01*
X103075832Y-82310776D01*
X103131766Y-82352646D01*
X103156184Y-82418110D01*
X103156500Y-82426958D01*
X103156500Y-99979337D01*
X103156274Y-99986824D01*
X103152835Y-100043678D01*
X103163099Y-100099687D01*
X103164226Y-100107091D01*
X103171092Y-100163636D01*
X103174308Y-100172116D01*
X103180333Y-100193728D01*
X103181966Y-100202640D01*
X103205338Y-100254570D01*
X103208204Y-100261490D01*
X103228400Y-100314745D01*
X103233551Y-100322207D01*
X103244573Y-100341748D01*
X103248295Y-100350018D01*
X103283420Y-100394853D01*
X103287849Y-100400870D01*
X103320207Y-100447749D01*
X103360687Y-100483611D01*
X103362838Y-100485517D01*
X103368291Y-100490651D01*
X104552940Y-101675299D01*
X104558074Y-101680752D01*
X104595852Y-101723394D01*
X104642715Y-101755741D01*
X104648745Y-101760177D01*
X104693583Y-101795306D01*
X104701845Y-101799024D01*
X104721397Y-101810051D01*
X104728855Y-101815199D01*
X104782108Y-101835395D01*
X104789017Y-101838257D01*
X104840958Y-101861634D01*
X104849869Y-101863266D01*
X104871489Y-101869293D01*
X104879966Y-101872508D01*
X104936492Y-101879370D01*
X104943889Y-101880495D01*
X104999923Y-101890765D01*
X105056782Y-101887325D01*
X105064268Y-101887100D01*
X108104637Y-101887100D01*
X108112124Y-101887326D01*
X108168978Y-101890765D01*
X108225010Y-101880495D01*
X108232392Y-101879372D01*
X108288934Y-101872508D01*
X108297410Y-101869293D01*
X108319030Y-101863265D01*
X108327942Y-101861633D01*
X108379887Y-101838253D01*
X108386765Y-101835404D01*
X108440045Y-101815199D01*
X108447504Y-101810049D01*
X108467049Y-101799025D01*
X108475317Y-101795305D01*
X108520156Y-101760175D01*
X108526164Y-101755754D01*
X108573049Y-101723393D01*
X108610825Y-101680752D01*
X108615935Y-101675323D01*
X110306939Y-99984319D01*
X110368263Y-99950834D01*
X110394621Y-99948000D01*
X112139419Y-99948000D01*
X112206458Y-99967685D01*
X112252213Y-100020489D01*
X112262157Y-100089647D01*
X112258685Y-100105935D01*
X112258667Y-100105995D01*
X112239764Y-100310000D01*
X112258667Y-100514007D01*
X112314735Y-100711064D01*
X112406055Y-100894461D01*
X112424491Y-100918873D01*
X112449183Y-100984234D01*
X112434618Y-101052569D01*
X112385421Y-101102181D01*
X112325537Y-101117600D01*
X110248468Y-101117600D01*
X110240982Y-101117374D01*
X110184122Y-101113934D01*
X110128105Y-101124200D01*
X110120702Y-101125327D01*
X110064163Y-101132192D01*
X110055692Y-101135405D01*
X110034080Y-101141430D01*
X110025159Y-101143065D01*
X109973221Y-101166439D01*
X109966308Y-101169303D01*
X109913054Y-101189501D01*
X109905592Y-101194652D01*
X109886052Y-101205672D01*
X109877784Y-101209393D01*
X109832951Y-101244517D01*
X109826921Y-101248954D01*
X109780050Y-101281307D01*
X109742274Y-101323946D01*
X109737142Y-101329397D01*
X104064389Y-107002149D01*
X104058938Y-107007281D01*
X104016304Y-107045052D01*
X103983960Y-107091910D01*
X103979526Y-107097937D01*
X103944393Y-107142784D01*
X103940673Y-107151050D01*
X103929657Y-107170584D01*
X103924500Y-107178055D01*
X103904298Y-107231322D01*
X103901433Y-107238237D01*
X103878067Y-107290154D01*
X103876432Y-107299078D01*
X103870408Y-107320686D01*
X103867192Y-107329166D01*
X103860326Y-107385707D01*
X103859199Y-107393110D01*
X103848935Y-107449121D01*
X103852374Y-107505974D01*
X103852600Y-107513461D01*
X103852600Y-112354237D01*
X103852374Y-112361724D01*
X103852144Y-112365520D01*
X103848935Y-112418578D01*
X103857954Y-112467796D01*
X103859199Y-112474587D01*
X103860326Y-112481991D01*
X103867192Y-112538536D01*
X103870408Y-112547016D01*
X103876433Y-112568628D01*
X103878066Y-112577540D01*
X103901438Y-112629470D01*
X103904304Y-112636390D01*
X103924500Y-112689645D01*
X103929651Y-112697107D01*
X103940673Y-112716648D01*
X103944395Y-112724918D01*
X103979520Y-112769753D01*
X103983949Y-112775770D01*
X104016307Y-112822649D01*
X104058938Y-112860417D01*
X104064391Y-112865551D01*
X104272941Y-113074101D01*
X104306426Y-113135424D01*
X104308731Y-113173222D01*
X104299764Y-113269999D01*
X104318667Y-113474007D01*
X104374735Y-113671064D01*
X104466055Y-113854461D01*
X104589526Y-114017962D01*
X104740930Y-114155985D01*
X104740932Y-114155986D01*
X104740933Y-114155987D01*
X104915125Y-114263843D01*
X105106169Y-114337853D01*
X105307560Y-114375500D01*
X105307562Y-114375500D01*
X105512438Y-114375500D01*
X105512440Y-114375500D01*
X105713831Y-114337853D01*
X105904875Y-114263843D01*
X106079067Y-114155987D01*
X106230474Y-114017961D01*
X106353942Y-113854464D01*
X106353942Y-113854462D01*
X106353944Y-113854461D01*
X106445264Y-113671064D01*
X106501332Y-113474007D01*
X106506793Y-113415067D01*
X106520236Y-113270000D01*
X106501332Y-113065995D01*
X106501332Y-113065992D01*
X106445264Y-112868935D01*
X106353944Y-112685538D01*
X106230473Y-112522037D01*
X106079069Y-112384014D01*
X105938006Y-112296671D01*
X105904875Y-112276157D01*
X105904873Y-112276156D01*
X105713831Y-112202147D01*
X105691401Y-112197954D01*
X105512440Y-112164500D01*
X105307600Y-112164500D01*
X105240561Y-112144815D01*
X105194806Y-112092011D01*
X105183600Y-112040500D01*
X105183600Y-111959500D01*
X105203285Y-111892461D01*
X105256089Y-111846706D01*
X105307600Y-111835500D01*
X105512438Y-111835500D01*
X105512440Y-111835500D01*
X105713831Y-111797853D01*
X105904875Y-111723843D01*
X106079067Y-111615987D01*
X106230474Y-111477961D01*
X106353942Y-111314464D01*
X106373677Y-111274829D01*
X106421180Y-111223592D01*
X106488842Y-111206170D01*
X106555183Y-111228095D01*
X106572359Y-111242419D01*
X113021840Y-117691899D01*
X113026974Y-117697352D01*
X113064752Y-117739994D01*
X113111628Y-117772351D01*
X113117659Y-117776789D01*
X113162481Y-117811904D01*
X113170744Y-117815623D01*
X113190297Y-117826651D01*
X113197755Y-117831799D01*
X113251030Y-117852003D01*
X113257908Y-117854852D01*
X113309858Y-117878234D01*
X113316539Y-117879458D01*
X113318774Y-117879868D01*
X113340385Y-117885891D01*
X113348866Y-117889108D01*
X113405395Y-117895971D01*
X113412787Y-117897095D01*
X113468822Y-117907365D01*
X113525681Y-117903925D01*
X113533167Y-117903700D01*
X120785680Y-117903700D01*
X120852719Y-117923385D01*
X120898474Y-117976189D01*
X120908418Y-118045347D01*
X120898062Y-118080105D01*
X120834396Y-118216635D01*
X120774593Y-118439824D01*
X120754455Y-118670000D01*
X120774593Y-118900175D01*
X120820540Y-119071654D01*
X120834396Y-119123363D01*
X120932045Y-119332772D01*
X121064574Y-119522043D01*
X121227957Y-119685426D01*
X121417228Y-119817955D01*
X121437950Y-119827617D01*
X121490388Y-119873788D01*
X121509541Y-119940981D01*
X121489326Y-120007862D01*
X121437954Y-120052379D01*
X121417232Y-120062042D01*
X121417227Y-120062045D01*
X121417228Y-120062045D01*
X121296730Y-120146419D01*
X121227953Y-120194577D01*
X121064577Y-120357953D01*
X121064574Y-120357956D01*
X121064574Y-120357957D01*
X120934934Y-120543103D01*
X120932044Y-120547230D01*
X120834396Y-120756635D01*
X120774593Y-120979824D01*
X120754455Y-121209999D01*
X120774593Y-121440175D01*
X120774594Y-121440178D01*
X120834396Y-121663363D01*
X120932045Y-121872772D01*
X121064574Y-122062043D01*
X121227957Y-122225426D01*
X121417228Y-122357955D01*
X121437951Y-122367618D01*
X121490390Y-122413791D01*
X121509541Y-122480985D01*
X121489325Y-122547866D01*
X121437951Y-122592381D01*
X121417230Y-122602044D01*
X121417228Y-122602045D01*
X121227953Y-122734577D01*
X121064577Y-122897953D01*
X120932044Y-123087230D01*
X120834396Y-123296635D01*
X120774593Y-123519824D01*
X120754455Y-123750000D01*
X120774593Y-123980175D01*
X120834396Y-124203364D01*
X120862399Y-124263416D01*
X120932045Y-124412772D01*
X121064574Y-124602043D01*
X121227957Y-124765426D01*
X121417228Y-124897955D01*
X121437951Y-124907618D01*
X121490390Y-124953791D01*
X121509541Y-125020985D01*
X121489325Y-125087866D01*
X121437951Y-125132381D01*
X121417228Y-125142045D01*
X121293541Y-125228652D01*
X121227953Y-125274577D01*
X121064577Y-125437953D01*
X120932044Y-125627230D01*
X120834396Y-125836635D01*
X120774593Y-126059824D01*
X120754455Y-126289999D01*
X120774593Y-126520175D01*
X120774594Y-126520178D01*
X120834396Y-126743363D01*
X120932045Y-126952772D01*
X121064574Y-127142043D01*
X121227957Y-127305426D01*
X121417228Y-127437955D01*
X121437950Y-127447617D01*
X121490388Y-127493788D01*
X121509541Y-127560981D01*
X121489326Y-127627862D01*
X121437954Y-127672379D01*
X121417232Y-127682042D01*
X121227953Y-127814577D01*
X121064577Y-127977953D01*
X120932044Y-128167230D01*
X120834396Y-128376635D01*
X120774593Y-128599824D01*
X120754455Y-128830000D01*
X120774593Y-129060175D01*
X120834396Y-129283364D01*
X120858673Y-129335425D01*
X120932045Y-129492772D01*
X121064574Y-129682043D01*
X121227957Y-129845426D01*
X121417228Y-129977955D01*
X121437951Y-129987618D01*
X121490390Y-130033791D01*
X121509541Y-130100985D01*
X121489325Y-130167866D01*
X121437951Y-130212381D01*
X121417230Y-130222044D01*
X121417228Y-130222045D01*
X121227953Y-130354577D01*
X121064577Y-130517953D01*
X120932044Y-130707230D01*
X120834396Y-130916635D01*
X120774593Y-131139824D01*
X120754455Y-131369999D01*
X120774593Y-131600175D01*
X120774594Y-131600178D01*
X120834396Y-131823363D01*
X120932045Y-132032772D01*
X121064574Y-132222043D01*
X121227957Y-132385426D01*
X121417228Y-132517955D01*
X121437951Y-132527618D01*
X121490390Y-132573791D01*
X121509541Y-132640985D01*
X121489325Y-132707866D01*
X121437951Y-132752381D01*
X121417230Y-132762044D01*
X121417228Y-132762045D01*
X121227953Y-132894577D01*
X121064577Y-133057953D01*
X120932044Y-133247230D01*
X120834396Y-133456635D01*
X120774593Y-133679824D01*
X120754455Y-133909999D01*
X120774593Y-134140175D01*
X120774594Y-134140178D01*
X120834396Y-134363363D01*
X120932045Y-134572772D01*
X121064574Y-134762043D01*
X121227957Y-134925426D01*
X121417228Y-135057955D01*
X121437951Y-135067618D01*
X121490390Y-135113791D01*
X121509541Y-135180985D01*
X121489325Y-135247866D01*
X121437951Y-135292381D01*
X121417230Y-135302044D01*
X121417228Y-135302045D01*
X121227953Y-135434577D01*
X121064577Y-135597953D01*
X120932044Y-135787230D01*
X120834396Y-135996635D01*
X120774593Y-136219824D01*
X120754455Y-136450000D01*
X120774593Y-136680175D01*
X120814626Y-136829582D01*
X120834396Y-136903363D01*
X120932045Y-137112772D01*
X121064574Y-137302043D01*
X121227957Y-137465426D01*
X121417228Y-137597955D01*
X121437951Y-137607618D01*
X121490390Y-137653791D01*
X121509541Y-137720985D01*
X121489325Y-137787866D01*
X121437951Y-137832381D01*
X121417230Y-137842044D01*
X121417228Y-137842045D01*
X121227953Y-137974577D01*
X121064577Y-138137953D01*
X120932044Y-138327230D01*
X120834396Y-138536635D01*
X120774593Y-138759824D01*
X120754455Y-138989999D01*
X120774593Y-139220175D01*
X120834396Y-139443364D01*
X120880664Y-139542585D01*
X120932045Y-139652772D01*
X121064574Y-139842043D01*
X121227957Y-140005426D01*
X121417228Y-140137955D01*
X121437951Y-140147618D01*
X121490390Y-140193791D01*
X121509541Y-140260985D01*
X121489325Y-140327866D01*
X121437951Y-140372381D01*
X121417230Y-140382044D01*
X121417228Y-140382045D01*
X121227953Y-140514577D01*
X121064577Y-140677953D01*
X121064574Y-140677956D01*
X121064574Y-140677957D01*
X120932430Y-140866679D01*
X120932044Y-140867230D01*
X120834396Y-141076635D01*
X120774593Y-141299824D01*
X120754455Y-141530000D01*
X120774593Y-141760175D01*
X120774594Y-141760178D01*
X120834396Y-141983363D01*
X120932045Y-142192772D01*
X121064574Y-142382043D01*
X121227957Y-142545426D01*
X121417228Y-142677955D01*
X121626637Y-142775604D01*
X121849822Y-142835406D01*
X122080000Y-142855544D01*
X122310178Y-142835406D01*
X122533363Y-142775604D01*
X122742772Y-142677955D01*
X122932043Y-142545426D01*
X123095426Y-142382043D01*
X123227955Y-142192772D01*
X123325604Y-141983363D01*
X123385406Y-141760178D01*
X123405544Y-141530000D01*
X123385406Y-141299822D01*
X123325604Y-141076637D01*
X123227955Y-140867228D01*
X123095426Y-140677957D01*
X122932043Y-140514574D01*
X122742772Y-140382045D01*
X122722050Y-140372382D01*
X122722046Y-140372380D01*
X122669608Y-140326206D01*
X122650458Y-140259012D01*
X122670675Y-140192131D01*
X122722047Y-140147619D01*
X122742772Y-140137955D01*
X122932043Y-140005426D01*
X123095426Y-139842043D01*
X123227955Y-139652772D01*
X123325604Y-139443363D01*
X123385406Y-139220178D01*
X123405544Y-138990000D01*
X123385406Y-138759822D01*
X123325604Y-138536637D01*
X123227955Y-138327228D01*
X123095426Y-138137957D01*
X122932043Y-137974574D01*
X122742772Y-137842045D01*
X122722048Y-137832381D01*
X122669610Y-137786210D01*
X122650458Y-137719016D01*
X122670674Y-137652135D01*
X122722048Y-137607618D01*
X122742772Y-137597955D01*
X122932043Y-137465426D01*
X123095426Y-137302043D01*
X123227955Y-137112772D01*
X123325604Y-136903363D01*
X123385406Y-136680178D01*
X123405544Y-136450000D01*
X123385406Y-136219822D01*
X123325604Y-135996637D01*
X123227955Y-135787228D01*
X123095426Y-135597957D01*
X122932043Y-135434574D01*
X122742772Y-135302045D01*
X122722048Y-135292381D01*
X122669610Y-135246210D01*
X122650458Y-135179016D01*
X122670674Y-135112135D01*
X122722048Y-135067618D01*
X122742772Y-135057955D01*
X122932043Y-134925426D01*
X123095426Y-134762043D01*
X123227955Y-134572772D01*
X123325604Y-134363363D01*
X123385406Y-134140178D01*
X123405544Y-133910000D01*
X123385406Y-133679822D01*
X123325604Y-133456637D01*
X123227955Y-133247228D01*
X123095426Y-133057957D01*
X122932043Y-132894574D01*
X122742772Y-132762045D01*
X122722050Y-132752382D01*
X122722046Y-132752380D01*
X122669608Y-132706206D01*
X122650458Y-132639012D01*
X122670675Y-132572131D01*
X122722047Y-132527619D01*
X122742772Y-132517955D01*
X122932043Y-132385426D01*
X123095426Y-132222043D01*
X123227955Y-132032772D01*
X123325604Y-131823363D01*
X123385406Y-131600178D01*
X123405544Y-131370000D01*
X123385406Y-131139822D01*
X123325604Y-130916637D01*
X123227955Y-130707228D01*
X123095426Y-130517957D01*
X122932043Y-130354574D01*
X122742772Y-130222045D01*
X122722050Y-130212382D01*
X122722046Y-130212380D01*
X122669608Y-130166206D01*
X122650458Y-130099012D01*
X122670675Y-130032131D01*
X122722047Y-129987619D01*
X122742772Y-129977955D01*
X122932043Y-129845426D01*
X123095426Y-129682043D01*
X123227955Y-129492772D01*
X123325604Y-129283363D01*
X123385406Y-129060178D01*
X123405544Y-128830000D01*
X123385406Y-128599822D01*
X123325604Y-128376637D01*
X123227955Y-128167228D01*
X123095426Y-127977957D01*
X122932043Y-127814574D01*
X122742772Y-127682045D01*
X122742766Y-127682042D01*
X122722046Y-127672380D01*
X122669608Y-127626206D01*
X122650458Y-127559012D01*
X122670675Y-127492131D01*
X122722047Y-127447619D01*
X122742772Y-127437955D01*
X122932043Y-127305426D01*
X123095426Y-127142043D01*
X123227955Y-126952772D01*
X123325604Y-126743363D01*
X123385406Y-126520178D01*
X123405544Y-126290000D01*
X123385406Y-126059822D01*
X123325604Y-125836637D01*
X123227955Y-125627228D01*
X123095426Y-125437957D01*
X122932043Y-125274574D01*
X122742772Y-125142045D01*
X122722048Y-125132381D01*
X122669610Y-125086210D01*
X122650458Y-125019016D01*
X122670674Y-124952135D01*
X122722048Y-124907618D01*
X122742772Y-124897955D01*
X122932043Y-124765426D01*
X123095426Y-124602043D01*
X123227955Y-124412772D01*
X123325604Y-124203363D01*
X123385406Y-123980178D01*
X123405544Y-123750000D01*
X123385406Y-123519822D01*
X123325604Y-123296637D01*
X123227955Y-123087228D01*
X123095426Y-122897957D01*
X122932043Y-122734574D01*
X122742772Y-122602045D01*
X122722050Y-122592382D01*
X122722046Y-122592380D01*
X122669608Y-122546206D01*
X122650458Y-122479012D01*
X122670675Y-122412131D01*
X122722047Y-122367619D01*
X122742772Y-122357955D01*
X122932043Y-122225426D01*
X123095426Y-122062043D01*
X123227955Y-121872772D01*
X123325604Y-121663363D01*
X123385406Y-121440178D01*
X123405544Y-121210000D01*
X123385406Y-120979822D01*
X123325604Y-120756637D01*
X123227955Y-120547228D01*
X123095426Y-120357957D01*
X122932043Y-120194574D01*
X122742772Y-120062045D01*
X122722048Y-120052381D01*
X122669610Y-120006210D01*
X122650458Y-119939016D01*
X122670674Y-119872135D01*
X122722048Y-119827618D01*
X122742772Y-119817955D01*
X122932043Y-119685426D01*
X123095426Y-119522043D01*
X123227955Y-119332772D01*
X123325604Y-119123363D01*
X123385406Y-118900178D01*
X123405544Y-118670000D01*
X123385406Y-118439822D01*
X123325604Y-118216637D01*
X123261937Y-118080104D01*
X123251446Y-118011027D01*
X123279966Y-117947243D01*
X123338442Y-117909004D01*
X123374320Y-117903700D01*
X128129217Y-117903700D01*
X128196256Y-117923385D01*
X128238049Y-117968273D01*
X128351389Y-118175839D01*
X128363377Y-118197793D01*
X128529722Y-118420003D01*
X128725997Y-118616278D01*
X128948207Y-118782623D01*
X128948209Y-118782624D01*
X129191827Y-118915650D01*
X129321864Y-118964150D01*
X129451901Y-119012652D01*
X129723133Y-119071655D01*
X129980196Y-119090040D01*
X129999999Y-119091457D01*
X129999999Y-119091456D01*
X130000000Y-119091457D01*
X130276867Y-119071655D01*
X130548099Y-119012652D01*
X130808172Y-118915650D01*
X131051793Y-118782623D01*
X131274003Y-118616278D01*
X131470278Y-118420003D01*
X131636623Y-118197793D01*
X131769650Y-117954172D01*
X131787109Y-117907364D01*
X131792778Y-117892165D01*
X131834650Y-117836232D01*
X131900114Y-117811816D01*
X131908959Y-117811500D01*
X138091041Y-117811500D01*
X138158080Y-117831185D01*
X138203835Y-117883989D01*
X138207222Y-117892165D01*
X138230349Y-117954170D01*
X138363375Y-118197791D01*
X138368126Y-118204137D01*
X138529722Y-118420003D01*
X138725997Y-118616278D01*
X138948207Y-118782623D01*
X138948209Y-118782624D01*
X139191827Y-118915650D01*
X139321864Y-118964150D01*
X139451901Y-119012652D01*
X139723133Y-119071655D01*
X140000000Y-119091457D01*
X140276867Y-119071655D01*
X140548099Y-119012652D01*
X140808172Y-118915650D01*
X141051793Y-118782623D01*
X141274003Y-118616278D01*
X141470278Y-118420003D01*
X141636623Y-118197793D01*
X141769650Y-117954172D01*
X141866652Y-117694099D01*
X141925655Y-117422867D01*
X141945457Y-117146000D01*
X141925655Y-116869133D01*
X141866652Y-116597901D01*
X141795827Y-116408011D01*
X141769650Y-116337827D01*
X141636624Y-116094209D01*
X141636623Y-116094207D01*
X141470278Y-115871997D01*
X141283462Y-115685181D01*
X141249977Y-115623858D01*
X141254961Y-115554166D01*
X141296833Y-115498233D01*
X141362297Y-115473816D01*
X141371143Y-115473500D01*
X148691156Y-115473500D01*
X148758195Y-115493185D01*
X148803950Y-115545989D01*
X148813894Y-115615147D01*
X148784869Y-115678703D01*
X148765466Y-115696767D01*
X148752586Y-115706408D01*
X148560410Y-115898584D01*
X148397534Y-116116160D01*
X148267287Y-116354692D01*
X148172305Y-116609345D01*
X148114535Y-116874910D01*
X148113027Y-116896000D01*
X149340671Y-116896000D01*
X149300000Y-117061005D01*
X149300000Y-117230995D01*
X149340671Y-117396000D01*
X148113027Y-117396000D01*
X148114535Y-117417089D01*
X148172305Y-117682654D01*
X148267287Y-117937307D01*
X148397534Y-118175839D01*
X148560410Y-118393415D01*
X148752584Y-118585589D01*
X148970160Y-118748465D01*
X149208692Y-118878712D01*
X149463345Y-118973694D01*
X149728910Y-119031464D01*
X149750000Y-119032972D01*
X149750000Y-117799837D01*
X149831249Y-117830651D01*
X149957660Y-117846000D01*
X150042340Y-117846000D01*
X150168751Y-117830651D01*
X150250000Y-117799837D01*
X150250000Y-119032971D01*
X150271089Y-119031464D01*
X150536654Y-118973694D01*
X150791307Y-118878712D01*
X151029839Y-118748465D01*
X151247415Y-118585589D01*
X151439589Y-118393415D01*
X151602465Y-118175839D01*
X151732712Y-117937307D01*
X151827694Y-117682654D01*
X151885464Y-117417089D01*
X151886973Y-117396000D01*
X150659329Y-117396000D01*
X150700000Y-117230995D01*
X150700000Y-117061005D01*
X150659329Y-116896000D01*
X151886972Y-116896000D01*
X151885464Y-116874910D01*
X151827694Y-116609345D01*
X151732712Y-116354692D01*
X151602465Y-116116160D01*
X151439589Y-115898584D01*
X151247415Y-115706410D01*
X151137634Y-115624229D01*
X151095763Y-115568295D01*
X151090779Y-115498604D01*
X151124264Y-115437281D01*
X151167972Y-115409021D01*
X151187545Y-115401599D01*
X151195004Y-115396449D01*
X151214549Y-115385425D01*
X151222817Y-115381705D01*
X151267656Y-115346575D01*
X151273664Y-115342154D01*
X151320549Y-115309793D01*
X151358318Y-115267159D01*
X151363435Y-115261723D01*
X155834240Y-110790918D01*
X155895563Y-110757434D01*
X155921921Y-110754600D01*
X158180382Y-110754600D01*
X158247421Y-110774285D01*
X158293176Y-110827089D01*
X158303120Y-110896247D01*
X158289214Y-110938027D01*
X158230349Y-111045829D01*
X158200851Y-111124915D01*
X158158979Y-111180848D01*
X158125438Y-111194316D01*
X158126742Y-111197753D01*
X158081757Y-111214813D01*
X158067471Y-111219265D01*
X158055445Y-111222229D01*
X158035373Y-111227176D01*
X158006103Y-111242538D01*
X157992455Y-111248681D01*
X157961553Y-111260401D01*
X157934353Y-111279175D01*
X157921545Y-111286918D01*
X157892274Y-111302281D01*
X157867529Y-111324203D01*
X157855746Y-111333435D01*
X157828550Y-111352207D01*
X157806631Y-111376948D01*
X157796048Y-111387531D01*
X157771307Y-111409450D01*
X157752535Y-111436646D01*
X157743303Y-111448429D01*
X157721381Y-111473174D01*
X157706018Y-111502445D01*
X157698275Y-111515253D01*
X157679501Y-111542453D01*
X157667781Y-111573355D01*
X157661638Y-111587003D01*
X157646276Y-111616273D01*
X157641329Y-111636345D01*
X157638365Y-111648371D01*
X157633913Y-111662657D01*
X157622190Y-111693566D01*
X157618205Y-111726383D01*
X157615508Y-111741101D01*
X157607600Y-111773191D01*
X157607600Y-113145877D01*
X157587915Y-113212916D01*
X157571281Y-113233558D01*
X130879319Y-139925519D01*
X130817996Y-139959004D01*
X130748305Y-139954020D01*
X130548097Y-139879347D01*
X130276867Y-139820345D01*
X129999999Y-139800542D01*
X129723132Y-139820345D01*
X129451902Y-139879347D01*
X129191827Y-139976349D01*
X128948209Y-140109375D01*
X128725994Y-140275724D01*
X128529724Y-140471994D01*
X128363375Y-140694209D01*
X128230349Y-140937827D01*
X128133347Y-141197902D01*
X128074345Y-141469132D01*
X128054542Y-141746000D01*
X128074345Y-142022867D01*
X128133347Y-142294097D01*
X128230349Y-142554172D01*
X128363375Y-142797790D01*
X128363377Y-142797793D01*
X128529722Y-143020003D01*
X128725997Y-143216278D01*
X128948207Y-143382623D01*
X128948209Y-143382624D01*
X129191827Y-143515650D01*
X129321864Y-143564151D01*
X129451901Y-143612652D01*
X129723133Y-143671655D01*
X130000000Y-143691457D01*
X130276867Y-143671655D01*
X130548099Y-143612652D01*
X130808172Y-143515650D01*
X131051793Y-143382623D01*
X131274003Y-143216278D01*
X131470278Y-143020003D01*
X131636623Y-142797793D01*
X131769650Y-142554172D01*
X131866652Y-142294099D01*
X131925655Y-142022867D01*
X131945457Y-141746000D01*
X138054542Y-141746000D01*
X138074345Y-142022867D01*
X138133347Y-142294097D01*
X138230349Y-142554172D01*
X138363375Y-142797790D01*
X138363377Y-142797793D01*
X138529722Y-143020003D01*
X138725997Y-143216278D01*
X138948207Y-143382623D01*
X138948209Y-143382624D01*
X139191827Y-143515650D01*
X139321864Y-143564151D01*
X139451901Y-143612652D01*
X139723133Y-143671655D01*
X140000000Y-143691457D01*
X140276867Y-143671655D01*
X140548099Y-143612652D01*
X140808172Y-143515650D01*
X141051793Y-143382623D01*
X141274003Y-143216278D01*
X141470278Y-143020003D01*
X141636623Y-142797793D01*
X141769650Y-142554172D01*
X141866652Y-142294099D01*
X141925655Y-142022867D01*
X141945457Y-141746000D01*
X148054542Y-141746000D01*
X148074345Y-142022867D01*
X148133347Y-142294097D01*
X148230349Y-142554172D01*
X148363375Y-142797790D01*
X148363377Y-142797793D01*
X148529722Y-143020003D01*
X148725997Y-143216278D01*
X148948207Y-143382623D01*
X148948209Y-143382624D01*
X149191827Y-143515650D01*
X149321864Y-143564151D01*
X149451901Y-143612652D01*
X149723133Y-143671655D01*
X149980196Y-143690040D01*
X149999999Y-143691457D01*
X149999999Y-143691456D01*
X150000000Y-143691457D01*
X150276867Y-143671655D01*
X150548099Y-143612652D01*
X150808172Y-143515650D01*
X151051793Y-143382623D01*
X151274003Y-143216278D01*
X151470278Y-143020003D01*
X151636623Y-142797793D01*
X151769650Y-142554172D01*
X151866652Y-142294099D01*
X151925655Y-142022867D01*
X151945457Y-141746000D01*
X158054542Y-141746000D01*
X158074345Y-142022867D01*
X158133347Y-142294097D01*
X158230349Y-142554172D01*
X158363375Y-142797790D01*
X158363377Y-142797793D01*
X158529722Y-143020003D01*
X158725997Y-143216278D01*
X158948207Y-143382623D01*
X158948209Y-143382624D01*
X159191827Y-143515650D01*
X159321864Y-143564151D01*
X159451901Y-143612652D01*
X159723133Y-143671655D01*
X160000000Y-143691457D01*
X160276867Y-143671655D01*
X160548099Y-143612652D01*
X160808172Y-143515650D01*
X161051793Y-143382623D01*
X161274003Y-143216278D01*
X161470278Y-143020003D01*
X161636623Y-142797793D01*
X161769650Y-142554172D01*
X161866652Y-142294099D01*
X161925655Y-142022867D01*
X161945457Y-141746000D01*
X161925655Y-141469133D01*
X161866652Y-141197901D01*
X161791979Y-140997694D01*
X161769650Y-140937827D01*
X161636624Y-140694209D01*
X161624455Y-140677953D01*
X161470278Y-140471997D01*
X161274003Y-140275722D01*
X161051793Y-140109377D01*
X161051791Y-140109376D01*
X161051790Y-140109375D01*
X160808172Y-139976349D01*
X160548097Y-139879347D01*
X160276867Y-139820345D01*
X160000000Y-139800542D01*
X159723132Y-139820345D01*
X159451902Y-139879347D01*
X159191827Y-139976349D01*
X158948209Y-140109375D01*
X158725994Y-140275724D01*
X158529724Y-140471994D01*
X158363375Y-140694209D01*
X158230349Y-140937827D01*
X158133347Y-141197902D01*
X158074345Y-141469132D01*
X158054542Y-141746000D01*
X151945457Y-141746000D01*
X151925655Y-141469133D01*
X151866652Y-141197901D01*
X151791979Y-140997694D01*
X151769650Y-140937827D01*
X151636624Y-140694209D01*
X151624455Y-140677953D01*
X151470278Y-140471997D01*
X151274003Y-140275722D01*
X151051793Y-140109377D01*
X151051791Y-140109376D01*
X151051790Y-140109375D01*
X150808172Y-139976349D01*
X150548097Y-139879347D01*
X150276867Y-139820345D01*
X150000000Y-139800542D01*
X149723132Y-139820345D01*
X149451902Y-139879347D01*
X149191827Y-139976349D01*
X148948209Y-140109375D01*
X148725994Y-140275724D01*
X148529724Y-140471994D01*
X148363375Y-140694209D01*
X148230349Y-140937827D01*
X148133347Y-141197902D01*
X148074345Y-141469132D01*
X148054542Y-141746000D01*
X141945457Y-141746000D01*
X141925655Y-141469133D01*
X141866652Y-141197901D01*
X141791979Y-140997694D01*
X141769650Y-140937827D01*
X141636624Y-140694209D01*
X141624455Y-140677953D01*
X141470278Y-140471997D01*
X141274003Y-140275722D01*
X141051793Y-140109377D01*
X141051791Y-140109376D01*
X141051790Y-140109375D01*
X140808172Y-139976349D01*
X140548097Y-139879347D01*
X140276867Y-139820345D01*
X140000000Y-139800542D01*
X139723132Y-139820345D01*
X139451902Y-139879347D01*
X139191827Y-139976349D01*
X138948209Y-140109375D01*
X138725994Y-140275724D01*
X138529724Y-140471994D01*
X138363375Y-140694209D01*
X138230349Y-140937827D01*
X138133347Y-141197902D01*
X138074345Y-141469132D01*
X138054542Y-141746000D01*
X131945457Y-141746000D01*
X131925655Y-141469133D01*
X131866652Y-141197901D01*
X131791977Y-140997691D01*
X131786994Y-140928002D01*
X131820477Y-140866681D01*
X155541158Y-117145999D01*
X158054542Y-117145999D01*
X158074345Y-117422867D01*
X158133347Y-117694097D01*
X158230349Y-117954172D01*
X158351389Y-118175839D01*
X158363377Y-118197793D01*
X158529722Y-118420003D01*
X158725997Y-118616278D01*
X158948207Y-118782623D01*
X158948209Y-118782624D01*
X159191827Y-118915650D01*
X159321864Y-118964150D01*
X159451901Y-119012652D01*
X159723133Y-119071655D01*
X160000000Y-119091457D01*
X160276867Y-119071655D01*
X160548099Y-119012652D01*
X160808172Y-118915650D01*
X161051793Y-118782623D01*
X161274003Y-118616278D01*
X161470278Y-118420003D01*
X161636623Y-118197793D01*
X161769650Y-117954172D01*
X161866652Y-117694099D01*
X161925655Y-117422867D01*
X161945457Y-117146000D01*
X161925655Y-116869133D01*
X161866652Y-116597901D01*
X161795827Y-116408011D01*
X161769650Y-116337827D01*
X161636624Y-116094209D01*
X161636623Y-116094207D01*
X161470278Y-115871997D01*
X161274003Y-115675722D01*
X161051793Y-115509377D01*
X161051791Y-115509376D01*
X161051790Y-115509375D01*
X160808172Y-115376349D01*
X160548097Y-115279347D01*
X160276867Y-115220345D01*
X159999999Y-115200542D01*
X159723132Y-115220345D01*
X159451902Y-115279347D01*
X159191827Y-115376349D01*
X158948209Y-115509375D01*
X158725994Y-115675724D01*
X158529724Y-115871994D01*
X158363375Y-116094209D01*
X158230349Y-116337827D01*
X158133347Y-116597902D01*
X158074345Y-116869132D01*
X158054542Y-117145999D01*
X155541158Y-117145999D01*
X158726822Y-113960335D01*
X158732242Y-113955233D01*
X158774893Y-113917449D01*
X158807262Y-113870552D01*
X158811655Y-113864582D01*
X158846805Y-113819718D01*
X158850526Y-113811448D01*
X158861546Y-113791908D01*
X158866699Y-113784445D01*
X158886898Y-113731180D01*
X158889758Y-113724279D01*
X158893873Y-113715133D01*
X158913133Y-113672343D01*
X158914766Y-113663425D01*
X158920789Y-113641818D01*
X158922533Y-113637220D01*
X158964710Y-113581520D01*
X159030307Y-113557463D01*
X159097901Y-113572362D01*
X159191827Y-113623650D01*
X159306295Y-113666344D01*
X159451901Y-113720652D01*
X159723133Y-113779655D01*
X160000000Y-113799457D01*
X160276867Y-113779655D01*
X160548099Y-113720652D01*
X160808172Y-113623650D01*
X161051793Y-113490623D01*
X161274003Y-113324278D01*
X161470278Y-113128003D01*
X161636623Y-112905793D01*
X161769650Y-112662172D01*
X161866652Y-112402099D01*
X161925655Y-112130867D01*
X161945457Y-111854000D01*
X161925655Y-111577133D01*
X161866652Y-111305901D01*
X161815721Y-111169349D01*
X161769650Y-111045826D01*
X161710787Y-110938027D01*
X161695935Y-110869754D01*
X161720352Y-110804289D01*
X161776286Y-110762418D01*
X161819619Y-110754600D01*
X167284178Y-110754600D01*
X167351217Y-110774285D01*
X167371859Y-110790919D01*
X173112640Y-116531699D01*
X173117774Y-116537152D01*
X173155552Y-116579794D01*
X173202415Y-116612141D01*
X173208445Y-116616577D01*
X173253283Y-116651706D01*
X173261545Y-116655424D01*
X173281097Y-116666451D01*
X173288555Y-116671599D01*
X173306469Y-116678392D01*
X173362172Y-116720568D01*
X173386231Y-116786165D01*
X173386500Y-116794334D01*
X173386500Y-116945320D01*
X173386940Y-116948983D01*
X173396930Y-117032176D01*
X173451437Y-117170395D01*
X173541214Y-117288785D01*
X173659604Y-117378562D01*
X173797823Y-117433069D01*
X173797826Y-117433070D01*
X173884680Y-117443500D01*
X173888380Y-117443500D01*
X175615620Y-117443500D01*
X175619320Y-117443500D01*
X175706174Y-117433070D01*
X175844395Y-117378562D01*
X175962785Y-117288785D01*
X176052562Y-117170395D01*
X176107070Y-117032174D01*
X176117500Y-116945320D01*
X176117500Y-115210680D01*
X176107070Y-115123826D01*
X176103423Y-115114577D01*
X176052562Y-114985604D01*
X175962785Y-114867214D01*
X175844395Y-114777437D01*
X175706176Y-114722930D01*
X175633876Y-114714248D01*
X175619320Y-114712500D01*
X173884680Y-114712500D01*
X173881015Y-114712940D01*
X173881016Y-114712940D01*
X173797823Y-114722930D01*
X173659604Y-114777437D01*
X173541214Y-114867214D01*
X173536254Y-114873756D01*
X173480060Y-114915278D01*
X173410339Y-114919829D01*
X173349770Y-114886510D01*
X170731260Y-112268000D01*
X173381819Y-112268000D01*
X173400506Y-112493519D01*
X173400506Y-112493522D01*
X173400507Y-112493524D01*
X173456060Y-112712897D01*
X173546963Y-112920134D01*
X173546964Y-112920136D01*
X173551599Y-112927230D01*
X173670735Y-113109582D01*
X173824002Y-113276074D01*
X174002583Y-113415069D01*
X174201605Y-113522774D01*
X174251992Y-113540072D01*
X174415638Y-113596253D01*
X174638851Y-113633500D01*
X174865149Y-113633500D01*
X175088361Y-113596253D01*
X175230193Y-113547561D01*
X175302395Y-113522774D01*
X175501417Y-113415069D01*
X175679998Y-113276074D01*
X175833265Y-113109582D01*
X175957037Y-112920134D01*
X176047940Y-112712897D01*
X176103493Y-112493524D01*
X176122180Y-112268000D01*
X176103493Y-112042476D01*
X176047940Y-111823103D01*
X175957037Y-111615866D01*
X175833265Y-111426418D01*
X175679998Y-111259926D01*
X175501417Y-111120931D01*
X175302395Y-111013226D01*
X175302391Y-111013224D01*
X175302390Y-111013224D01*
X175088361Y-110939746D01*
X174865149Y-110902500D01*
X174638851Y-110902500D01*
X174415638Y-110939746D01*
X174201609Y-111013224D01*
X174201605Y-111013225D01*
X174201605Y-111013226D01*
X174068923Y-111085029D01*
X174002581Y-111120932D01*
X173824001Y-111259926D01*
X173670734Y-111426419D01*
X173546964Y-111615863D01*
X173456060Y-111823103D01*
X173400506Y-112042480D01*
X173381819Y-112268000D01*
X170731260Y-112268000D01*
X168098651Y-109635391D01*
X168093517Y-109629938D01*
X168088699Y-109624500D01*
X168055749Y-109587307D01*
X168008870Y-109554949D01*
X168002853Y-109550520D01*
X167958018Y-109515395D01*
X167949748Y-109511673D01*
X167930207Y-109500651D01*
X167922745Y-109495500D01*
X167869490Y-109475304D01*
X167862570Y-109472438D01*
X167810640Y-109449066D01*
X167801728Y-109447433D01*
X167780116Y-109441408D01*
X167771636Y-109438192D01*
X167715091Y-109431326D01*
X167707693Y-109430199D01*
X167651678Y-109419935D01*
X167594824Y-109423374D01*
X167587337Y-109423600D01*
X155618763Y-109423600D01*
X155611276Y-109423374D01*
X155554420Y-109419934D01*
X155498411Y-109430198D01*
X155491011Y-109431325D01*
X155434462Y-109438192D01*
X155425983Y-109441408D01*
X155404378Y-109447431D01*
X155395459Y-109449066D01*
X155343529Y-109472436D01*
X155336616Y-109475299D01*
X155283354Y-109495500D01*
X155275886Y-109500655D01*
X155256354Y-109511671D01*
X155248082Y-109515394D01*
X155203248Y-109550518D01*
X155197221Y-109554953D01*
X155150351Y-109587306D01*
X155112574Y-109629946D01*
X155107442Y-109635397D01*
X151987706Y-112755133D01*
X151926383Y-112788618D01*
X151856691Y-112783634D01*
X151800758Y-112741762D01*
X151776341Y-112676298D01*
X151783843Y-112624119D01*
X151815721Y-112538651D01*
X151866652Y-112402099D01*
X151925655Y-112130867D01*
X151945457Y-111854000D01*
X151925655Y-111577133D01*
X151866652Y-111305901D01*
X151771206Y-111049999D01*
X151769650Y-111045827D01*
X151646243Y-110819824D01*
X151636623Y-110802207D01*
X151470278Y-110579997D01*
X151274003Y-110383722D01*
X151051793Y-110217377D01*
X151051791Y-110217376D01*
X151051790Y-110217375D01*
X150808172Y-110084349D01*
X150548097Y-109987347D01*
X150276867Y-109928345D01*
X150000000Y-109908542D01*
X149723132Y-109928345D01*
X149451902Y-109987347D01*
X149191827Y-110084349D01*
X148948209Y-110217375D01*
X148725994Y-110383724D01*
X148529724Y-110579994D01*
X148363123Y-110802545D01*
X148307189Y-110844416D01*
X148237497Y-110849400D01*
X148176175Y-110815915D01*
X146839351Y-109479091D01*
X146834217Y-109473638D01*
X146825407Y-109463694D01*
X146796449Y-109431007D01*
X146749570Y-109398649D01*
X146743553Y-109394220D01*
X146698718Y-109359095D01*
X146690448Y-109355373D01*
X146670907Y-109344351D01*
X146663445Y-109339200D01*
X146610190Y-109319004D01*
X146603270Y-109316138D01*
X146551340Y-109292766D01*
X146542428Y-109291133D01*
X146520816Y-109285108D01*
X146512336Y-109281892D01*
X146455791Y-109275026D01*
X146448393Y-109273899D01*
X146392378Y-109263635D01*
X146335524Y-109267074D01*
X146328037Y-109267300D01*
X131995113Y-109267300D01*
X131928074Y-109247615D01*
X131882319Y-109194811D01*
X131872375Y-109125653D01*
X131901400Y-109062097D01*
X131924673Y-109041250D01*
X131938318Y-109031830D01*
X131967349Y-109011793D01*
X132005118Y-108969159D01*
X132010235Y-108963723D01*
X132515959Y-108457999D01*
X173421938Y-108457999D01*
X173442145Y-108688961D01*
X173502151Y-108912907D01*
X173600133Y-109123032D01*
X173655023Y-109201422D01*
X173655023Y-109201423D01*
X174226070Y-108630374D01*
X174228884Y-108643915D01*
X174298442Y-108778156D01*
X174401638Y-108888652D01*
X174530819Y-108967209D01*
X174582002Y-108981549D01*
X174008575Y-109554975D01*
X174008575Y-109554976D01*
X174086967Y-109609866D01*
X174297092Y-109707848D01*
X174521038Y-109767854D01*
X174752000Y-109788061D01*
X174982961Y-109767854D01*
X175206907Y-109707848D01*
X175417028Y-109609867D01*
X175495423Y-109554975D01*
X174923568Y-108983121D01*
X175040458Y-108932349D01*
X175157739Y-108836934D01*
X175244928Y-108713415D01*
X175275354Y-108627802D01*
X175848975Y-109201423D01*
X175903867Y-109123028D01*
X176001848Y-108912907D01*
X176061854Y-108688961D01*
X176082061Y-108457999D01*
X176061854Y-108227038D01*
X176001848Y-108003092D01*
X175903867Y-107792972D01*
X175848974Y-107714576D01*
X175277928Y-108285621D01*
X175275116Y-108272085D01*
X175205558Y-108137844D01*
X175102362Y-108027348D01*
X174973181Y-107948791D01*
X174921995Y-107934449D01*
X175495423Y-107361023D01*
X175417032Y-107306133D01*
X175206907Y-107208151D01*
X174982961Y-107148145D01*
X174752000Y-107127938D01*
X174521038Y-107148145D01*
X174297092Y-107208151D01*
X174086968Y-107306133D01*
X174008577Y-107361023D01*
X174008576Y-107361024D01*
X174580431Y-107932878D01*
X174463542Y-107983651D01*
X174346261Y-108079066D01*
X174259072Y-108202585D01*
X174228645Y-108288197D01*
X173655024Y-107714576D01*
X173655023Y-107714577D01*
X173600133Y-107792968D01*
X173502151Y-108003092D01*
X173442145Y-108227038D01*
X173421938Y-108457999D01*
X132515959Y-108457999D01*
X153719960Y-87253999D01*
X158054542Y-87253999D01*
X158074345Y-87530867D01*
X158133347Y-87802097D01*
X158230349Y-88062172D01*
X158363375Y-88305790D01*
X158363377Y-88305793D01*
X158529722Y-88528003D01*
X158725997Y-88724278D01*
X158948207Y-88890623D01*
X158948209Y-88890624D01*
X159191827Y-89023650D01*
X159321864Y-89072150D01*
X159451901Y-89120652D01*
X159723133Y-89179655D01*
X160000000Y-89199457D01*
X160276867Y-89179655D01*
X160548099Y-89120652D01*
X160808172Y-89023650D01*
X161051793Y-88890623D01*
X161274003Y-88724278D01*
X161470278Y-88528003D01*
X161636623Y-88305793D01*
X161769650Y-88062172D01*
X161866652Y-87802099D01*
X161925655Y-87530867D01*
X161945457Y-87254000D01*
X161925655Y-86977133D01*
X161866652Y-86705901D01*
X161769650Y-86445828D01*
X161769650Y-86445827D01*
X161636624Y-86202209D01*
X161636623Y-86202207D01*
X161470278Y-85979997D01*
X161274003Y-85783722D01*
X161051793Y-85617377D01*
X161051791Y-85617376D01*
X161051790Y-85617375D01*
X160808172Y-85484349D01*
X160548097Y-85387347D01*
X160276867Y-85328345D01*
X160000000Y-85308542D01*
X159723132Y-85328345D01*
X159451902Y-85387347D01*
X159191827Y-85484349D01*
X158948209Y-85617375D01*
X158725994Y-85783724D01*
X158529724Y-85979994D01*
X158363375Y-86202209D01*
X158230349Y-86445827D01*
X158133347Y-86705902D01*
X158074345Y-86977132D01*
X158054542Y-87253999D01*
X153719960Y-87253999D01*
X160709959Y-80264000D01*
X166934709Y-80264000D01*
X166934904Y-80267472D01*
X166949810Y-80532911D01*
X166953857Y-80604964D01*
X166954436Y-80608374D01*
X166954438Y-80608388D01*
X167010477Y-80938207D01*
X167010479Y-80938216D01*
X167011061Y-80941641D01*
X167012022Y-80944978D01*
X167012024Y-80944985D01*
X167104637Y-81266452D01*
X167104640Y-81266461D01*
X167105601Y-81269796D01*
X167106930Y-81273004D01*
X167106933Y-81273013D01*
X167229864Y-81569793D01*
X167236288Y-81585302D01*
X167401478Y-81884192D01*
X167599096Y-82162708D01*
X167826654Y-82417346D01*
X168081292Y-82644904D01*
X168359808Y-82842522D01*
X168658698Y-83007712D01*
X168974204Y-83138399D01*
X169302359Y-83232939D01*
X169639036Y-83290143D01*
X169980000Y-83309291D01*
X170320964Y-83290143D01*
X170657641Y-83232939D01*
X170985796Y-83138399D01*
X171301302Y-83007712D01*
X171600192Y-82842522D01*
X171878708Y-82644904D01*
X172133346Y-82417346D01*
X172360904Y-82162708D01*
X172558522Y-81884192D01*
X172723712Y-81585302D01*
X172854399Y-81269796D01*
X172948939Y-80941641D01*
X173006143Y-80604964D01*
X173025291Y-80264000D01*
X173006143Y-79923036D01*
X172948939Y-79586359D01*
X172854399Y-79258204D01*
X172723712Y-78942698D01*
X172558522Y-78643808D01*
X172360904Y-78365292D01*
X172133346Y-78110654D01*
X171878708Y-77883096D01*
X171779427Y-77812652D01*
X171603035Y-77687495D01*
X171603032Y-77687493D01*
X171600192Y-77685478D01*
X171301302Y-77520288D01*
X171298091Y-77518958D01*
X171298087Y-77518956D01*
X170989013Y-77390933D01*
X170989004Y-77390930D01*
X170985796Y-77389601D01*
X170982461Y-77388640D01*
X170982452Y-77388637D01*
X170660985Y-77296024D01*
X170660978Y-77296022D01*
X170657641Y-77295061D01*
X170654216Y-77294479D01*
X170654207Y-77294477D01*
X170324388Y-77238438D01*
X170324374Y-77238436D01*
X170320964Y-77237857D01*
X170317500Y-77237662D01*
X170317496Y-77237662D01*
X169983472Y-77218904D01*
X169980000Y-77218709D01*
X169976528Y-77218904D01*
X169642503Y-77237662D01*
X169642497Y-77237662D01*
X169639036Y-77237857D01*
X169635627Y-77238436D01*
X169635611Y-77238438D01*
X169305792Y-77294477D01*
X169305779Y-77294479D01*
X169302359Y-77295061D01*
X169299025Y-77296021D01*
X169299014Y-77296024D01*
X168977547Y-77388637D01*
X168977532Y-77388642D01*
X168974204Y-77389601D01*
X168971000Y-77390927D01*
X168970986Y-77390933D01*
X168661912Y-77518956D01*
X168661901Y-77518961D01*
X168658698Y-77520288D01*
X168655658Y-77521967D01*
X168655654Y-77521970D01*
X168362852Y-77683795D01*
X168362843Y-77683800D01*
X168359808Y-77685478D01*
X168356975Y-77687487D01*
X168356964Y-77687495D01*
X168084138Y-77881076D01*
X168084130Y-77881081D01*
X168081292Y-77883096D01*
X168078703Y-77885409D01*
X168078695Y-77885416D01*
X167829239Y-78108343D01*
X167829230Y-78108351D01*
X167826654Y-78110654D01*
X167824351Y-78113230D01*
X167824343Y-78113239D01*
X167601416Y-78362695D01*
X167601409Y-78362703D01*
X167599096Y-78365292D01*
X167597081Y-78368130D01*
X167597076Y-78368138D01*
X167403495Y-78640964D01*
X167403487Y-78640975D01*
X167401478Y-78643808D01*
X167399800Y-78646843D01*
X167399795Y-78646852D01*
X167249143Y-78919438D01*
X167236288Y-78942698D01*
X167234961Y-78945901D01*
X167234956Y-78945912D01*
X167106933Y-79254986D01*
X167106927Y-79255000D01*
X167105601Y-79258204D01*
X167104642Y-79261532D01*
X167104637Y-79261547D01*
X167012024Y-79583014D01*
X167012021Y-79583025D01*
X167011061Y-79586359D01*
X167010479Y-79589779D01*
X167010477Y-79589792D01*
X166954438Y-79919611D01*
X166954436Y-79919627D01*
X166953857Y-79923036D01*
X166953662Y-79926497D01*
X166953662Y-79926503D01*
X166935993Y-80241132D01*
X166934709Y-80264000D01*
X160709959Y-80264000D01*
X170636640Y-70337319D01*
X170697963Y-70303834D01*
X170724321Y-70301000D01*
X174849500Y-70301000D01*
X174916539Y-70320685D01*
X174962294Y-70373489D01*
X174973500Y-70424999D01*
X174973500Y-71665820D01*
X174973940Y-71669483D01*
X174983930Y-71752676D01*
X175038437Y-71890895D01*
X175128214Y-72009285D01*
X175159086Y-72032696D01*
X175200610Y-72088889D01*
X175205161Y-72158610D01*
X175171296Y-72219724D01*
X175159086Y-72230304D01*
X175128214Y-72253714D01*
X175038437Y-72372104D01*
X174983930Y-72510323D01*
X174983930Y-72510326D01*
X174973500Y-72597180D01*
X174973500Y-74205820D01*
X174973940Y-74209483D01*
X174983930Y-74292676D01*
X175038437Y-74430895D01*
X175128213Y-74549284D01*
X175159085Y-74572694D01*
X175200609Y-74628886D01*
X175205162Y-74698607D01*
X175171297Y-74759722D01*
X175159088Y-74770302D01*
X175128214Y-74793714D01*
X175038437Y-74912104D01*
X174983930Y-75050323D01*
X174979298Y-75088898D01*
X174973500Y-75137180D01*
X174973500Y-76745820D01*
X174973940Y-76749483D01*
X174983930Y-76832676D01*
X175038437Y-76970895D01*
X175128214Y-77089285D01*
X175246604Y-77179062D01*
X175384823Y-77233569D01*
X175384826Y-77233570D01*
X175471680Y-77244000D01*
X175475380Y-77244000D01*
X177076620Y-77244000D01*
X177080320Y-77244000D01*
X177167174Y-77233570D01*
X177305395Y-77179062D01*
X177423785Y-77089285D01*
X177513562Y-76970895D01*
X177568070Y-76832674D01*
X177578500Y-76745820D01*
X177578500Y-75137180D01*
X177568070Y-75050326D01*
X177513562Y-74912105D01*
X177513562Y-74912104D01*
X177423785Y-74793715D01*
X177392914Y-74770305D01*
X177351390Y-74714113D01*
X177346837Y-74644391D01*
X177380702Y-74583277D01*
X177392914Y-74572695D01*
X177393955Y-74571905D01*
X177423785Y-74549285D01*
X177513562Y-74430895D01*
X177568070Y-74292674D01*
X177578500Y-74205820D01*
X177578500Y-72597180D01*
X177568070Y-72510326D01*
X177513562Y-72372105D01*
X177513562Y-72372104D01*
X177423785Y-72253715D01*
X177392914Y-72230305D01*
X177351390Y-72174113D01*
X177346837Y-72104391D01*
X177380702Y-72043277D01*
X177392914Y-72032695D01*
X177393955Y-72031905D01*
X177423785Y-72009285D01*
X177513562Y-71890895D01*
X177568070Y-71752674D01*
X177578500Y-71665820D01*
X177578500Y-70057180D01*
X177573815Y-70018172D01*
X177585364Y-69949268D01*
X177609246Y-69915711D01*
X177818622Y-69706335D01*
X177824042Y-69701233D01*
X177866693Y-69663449D01*
X177899062Y-69616552D01*
X177903455Y-69610582D01*
X177938605Y-69565718D01*
X177942326Y-69557448D01*
X177953346Y-69537908D01*
X177958499Y-69530445D01*
X177978698Y-69477180D01*
X177981558Y-69470279D01*
X177985673Y-69461133D01*
X178004933Y-69418343D01*
X178006566Y-69409425D01*
X178012592Y-69387811D01*
X178015808Y-69379334D01*
X178022673Y-69322789D01*
X178023799Y-69315395D01*
X178034065Y-69259380D01*
X178030626Y-69202524D01*
X178030400Y-69195037D01*
X178030400Y-62358666D01*
X178030626Y-62351180D01*
X178031624Y-62334673D01*
X178034065Y-62294322D01*
X178023795Y-62238287D01*
X178022670Y-62230887D01*
X178017623Y-62189321D01*
X178015808Y-62174366D01*
X178012591Y-62165885D01*
X178006568Y-62144274D01*
X178004934Y-62135357D01*
X177981557Y-62083417D01*
X177978696Y-62076511D01*
X177958499Y-62023255D01*
X177953351Y-62015797D01*
X177942323Y-61996243D01*
X177938606Y-61987983D01*
X177903477Y-61943145D01*
X177899041Y-61937115D01*
X177866694Y-61890252D01*
X177824052Y-61852474D01*
X177818599Y-61847340D01*
X177610247Y-61638987D01*
X177576762Y-61577664D01*
X177574813Y-61536521D01*
X177578058Y-61509497D01*
X177578500Y-61505820D01*
X177578500Y-59897180D01*
X177568070Y-59810326D01*
X177513562Y-59672105D01*
X177513562Y-59672104D01*
X177423785Y-59553715D01*
X177392914Y-59530305D01*
X177351390Y-59474113D01*
X177346837Y-59404391D01*
X177380702Y-59343277D01*
X177392914Y-59332695D01*
X177393955Y-59331905D01*
X177423785Y-59309285D01*
X177513562Y-59190895D01*
X177568070Y-59052674D01*
X177578500Y-58965820D01*
X177578500Y-57357180D01*
X177568070Y-57270326D01*
X177513562Y-57132105D01*
X177513562Y-57132104D01*
X177423785Y-57013714D01*
X177359533Y-56964991D01*
X177318010Y-56908799D01*
X177313458Y-56839078D01*
X177347322Y-56777964D01*
X177360149Y-56766919D01*
X177395188Y-56740689D01*
X177481352Y-56625589D01*
X177531599Y-56490871D01*
X177537645Y-56434632D01*
X177538000Y-56428018D01*
X177538000Y-55871500D01*
X176563717Y-55871500D01*
X176599371Y-55832769D01*
X176650448Y-55716323D01*
X176660949Y-55589602D01*
X176629734Y-55466338D01*
X176567773Y-55371500D01*
X177538000Y-55371500D01*
X177538000Y-54814981D01*
X177537645Y-54808367D01*
X177531599Y-54752128D01*
X177481352Y-54617410D01*
X177395187Y-54502309D01*
X177360148Y-54476079D01*
X177318276Y-54420146D01*
X177313292Y-54350454D01*
X177346777Y-54289131D01*
X177359533Y-54278008D01*
X177423785Y-54229285D01*
X177513562Y-54110895D01*
X177568070Y-53972674D01*
X177578500Y-53885820D01*
X177578500Y-52277180D01*
X177568070Y-52190326D01*
X177526914Y-52085962D01*
X177513562Y-52052104D01*
X177423785Y-51933714D01*
X177305395Y-51843937D01*
X177167176Y-51789430D01*
X177112136Y-51782820D01*
X177080320Y-51779000D01*
X175471680Y-51779000D01*
X175468015Y-51779440D01*
X175468016Y-51779440D01*
X175384823Y-51789430D01*
X175246605Y-51843937D01*
X175130342Y-51932101D01*
X175065030Y-51956923D01*
X174996667Y-51942494D01*
X174967737Y-51920977D01*
X174691051Y-51644291D01*
X174685917Y-51638838D01*
X174648149Y-51596207D01*
X174601270Y-51563849D01*
X174595253Y-51559420D01*
X174550418Y-51524295D01*
X174542148Y-51520573D01*
X174522607Y-51509551D01*
X174515145Y-51504400D01*
X174461890Y-51484204D01*
X174454970Y-51481338D01*
X174403040Y-51457966D01*
X174394128Y-51456333D01*
X174372516Y-51450308D01*
X174364036Y-51447092D01*
X174307491Y-51440226D01*
X174300093Y-51439099D01*
X174244078Y-51428835D01*
X174187224Y-51432274D01*
X174179737Y-51432500D01*
X170843283Y-51432500D01*
X170776244Y-51412815D01*
X170730489Y-51360011D01*
X170720545Y-51290853D01*
X170749570Y-51227297D01*
X170808348Y-51189523D01*
X170808955Y-51189346D01*
X170985796Y-51138399D01*
X171301302Y-51007712D01*
X171600192Y-50842522D01*
X171878708Y-50644904D01*
X172133346Y-50417346D01*
X172360904Y-50162708D01*
X172558522Y-49884192D01*
X172723712Y-49585302D01*
X172854399Y-49269796D01*
X172948939Y-48941641D01*
X173006143Y-48604964D01*
X173025291Y-48264000D01*
X173006143Y-47923036D01*
X172948939Y-47586359D01*
X172854399Y-47258204D01*
X172723712Y-46942698D01*
X172558522Y-46643808D01*
X172360904Y-46365292D01*
X172133346Y-46110654D01*
X171878708Y-45883096D01*
X171600192Y-45685478D01*
X171301302Y-45520288D01*
X171298091Y-45518958D01*
X171298087Y-45518956D01*
X170989013Y-45390933D01*
X170989004Y-45390930D01*
X170985796Y-45389601D01*
X170982461Y-45388640D01*
X170982452Y-45388637D01*
X170660985Y-45296024D01*
X170660978Y-45296022D01*
X170657641Y-45295061D01*
X170654216Y-45294479D01*
X170654207Y-45294477D01*
X170324388Y-45238438D01*
X170324374Y-45238436D01*
X170320964Y-45237857D01*
X170317500Y-45237662D01*
X170317496Y-45237662D01*
X169983472Y-45218904D01*
X169980000Y-45218709D01*
X169976528Y-45218904D01*
X169642503Y-45237662D01*
X169642497Y-45237662D01*
X169639036Y-45237857D01*
X169635627Y-45238436D01*
X169635611Y-45238438D01*
X169305792Y-45294477D01*
X169305779Y-45294479D01*
X169302359Y-45295061D01*
X169299025Y-45296021D01*
X169299014Y-45296024D01*
X168977547Y-45388637D01*
X168977532Y-45388642D01*
X168974204Y-45389601D01*
X168971000Y-45390927D01*
X168970986Y-45390933D01*
X168661912Y-45518956D01*
X168661901Y-45518961D01*
X168658698Y-45520288D01*
X168655658Y-45521967D01*
X168655654Y-45521970D01*
X168362852Y-45683795D01*
X168362843Y-45683800D01*
X168359808Y-45685478D01*
X168356975Y-45687487D01*
X168356964Y-45687495D01*
X168084138Y-45881076D01*
X168084130Y-45881081D01*
X168081292Y-45883096D01*
X168078703Y-45885409D01*
X168078695Y-45885416D01*
X167829239Y-46108343D01*
X167829230Y-46108351D01*
X167826654Y-46110654D01*
X167824351Y-46113230D01*
X167824343Y-46113239D01*
X167601416Y-46362695D01*
X167601409Y-46362703D01*
X167599096Y-46365292D01*
X167597081Y-46368130D01*
X167597076Y-46368138D01*
X167403495Y-46640964D01*
X167403487Y-46640975D01*
X167401478Y-46643808D01*
X167399800Y-46646843D01*
X167399795Y-46646852D01*
X167237970Y-46939654D01*
X167236288Y-46942698D01*
X167234961Y-46945901D01*
X167234956Y-46945912D01*
X167106933Y-47254986D01*
X167106927Y-47255000D01*
X167105601Y-47258204D01*
X167104642Y-47261532D01*
X167104637Y-47261547D01*
X167012024Y-47583014D01*
X167012021Y-47583025D01*
X167011061Y-47586359D01*
X167010479Y-47589779D01*
X167010477Y-47589792D01*
X166954438Y-47919611D01*
X166954436Y-47919627D01*
X166953857Y-47923036D01*
X166934709Y-48264000D01*
X166953857Y-48604964D01*
X166954436Y-48608374D01*
X166954438Y-48608388D01*
X167010477Y-48938207D01*
X167010479Y-48938216D01*
X167011061Y-48941641D01*
X167012022Y-48944978D01*
X167012024Y-48944985D01*
X167104637Y-49266452D01*
X167104640Y-49266461D01*
X167105601Y-49269796D01*
X167106930Y-49273004D01*
X167106933Y-49273013D01*
X167234956Y-49582087D01*
X167236288Y-49585302D01*
X167401478Y-49884192D01*
X167599096Y-50162708D01*
X167826654Y-50417346D01*
X168081292Y-50644904D01*
X168359808Y-50842522D01*
X168658698Y-51007712D01*
X168974204Y-51138399D01*
X168977548Y-51139362D01*
X168977547Y-51139362D01*
X169151045Y-51189346D01*
X169210015Y-51226820D01*
X169239363Y-51290227D01*
X169229773Y-51359436D01*
X169184288Y-51412472D01*
X169117349Y-51432498D01*
X169116717Y-51432500D01*
X150563763Y-51432500D01*
X150556276Y-51432274D01*
X150499420Y-51428834D01*
X150443410Y-51439099D01*
X150436007Y-51440226D01*
X150379466Y-51447092D01*
X150370983Y-51450308D01*
X150349378Y-51456332D01*
X150340456Y-51457967D01*
X150288525Y-51481339D01*
X150281606Y-51484205D01*
X150228350Y-51504402D01*
X150220886Y-51509554D01*
X150201355Y-51520570D01*
X150193083Y-51524293D01*
X150148248Y-51559418D01*
X150142221Y-51563853D01*
X150095351Y-51596206D01*
X150057574Y-51638846D01*
X150052442Y-51644297D01*
X149644262Y-52052477D01*
X149582939Y-52085962D01*
X149513247Y-52080978D01*
X149481656Y-52063600D01*
X149365395Y-51975437D01*
X149227176Y-51920930D01*
X149172136Y-51914320D01*
X149140320Y-51910500D01*
X147531680Y-51910500D01*
X147528015Y-51910940D01*
X147528016Y-51910940D01*
X147444823Y-51920930D01*
X147306604Y-51975437D01*
X147188214Y-52065214D01*
X147098437Y-52183604D01*
X147043930Y-52321823D01*
X147043930Y-52321826D01*
X147033500Y-52408680D01*
X147033500Y-54017320D01*
X147033939Y-54020983D01*
X147033940Y-54020985D01*
X147037198Y-54048112D01*
X147025646Y-54117020D01*
X147001763Y-54150576D01*
X141986159Y-59166181D01*
X141924836Y-59199666D01*
X141898478Y-59202500D01*
X88074621Y-59202500D01*
X88007582Y-59182815D01*
X87973047Y-59149624D01*
X87922373Y-59077255D01*
X87770748Y-58925630D01*
X87770745Y-58925627D01*
X87595091Y-58802632D01*
X87400747Y-58712008D01*
X87400746Y-58712007D01*
X87397260Y-58710382D01*
X87344821Y-58664210D01*
X87325669Y-58597016D01*
X87345885Y-58530135D01*
X87397260Y-58485618D01*
X87400747Y-58483992D01*
X87595091Y-58393368D01*
X87770745Y-58270373D01*
X87922373Y-58118745D01*
X88045368Y-57943091D01*
X88135992Y-57748747D01*
X88191492Y-57541619D01*
X88210181Y-57328000D01*
X88191492Y-57114381D01*
X88135992Y-56907253D01*
X88045368Y-56712910D01*
X87922373Y-56537255D01*
X87770745Y-56385627D01*
X87595091Y-56262632D01*
X87567747Y-56249881D01*
X87515309Y-56203710D01*
X87496157Y-56136516D01*
X87516373Y-56069635D01*
X87569538Y-56024301D01*
X87620153Y-56013500D01*
X87703620Y-56013500D01*
X87707320Y-56013500D01*
X87794174Y-56003070D01*
X87932395Y-55948562D01*
X88050785Y-55858785D01*
X88140562Y-55740395D01*
X88195070Y-55602174D01*
X88205500Y-55515320D01*
X88205500Y-54060680D01*
X88195070Y-53973826D01*
X88195069Y-53973823D01*
X88140562Y-53835604D01*
X88050785Y-53717214D01*
X87932395Y-53627437D01*
X87794176Y-53572930D01*
X87739136Y-53566320D01*
X87707320Y-53562500D01*
X86252680Y-53562500D01*
X86249015Y-53562940D01*
X86249016Y-53562940D01*
X86165823Y-53572930D01*
X86027604Y-53627437D01*
X85909214Y-53717214D01*
X85819437Y-53835604D01*
X85764930Y-53973823D01*
X85764930Y-53973826D01*
X85754500Y-54060680D01*
X85754500Y-55515320D01*
X85754940Y-55518983D01*
X85764930Y-55602176D01*
X85819437Y-55740395D01*
X85909214Y-55858785D01*
X86027604Y-55948562D01*
X86165823Y-56003069D01*
X86165826Y-56003070D01*
X86252680Y-56013500D01*
X86256380Y-56013500D01*
X86339848Y-56013500D01*
X86406887Y-56033185D01*
X86452642Y-56085989D01*
X86462586Y-56155147D01*
X86433561Y-56218703D01*
X86392254Y-56249881D01*
X86364910Y-56262632D01*
X86189255Y-56385627D01*
X86189251Y-56385630D01*
X86037630Y-56537251D01*
X85914631Y-56712912D01*
X85824008Y-56907251D01*
X85768507Y-57114383D01*
X85749818Y-57327999D01*
X85768507Y-57541616D01*
X85768508Y-57541619D01*
X85824008Y-57748747D01*
X85914632Y-57943091D01*
X86037627Y-58118745D01*
X86189255Y-58270373D01*
X86364909Y-58393368D01*
X86498042Y-58455448D01*
X86562739Y-58485618D01*
X86615178Y-58531790D01*
X86634330Y-58598984D01*
X86614114Y-58665865D01*
X86562739Y-58710382D01*
X86364912Y-58802631D01*
X86364910Y-58802632D01*
X86189255Y-58925627D01*
X86189251Y-58925630D01*
X86037630Y-59077251D01*
X86037627Y-59077254D01*
X86037627Y-59077255D01*
X85949930Y-59202500D01*
X85914631Y-59252912D01*
X85824008Y-59447251D01*
X85768507Y-59654383D01*
X85749818Y-59868000D01*
X79756000Y-59868000D01*
X79756000Y-48264000D01*
X90934709Y-48264000D01*
X90953857Y-48604964D01*
X90954436Y-48608374D01*
X90954438Y-48608388D01*
X91010477Y-48938207D01*
X91010479Y-48938216D01*
X91011061Y-48941641D01*
X91012022Y-48944978D01*
X91012024Y-48944985D01*
X91104637Y-49266452D01*
X91104640Y-49266461D01*
X91105601Y-49269796D01*
X91106930Y-49273004D01*
X91106933Y-49273013D01*
X91234956Y-49582087D01*
X91236288Y-49585302D01*
X91401478Y-49884192D01*
X91599096Y-50162708D01*
X91826654Y-50417346D01*
X92081292Y-50644904D01*
X92359808Y-50842522D01*
X92658698Y-51007712D01*
X92974204Y-51138399D01*
X93302359Y-51232939D01*
X93639036Y-51290143D01*
X93980000Y-51309291D01*
X94320964Y-51290143D01*
X94657641Y-51232939D01*
X94985796Y-51138399D01*
X95301302Y-51007712D01*
X95600192Y-50842522D01*
X95878708Y-50644904D01*
X96133346Y-50417346D01*
X96360904Y-50162708D01*
X96558522Y-49884192D01*
X96723712Y-49585302D01*
X96854399Y-49269796D01*
X96948939Y-48941641D01*
X97006143Y-48604964D01*
X97025291Y-48264000D01*
X97006143Y-47923036D01*
X96948939Y-47586359D01*
X96854399Y-47258204D01*
X96723712Y-46942698D01*
X96558522Y-46643808D01*
X96360904Y-46365292D01*
X96133346Y-46110654D01*
X95878708Y-45883096D01*
X95600192Y-45685478D01*
X95301302Y-45520288D01*
X95298091Y-45518958D01*
X95298087Y-45518956D01*
X94989013Y-45390933D01*
X94989004Y-45390930D01*
X94985796Y-45389601D01*
X94982461Y-45388640D01*
X94982452Y-45388637D01*
X94660985Y-45296024D01*
X94660978Y-45296022D01*
X94657641Y-45295061D01*
X94654216Y-45294479D01*
X94654207Y-45294477D01*
X94324388Y-45238438D01*
X94324374Y-45238436D01*
X94320964Y-45237857D01*
X94317500Y-45237662D01*
X94317496Y-45237662D01*
X93983472Y-45218904D01*
X93980000Y-45218709D01*
X93976528Y-45218904D01*
X93642503Y-45237662D01*
X93642497Y-45237662D01*
X93639036Y-45237857D01*
X93635627Y-45238436D01*
X93635611Y-45238438D01*
X93305792Y-45294477D01*
X93305779Y-45294479D01*
X93302359Y-45295061D01*
X93299025Y-45296021D01*
X93299014Y-45296024D01*
X92977547Y-45388637D01*
X92977532Y-45388642D01*
X92974204Y-45389601D01*
X92971000Y-45390927D01*
X92970986Y-45390933D01*
X92661912Y-45518956D01*
X92661901Y-45518961D01*
X92658698Y-45520288D01*
X92655658Y-45521967D01*
X92655654Y-45521970D01*
X92362852Y-45683795D01*
X92362843Y-45683800D01*
X92359808Y-45685478D01*
X92356975Y-45687487D01*
X92356964Y-45687495D01*
X92084138Y-45881076D01*
X92084130Y-45881081D01*
X92081292Y-45883096D01*
X92078703Y-45885409D01*
X92078695Y-45885416D01*
X91829239Y-46108343D01*
X91829230Y-46108351D01*
X91826654Y-46110654D01*
X91824351Y-46113230D01*
X91824343Y-46113239D01*
X91601416Y-46362695D01*
X91601409Y-46362703D01*
X91599096Y-46365292D01*
X91597081Y-46368130D01*
X91597076Y-46368138D01*
X91403495Y-46640964D01*
X91403487Y-46640975D01*
X91401478Y-46643808D01*
X91399800Y-46646843D01*
X91399795Y-46646852D01*
X91237970Y-46939654D01*
X91236288Y-46942698D01*
X91234961Y-46945901D01*
X91234956Y-46945912D01*
X91106933Y-47254986D01*
X91106927Y-47255000D01*
X91105601Y-47258204D01*
X91104642Y-47261532D01*
X91104637Y-47261547D01*
X91012024Y-47583014D01*
X91012021Y-47583025D01*
X91011061Y-47586359D01*
X91010479Y-47589779D01*
X91010477Y-47589792D01*
X90954438Y-47919611D01*
X90954436Y-47919627D01*
X90953857Y-47923036D01*
X90934709Y-48264000D01*
X79756000Y-48264000D01*
X79756000Y-44574000D01*
X79775685Y-44506961D01*
X79828489Y-44461206D01*
X79880000Y-44450000D01*
X180470000Y-44450000D01*
X180537039Y-44469685D01*
G37*
%TD.AperFunction*%
%TD*%
M02*
