%TF.GenerationSoftware,KiCad,Pcbnew,7.0.2*%
%TF.CreationDate,2024-03-19T15:43:20+05:30*%
%TF.ProjectId,gauss_meter_kicad,67617573-735f-46d6-9574-65725f6b6963,rev?*%
%TF.SameCoordinates,Original*%
%TF.FileFunction,Legend,Top*%
%TF.FilePolarity,Positive*%
%FSLAX46Y46*%
G04 Gerber Fmt 4.6, Leading zero omitted, Abs format (unit mm)*
G04 Created by KiCad (PCBNEW 7.0.2) date 2024-03-19 15:43:20*
%MOMM*%
%LPD*%
G01*
G04 APERTURE LIST*
%ADD10C,0.300000*%
%ADD11C,0.150000*%
%ADD12C,0.127000*%
%ADD13C,0.200000*%
%ADD14C,0.120000*%
%ADD15C,0.100000*%
G04 APERTURE END LIST*
D10*
X101139428Y-35833571D02*
X100996571Y-35762142D01*
X100996571Y-35762142D02*
X100710857Y-35762142D01*
X100710857Y-35762142D02*
X100568000Y-35833571D01*
X100568000Y-35833571D02*
X100425142Y-35976428D01*
X100425142Y-35976428D02*
X100353714Y-36119285D01*
X100353714Y-36119285D02*
X100353714Y-36405000D01*
X100353714Y-36405000D02*
X100425142Y-36547857D01*
X100425142Y-36547857D02*
X100568000Y-36690714D01*
X100568000Y-36690714D02*
X100710857Y-36762142D01*
X100710857Y-36762142D02*
X100996571Y-36762142D01*
X100996571Y-36762142D02*
X101139428Y-36690714D01*
X100853714Y-35262142D02*
X100496571Y-35333571D01*
X100496571Y-35333571D02*
X100139428Y-35547857D01*
X100139428Y-35547857D02*
X99925142Y-35905000D01*
X99925142Y-35905000D02*
X99853714Y-36262142D01*
X99853714Y-36262142D02*
X99925142Y-36619285D01*
X99925142Y-36619285D02*
X100139428Y-36976428D01*
X100139428Y-36976428D02*
X100496571Y-37190714D01*
X100496571Y-37190714D02*
X100853714Y-37262142D01*
X100853714Y-37262142D02*
X101210857Y-37190714D01*
X101210857Y-37190714D02*
X101568000Y-36976428D01*
X101568000Y-36976428D02*
X101782285Y-36619285D01*
X101782285Y-36619285D02*
X101853714Y-36262142D01*
X101853714Y-36262142D02*
X101782285Y-35905000D01*
X101782285Y-35905000D02*
X101568000Y-35547857D01*
X101568000Y-35547857D02*
X101210857Y-35333571D01*
X101210857Y-35333571D02*
X100853714Y-35262142D01*
X103568000Y-36905000D02*
X103782286Y-36976428D01*
X103782286Y-36976428D02*
X104139428Y-36976428D01*
X104139428Y-36976428D02*
X104282286Y-36905000D01*
X104282286Y-36905000D02*
X104353714Y-36833571D01*
X104353714Y-36833571D02*
X104425143Y-36690714D01*
X104425143Y-36690714D02*
X104425143Y-36547857D01*
X104425143Y-36547857D02*
X104353714Y-36405000D01*
X104353714Y-36405000D02*
X104282286Y-36333571D01*
X104282286Y-36333571D02*
X104139428Y-36262142D01*
X104139428Y-36262142D02*
X103853714Y-36190714D01*
X103853714Y-36190714D02*
X103710857Y-36119285D01*
X103710857Y-36119285D02*
X103639428Y-36047857D01*
X103639428Y-36047857D02*
X103568000Y-35905000D01*
X103568000Y-35905000D02*
X103568000Y-35762142D01*
X103568000Y-35762142D02*
X103639428Y-35619285D01*
X103639428Y-35619285D02*
X103710857Y-35547857D01*
X103710857Y-35547857D02*
X103853714Y-35476428D01*
X103853714Y-35476428D02*
X104210857Y-35476428D01*
X104210857Y-35476428D02*
X104425143Y-35547857D01*
X105282285Y-36976428D02*
X105139428Y-36905000D01*
X105139428Y-36905000D02*
X105067999Y-36833571D01*
X105067999Y-36833571D02*
X104996571Y-36690714D01*
X104996571Y-36690714D02*
X104996571Y-36262142D01*
X104996571Y-36262142D02*
X105067999Y-36119285D01*
X105067999Y-36119285D02*
X105139428Y-36047857D01*
X105139428Y-36047857D02*
X105282285Y-35976428D01*
X105282285Y-35976428D02*
X105496571Y-35976428D01*
X105496571Y-35976428D02*
X105639428Y-36047857D01*
X105639428Y-36047857D02*
X105710857Y-36119285D01*
X105710857Y-36119285D02*
X105782285Y-36262142D01*
X105782285Y-36262142D02*
X105782285Y-36690714D01*
X105782285Y-36690714D02*
X105710857Y-36833571D01*
X105710857Y-36833571D02*
X105639428Y-36905000D01*
X105639428Y-36905000D02*
X105496571Y-36976428D01*
X105496571Y-36976428D02*
X105282285Y-36976428D01*
X106425142Y-36976428D02*
X106425142Y-35476428D01*
X107068000Y-36976428D02*
X107068000Y-36190714D01*
X107068000Y-36190714D02*
X106996571Y-36047857D01*
X106996571Y-36047857D02*
X106853714Y-35976428D01*
X106853714Y-35976428D02*
X106639428Y-35976428D01*
X106639428Y-35976428D02*
X106496571Y-36047857D01*
X106496571Y-36047857D02*
X106425142Y-36119285D01*
X108425143Y-36976428D02*
X108425143Y-36190714D01*
X108425143Y-36190714D02*
X108353714Y-36047857D01*
X108353714Y-36047857D02*
X108210857Y-35976428D01*
X108210857Y-35976428D02*
X107925143Y-35976428D01*
X107925143Y-35976428D02*
X107782285Y-36047857D01*
X108425143Y-36905000D02*
X108282285Y-36976428D01*
X108282285Y-36976428D02*
X107925143Y-36976428D01*
X107925143Y-36976428D02*
X107782285Y-36905000D01*
X107782285Y-36905000D02*
X107710857Y-36762142D01*
X107710857Y-36762142D02*
X107710857Y-36619285D01*
X107710857Y-36619285D02*
X107782285Y-36476428D01*
X107782285Y-36476428D02*
X107925143Y-36405000D01*
X107925143Y-36405000D02*
X108282285Y-36405000D01*
X108282285Y-36405000D02*
X108425143Y-36333571D01*
X109139428Y-36976428D02*
X109139428Y-35976428D01*
X109139428Y-36119285D02*
X109210857Y-36047857D01*
X109210857Y-36047857D02*
X109353714Y-35976428D01*
X109353714Y-35976428D02*
X109568000Y-35976428D01*
X109568000Y-35976428D02*
X109710857Y-36047857D01*
X109710857Y-36047857D02*
X109782286Y-36190714D01*
X109782286Y-36190714D02*
X109782286Y-36976428D01*
X109782286Y-36190714D02*
X109853714Y-36047857D01*
X109853714Y-36047857D02*
X109996571Y-35976428D01*
X109996571Y-35976428D02*
X110210857Y-35976428D01*
X110210857Y-35976428D02*
X110353714Y-36047857D01*
X110353714Y-36047857D02*
X110425143Y-36190714D01*
X110425143Y-36190714D02*
X110425143Y-36976428D01*
X113139428Y-36833571D02*
X113068000Y-36905000D01*
X113068000Y-36905000D02*
X112853714Y-36976428D01*
X112853714Y-36976428D02*
X112710857Y-36976428D01*
X112710857Y-36976428D02*
X112496571Y-36905000D01*
X112496571Y-36905000D02*
X112353714Y-36762142D01*
X112353714Y-36762142D02*
X112282285Y-36619285D01*
X112282285Y-36619285D02*
X112210857Y-36333571D01*
X112210857Y-36333571D02*
X112210857Y-36119285D01*
X112210857Y-36119285D02*
X112282285Y-35833571D01*
X112282285Y-35833571D02*
X112353714Y-35690714D01*
X112353714Y-35690714D02*
X112496571Y-35547857D01*
X112496571Y-35547857D02*
X112710857Y-35476428D01*
X112710857Y-35476428D02*
X112853714Y-35476428D01*
X112853714Y-35476428D02*
X113068000Y-35547857D01*
X113068000Y-35547857D02*
X113139428Y-35619285D01*
X113782285Y-36976428D02*
X113782285Y-35476428D01*
X114425143Y-36976428D02*
X114425143Y-36190714D01*
X114425143Y-36190714D02*
X114353714Y-36047857D01*
X114353714Y-36047857D02*
X114210857Y-35976428D01*
X114210857Y-35976428D02*
X113996571Y-35976428D01*
X113996571Y-35976428D02*
X113853714Y-36047857D01*
X113853714Y-36047857D02*
X113782285Y-36119285D01*
X115782286Y-36976428D02*
X115782286Y-36190714D01*
X115782286Y-36190714D02*
X115710857Y-36047857D01*
X115710857Y-36047857D02*
X115568000Y-35976428D01*
X115568000Y-35976428D02*
X115282286Y-35976428D01*
X115282286Y-35976428D02*
X115139428Y-36047857D01*
X115782286Y-36905000D02*
X115639428Y-36976428D01*
X115639428Y-36976428D02*
X115282286Y-36976428D01*
X115282286Y-36976428D02*
X115139428Y-36905000D01*
X115139428Y-36905000D02*
X115068000Y-36762142D01*
X115068000Y-36762142D02*
X115068000Y-36619285D01*
X115068000Y-36619285D02*
X115139428Y-36476428D01*
X115139428Y-36476428D02*
X115282286Y-36405000D01*
X115282286Y-36405000D02*
X115639428Y-36405000D01*
X115639428Y-36405000D02*
X115782286Y-36333571D01*
X116496571Y-36976428D02*
X116496571Y-35476428D01*
X116639429Y-36405000D02*
X117068000Y-36976428D01*
X117068000Y-35976428D02*
X116496571Y-36547857D01*
X117710857Y-36976428D02*
X117710857Y-35976428D01*
X117710857Y-36262142D02*
X117782286Y-36119285D01*
X117782286Y-36119285D02*
X117853715Y-36047857D01*
X117853715Y-36047857D02*
X117996572Y-35976428D01*
X117996572Y-35976428D02*
X118139429Y-35976428D01*
X119282286Y-36976428D02*
X119282286Y-36190714D01*
X119282286Y-36190714D02*
X119210857Y-36047857D01*
X119210857Y-36047857D02*
X119068000Y-35976428D01*
X119068000Y-35976428D02*
X118782286Y-35976428D01*
X118782286Y-35976428D02*
X118639428Y-36047857D01*
X119282286Y-36905000D02*
X119139428Y-36976428D01*
X119139428Y-36976428D02*
X118782286Y-36976428D01*
X118782286Y-36976428D02*
X118639428Y-36905000D01*
X118639428Y-36905000D02*
X118568000Y-36762142D01*
X118568000Y-36762142D02*
X118568000Y-36619285D01*
X118568000Y-36619285D02*
X118639428Y-36476428D01*
X118639428Y-36476428D02*
X118782286Y-36405000D01*
X118782286Y-36405000D02*
X119139428Y-36405000D01*
X119139428Y-36405000D02*
X119282286Y-36333571D01*
X119996571Y-36976428D02*
X119996571Y-35476428D01*
X119996571Y-36047857D02*
X120139429Y-35976428D01*
X120139429Y-35976428D02*
X120425143Y-35976428D01*
X120425143Y-35976428D02*
X120568000Y-36047857D01*
X120568000Y-36047857D02*
X120639429Y-36119285D01*
X120639429Y-36119285D02*
X120710857Y-36262142D01*
X120710857Y-36262142D02*
X120710857Y-36690714D01*
X120710857Y-36690714D02*
X120639429Y-36833571D01*
X120639429Y-36833571D02*
X120568000Y-36905000D01*
X120568000Y-36905000D02*
X120425143Y-36976428D01*
X120425143Y-36976428D02*
X120139429Y-36976428D01*
X120139429Y-36976428D02*
X119996571Y-36905000D01*
X121568000Y-36976428D02*
X121425143Y-36905000D01*
X121425143Y-36905000D02*
X121353714Y-36833571D01*
X121353714Y-36833571D02*
X121282286Y-36690714D01*
X121282286Y-36690714D02*
X121282286Y-36262142D01*
X121282286Y-36262142D02*
X121353714Y-36119285D01*
X121353714Y-36119285D02*
X121425143Y-36047857D01*
X121425143Y-36047857D02*
X121568000Y-35976428D01*
X121568000Y-35976428D02*
X121782286Y-35976428D01*
X121782286Y-35976428D02*
X121925143Y-36047857D01*
X121925143Y-36047857D02*
X121996572Y-36119285D01*
X121996572Y-36119285D02*
X122068000Y-36262142D01*
X122068000Y-36262142D02*
X122068000Y-36690714D01*
X122068000Y-36690714D02*
X121996572Y-36833571D01*
X121996572Y-36833571D02*
X121925143Y-36905000D01*
X121925143Y-36905000D02*
X121782286Y-36976428D01*
X121782286Y-36976428D02*
X121568000Y-36976428D01*
X122710857Y-36976428D02*
X122710857Y-35976428D01*
X122710857Y-36262142D02*
X122782286Y-36119285D01*
X122782286Y-36119285D02*
X122853715Y-36047857D01*
X122853715Y-36047857D02*
X122996572Y-35976428D01*
X122996572Y-35976428D02*
X123139429Y-35976428D01*
X123425143Y-35976428D02*
X123996571Y-35976428D01*
X123639428Y-35476428D02*
X123639428Y-36762142D01*
X123639428Y-36762142D02*
X123710857Y-36905000D01*
X123710857Y-36905000D02*
X123853714Y-36976428D01*
X123853714Y-36976428D02*
X123996571Y-36976428D01*
X124353714Y-35976428D02*
X124710857Y-36976428D01*
X125068000Y-35976428D02*
X124710857Y-36976428D01*
X124710857Y-36976428D02*
X124568000Y-37333571D01*
X124568000Y-37333571D02*
X124496571Y-37405000D01*
X124496571Y-37405000D02*
X124353714Y-37476428D01*
X103353713Y-39406428D02*
X103353713Y-37906428D01*
X103353713Y-37906428D02*
X103853713Y-38977857D01*
X103853713Y-38977857D02*
X104353713Y-37906428D01*
X104353713Y-37906428D02*
X104353713Y-39406428D01*
X105710857Y-38406428D02*
X105710857Y-39406428D01*
X105067999Y-38406428D02*
X105067999Y-39192142D01*
X105067999Y-39192142D02*
X105139428Y-39335000D01*
X105139428Y-39335000D02*
X105282285Y-39406428D01*
X105282285Y-39406428D02*
X105496571Y-39406428D01*
X105496571Y-39406428D02*
X105639428Y-39335000D01*
X105639428Y-39335000D02*
X105710857Y-39263571D01*
X106425142Y-39406428D02*
X106425142Y-37906428D01*
X106568000Y-38835000D02*
X106996571Y-39406428D01*
X106996571Y-38406428D02*
X106425142Y-38977857D01*
X108282286Y-38406428D02*
X108282286Y-39406428D01*
X107639428Y-38406428D02*
X107639428Y-39192142D01*
X107639428Y-39192142D02*
X107710857Y-39335000D01*
X107710857Y-39335000D02*
X107853714Y-39406428D01*
X107853714Y-39406428D02*
X108068000Y-39406428D01*
X108068000Y-39406428D02*
X108210857Y-39335000D01*
X108210857Y-39335000D02*
X108282286Y-39263571D01*
X108782286Y-38406428D02*
X109353714Y-38406428D01*
X108996571Y-37906428D02*
X108996571Y-39192142D01*
X108996571Y-39192142D02*
X109068000Y-39335000D01*
X109068000Y-39335000D02*
X109210857Y-39406428D01*
X109210857Y-39406428D02*
X109353714Y-39406428D01*
X110996571Y-39406428D02*
X110996571Y-37906428D01*
X110996571Y-37906428D02*
X111353714Y-37906428D01*
X111353714Y-37906428D02*
X111568000Y-37977857D01*
X111568000Y-37977857D02*
X111710857Y-38120714D01*
X111710857Y-38120714D02*
X111782286Y-38263571D01*
X111782286Y-38263571D02*
X111853714Y-38549285D01*
X111853714Y-38549285D02*
X111853714Y-38763571D01*
X111853714Y-38763571D02*
X111782286Y-39049285D01*
X111782286Y-39049285D02*
X111710857Y-39192142D01*
X111710857Y-39192142D02*
X111568000Y-39335000D01*
X111568000Y-39335000D02*
X111353714Y-39406428D01*
X111353714Y-39406428D02*
X110996571Y-39406428D01*
X113068000Y-39335000D02*
X112925143Y-39406428D01*
X112925143Y-39406428D02*
X112639429Y-39406428D01*
X112639429Y-39406428D02*
X112496571Y-39335000D01*
X112496571Y-39335000D02*
X112425143Y-39192142D01*
X112425143Y-39192142D02*
X112425143Y-38620714D01*
X112425143Y-38620714D02*
X112496571Y-38477857D01*
X112496571Y-38477857D02*
X112639429Y-38406428D01*
X112639429Y-38406428D02*
X112925143Y-38406428D01*
X112925143Y-38406428D02*
X113068000Y-38477857D01*
X113068000Y-38477857D02*
X113139429Y-38620714D01*
X113139429Y-38620714D02*
X113139429Y-38763571D01*
X113139429Y-38763571D02*
X112425143Y-38906428D01*
X113782285Y-39406428D02*
X113782285Y-37906428D01*
X113782285Y-38477857D02*
X113925143Y-38406428D01*
X113925143Y-38406428D02*
X114210857Y-38406428D01*
X114210857Y-38406428D02*
X114353714Y-38477857D01*
X114353714Y-38477857D02*
X114425143Y-38549285D01*
X114425143Y-38549285D02*
X114496571Y-38692142D01*
X114496571Y-38692142D02*
X114496571Y-39120714D01*
X114496571Y-39120714D02*
X114425143Y-39263571D01*
X114425143Y-39263571D02*
X114353714Y-39335000D01*
X114353714Y-39335000D02*
X114210857Y-39406428D01*
X114210857Y-39406428D02*
X113925143Y-39406428D01*
X113925143Y-39406428D02*
X113782285Y-39335000D01*
X115139428Y-38406428D02*
X115139428Y-39406428D01*
X115139428Y-38549285D02*
X115210857Y-38477857D01*
X115210857Y-38477857D02*
X115353714Y-38406428D01*
X115353714Y-38406428D02*
X115568000Y-38406428D01*
X115568000Y-38406428D02*
X115710857Y-38477857D01*
X115710857Y-38477857D02*
X115782286Y-38620714D01*
X115782286Y-38620714D02*
X115782286Y-39406428D01*
X117139429Y-39406428D02*
X117139429Y-38620714D01*
X117139429Y-38620714D02*
X117068000Y-38477857D01*
X117068000Y-38477857D02*
X116925143Y-38406428D01*
X116925143Y-38406428D02*
X116639429Y-38406428D01*
X116639429Y-38406428D02*
X116496571Y-38477857D01*
X117139429Y-39335000D02*
X116996571Y-39406428D01*
X116996571Y-39406428D02*
X116639429Y-39406428D01*
X116639429Y-39406428D02*
X116496571Y-39335000D01*
X116496571Y-39335000D02*
X116425143Y-39192142D01*
X116425143Y-39192142D02*
X116425143Y-39049285D01*
X116425143Y-39049285D02*
X116496571Y-38906428D01*
X116496571Y-38906428D02*
X116639429Y-38835000D01*
X116639429Y-38835000D02*
X116996571Y-38835000D01*
X116996571Y-38835000D02*
X117139429Y-38763571D01*
X117639429Y-38406428D02*
X118210857Y-38406428D01*
X117853714Y-37906428D02*
X117853714Y-39192142D01*
X117853714Y-39192142D02*
X117925143Y-39335000D01*
X117925143Y-39335000D02*
X118068000Y-39406428D01*
X118068000Y-39406428D02*
X118210857Y-39406428D01*
X118710857Y-39406428D02*
X118710857Y-37906428D01*
X119353715Y-39406428D02*
X119353715Y-38620714D01*
X119353715Y-38620714D02*
X119282286Y-38477857D01*
X119282286Y-38477857D02*
X119139429Y-38406428D01*
X119139429Y-38406428D02*
X118925143Y-38406428D01*
X118925143Y-38406428D02*
X118782286Y-38477857D01*
X118782286Y-38477857D02*
X118710857Y-38549285D01*
X103353713Y-41836428D02*
X103353713Y-40336428D01*
X103353713Y-40336428D02*
X103925142Y-40336428D01*
X103925142Y-40336428D02*
X104067999Y-40407857D01*
X104067999Y-40407857D02*
X104139428Y-40479285D01*
X104139428Y-40479285D02*
X104210856Y-40622142D01*
X104210856Y-40622142D02*
X104210856Y-40836428D01*
X104210856Y-40836428D02*
X104139428Y-40979285D01*
X104139428Y-40979285D02*
X104067999Y-41050714D01*
X104067999Y-41050714D02*
X103925142Y-41122142D01*
X103925142Y-41122142D02*
X103353713Y-41122142D01*
X105496571Y-41836428D02*
X105496571Y-41050714D01*
X105496571Y-41050714D02*
X105425142Y-40907857D01*
X105425142Y-40907857D02*
X105282285Y-40836428D01*
X105282285Y-40836428D02*
X104996571Y-40836428D01*
X104996571Y-40836428D02*
X104853713Y-40907857D01*
X105496571Y-41765000D02*
X105353713Y-41836428D01*
X105353713Y-41836428D02*
X104996571Y-41836428D01*
X104996571Y-41836428D02*
X104853713Y-41765000D01*
X104853713Y-41765000D02*
X104782285Y-41622142D01*
X104782285Y-41622142D02*
X104782285Y-41479285D01*
X104782285Y-41479285D02*
X104853713Y-41336428D01*
X104853713Y-41336428D02*
X104996571Y-41265000D01*
X104996571Y-41265000D02*
X105353713Y-41265000D01*
X105353713Y-41265000D02*
X105496571Y-41193571D01*
X106210856Y-40836428D02*
X106210856Y-41836428D01*
X106210856Y-40979285D02*
X106282285Y-40907857D01*
X106282285Y-40907857D02*
X106425142Y-40836428D01*
X106425142Y-40836428D02*
X106639428Y-40836428D01*
X106639428Y-40836428D02*
X106782285Y-40907857D01*
X106782285Y-40907857D02*
X106853714Y-41050714D01*
X106853714Y-41050714D02*
X106853714Y-41836428D01*
X107353714Y-40836428D02*
X107925142Y-40836428D01*
X107567999Y-40336428D02*
X107567999Y-41622142D01*
X107567999Y-41622142D02*
X107639428Y-41765000D01*
X107639428Y-41765000D02*
X107782285Y-41836428D01*
X107782285Y-41836428D02*
X107925142Y-41836428D01*
X108425142Y-41836428D02*
X108425142Y-40336428D01*
X109068000Y-41836428D02*
X109068000Y-41050714D01*
X109068000Y-41050714D02*
X108996571Y-40907857D01*
X108996571Y-40907857D02*
X108853714Y-40836428D01*
X108853714Y-40836428D02*
X108639428Y-40836428D01*
X108639428Y-40836428D02*
X108496571Y-40907857D01*
X108496571Y-40907857D02*
X108425142Y-40979285D01*
X110425143Y-41836428D02*
X110425143Y-41050714D01*
X110425143Y-41050714D02*
X110353714Y-40907857D01*
X110353714Y-40907857D02*
X110210857Y-40836428D01*
X110210857Y-40836428D02*
X109925143Y-40836428D01*
X109925143Y-40836428D02*
X109782285Y-40907857D01*
X110425143Y-41765000D02*
X110282285Y-41836428D01*
X110282285Y-41836428D02*
X109925143Y-41836428D01*
X109925143Y-41836428D02*
X109782285Y-41765000D01*
X109782285Y-41765000D02*
X109710857Y-41622142D01*
X109710857Y-41622142D02*
X109710857Y-41479285D01*
X109710857Y-41479285D02*
X109782285Y-41336428D01*
X109782285Y-41336428D02*
X109925143Y-41265000D01*
X109925143Y-41265000D02*
X110282285Y-41265000D01*
X110282285Y-41265000D02*
X110425143Y-41193571D01*
X111782286Y-41836428D02*
X111782286Y-40336428D01*
X111782286Y-41765000D02*
X111639428Y-41836428D01*
X111639428Y-41836428D02*
X111353714Y-41836428D01*
X111353714Y-41836428D02*
X111210857Y-41765000D01*
X111210857Y-41765000D02*
X111139428Y-41693571D01*
X111139428Y-41693571D02*
X111068000Y-41550714D01*
X111068000Y-41550714D02*
X111068000Y-41122142D01*
X111068000Y-41122142D02*
X111139428Y-40979285D01*
X111139428Y-40979285D02*
X111210857Y-40907857D01*
X111210857Y-40907857D02*
X111353714Y-40836428D01*
X111353714Y-40836428D02*
X111639428Y-40836428D01*
X111639428Y-40836428D02*
X111782286Y-40907857D01*
X112496571Y-41836428D02*
X112496571Y-40836428D01*
X112496571Y-40336428D02*
X112425143Y-40407857D01*
X112425143Y-40407857D02*
X112496571Y-40479285D01*
X112496571Y-40479285D02*
X112568000Y-40407857D01*
X112568000Y-40407857D02*
X112496571Y-40336428D01*
X112496571Y-40336428D02*
X112496571Y-40479285D01*
X113210857Y-40836428D02*
X113210857Y-42336428D01*
X113210857Y-40907857D02*
X113353715Y-40836428D01*
X113353715Y-40836428D02*
X113639429Y-40836428D01*
X113639429Y-40836428D02*
X113782286Y-40907857D01*
X113782286Y-40907857D02*
X113853715Y-40979285D01*
X113853715Y-40979285D02*
X113925143Y-41122142D01*
X113925143Y-41122142D02*
X113925143Y-41550714D01*
X113925143Y-41550714D02*
X113853715Y-41693571D01*
X113853715Y-41693571D02*
X113782286Y-41765000D01*
X113782286Y-41765000D02*
X113639429Y-41836428D01*
X113639429Y-41836428D02*
X113353715Y-41836428D01*
X113353715Y-41836428D02*
X113210857Y-41765000D01*
X115710857Y-41836428D02*
X115710857Y-40336428D01*
X115710857Y-40336428D02*
X116210857Y-41407857D01*
X116210857Y-41407857D02*
X116710857Y-40336428D01*
X116710857Y-40336428D02*
X116710857Y-41836428D01*
X118068001Y-41836428D02*
X118068001Y-41050714D01*
X118068001Y-41050714D02*
X117996572Y-40907857D01*
X117996572Y-40907857D02*
X117853715Y-40836428D01*
X117853715Y-40836428D02*
X117568001Y-40836428D01*
X117568001Y-40836428D02*
X117425143Y-40907857D01*
X118068001Y-41765000D02*
X117925143Y-41836428D01*
X117925143Y-41836428D02*
X117568001Y-41836428D01*
X117568001Y-41836428D02*
X117425143Y-41765000D01*
X117425143Y-41765000D02*
X117353715Y-41622142D01*
X117353715Y-41622142D02*
X117353715Y-41479285D01*
X117353715Y-41479285D02*
X117425143Y-41336428D01*
X117425143Y-41336428D02*
X117568001Y-41265000D01*
X117568001Y-41265000D02*
X117925143Y-41265000D01*
X117925143Y-41265000D02*
X118068001Y-41193571D01*
X118782286Y-40836428D02*
X118782286Y-42122142D01*
X118782286Y-42122142D02*
X118710858Y-42265000D01*
X118710858Y-42265000D02*
X118568001Y-42336428D01*
X118568001Y-42336428D02*
X118496572Y-42336428D01*
X118782286Y-40336428D02*
X118710858Y-40407857D01*
X118710858Y-40407857D02*
X118782286Y-40479285D01*
X118782286Y-40479285D02*
X118853715Y-40407857D01*
X118853715Y-40407857D02*
X118782286Y-40336428D01*
X118782286Y-40336428D02*
X118782286Y-40479285D01*
X119496572Y-41836428D02*
X119496572Y-40836428D01*
X119496572Y-40336428D02*
X119425144Y-40407857D01*
X119425144Y-40407857D02*
X119496572Y-40479285D01*
X119496572Y-40479285D02*
X119568001Y-40407857D01*
X119568001Y-40407857D02*
X119496572Y-40336428D01*
X119496572Y-40336428D02*
X119496572Y-40479285D01*
X99925142Y-44266428D02*
X99925142Y-42766428D01*
X100568000Y-44195000D02*
X100782286Y-44266428D01*
X100782286Y-44266428D02*
X101139428Y-44266428D01*
X101139428Y-44266428D02*
X101282286Y-44195000D01*
X101282286Y-44195000D02*
X101353714Y-44123571D01*
X101353714Y-44123571D02*
X101425143Y-43980714D01*
X101425143Y-43980714D02*
X101425143Y-43837857D01*
X101425143Y-43837857D02*
X101353714Y-43695000D01*
X101353714Y-43695000D02*
X101282286Y-43623571D01*
X101282286Y-43623571D02*
X101139428Y-43552142D01*
X101139428Y-43552142D02*
X100853714Y-43480714D01*
X100853714Y-43480714D02*
X100710857Y-43409285D01*
X100710857Y-43409285D02*
X100639428Y-43337857D01*
X100639428Y-43337857D02*
X100568000Y-43195000D01*
X100568000Y-43195000D02*
X100568000Y-43052142D01*
X100568000Y-43052142D02*
X100639428Y-42909285D01*
X100639428Y-42909285D02*
X100710857Y-42837857D01*
X100710857Y-42837857D02*
X100853714Y-42766428D01*
X100853714Y-42766428D02*
X101210857Y-42766428D01*
X101210857Y-42766428D02*
X101425143Y-42837857D01*
X102067999Y-44266428D02*
X102067999Y-42766428D01*
X102067999Y-42766428D02*
X102425142Y-42766428D01*
X102425142Y-42766428D02*
X102639428Y-42837857D01*
X102639428Y-42837857D02*
X102782285Y-42980714D01*
X102782285Y-42980714D02*
X102853714Y-43123571D01*
X102853714Y-43123571D02*
X102925142Y-43409285D01*
X102925142Y-43409285D02*
X102925142Y-43623571D01*
X102925142Y-43623571D02*
X102853714Y-43909285D01*
X102853714Y-43909285D02*
X102782285Y-44052142D01*
X102782285Y-44052142D02*
X102639428Y-44195000D01*
X102639428Y-44195000D02*
X102425142Y-44266428D01*
X102425142Y-44266428D02*
X102067999Y-44266428D01*
X105425142Y-44266428D02*
X104710856Y-44266428D01*
X104710856Y-44266428D02*
X104710856Y-42766428D01*
X106568000Y-44266428D02*
X106568000Y-43480714D01*
X106568000Y-43480714D02*
X106496571Y-43337857D01*
X106496571Y-43337857D02*
X106353714Y-43266428D01*
X106353714Y-43266428D02*
X106068000Y-43266428D01*
X106068000Y-43266428D02*
X105925142Y-43337857D01*
X106568000Y-44195000D02*
X106425142Y-44266428D01*
X106425142Y-44266428D02*
X106068000Y-44266428D01*
X106068000Y-44266428D02*
X105925142Y-44195000D01*
X105925142Y-44195000D02*
X105853714Y-44052142D01*
X105853714Y-44052142D02*
X105853714Y-43909285D01*
X105853714Y-43909285D02*
X105925142Y-43766428D01*
X105925142Y-43766428D02*
X106068000Y-43695000D01*
X106068000Y-43695000D02*
X106425142Y-43695000D01*
X106425142Y-43695000D02*
X106568000Y-43623571D01*
X107282285Y-44266428D02*
X107282285Y-42766428D01*
X107282285Y-43337857D02*
X107425143Y-43266428D01*
X107425143Y-43266428D02*
X107710857Y-43266428D01*
X107710857Y-43266428D02*
X107853714Y-43337857D01*
X107853714Y-43337857D02*
X107925143Y-43409285D01*
X107925143Y-43409285D02*
X107996571Y-43552142D01*
X107996571Y-43552142D02*
X107996571Y-43980714D01*
X107996571Y-43980714D02*
X107925143Y-44123571D01*
X107925143Y-44123571D02*
X107853714Y-44195000D01*
X107853714Y-44195000D02*
X107710857Y-44266428D01*
X107710857Y-44266428D02*
X107425143Y-44266428D01*
X107425143Y-44266428D02*
X107282285Y-44195000D01*
X109782285Y-43695000D02*
X110925143Y-43695000D01*
X113568000Y-42837857D02*
X113425143Y-42766428D01*
X113425143Y-42766428D02*
X113210857Y-42766428D01*
X113210857Y-42766428D02*
X112996571Y-42837857D01*
X112996571Y-42837857D02*
X112853714Y-42980714D01*
X112853714Y-42980714D02*
X112782285Y-43123571D01*
X112782285Y-43123571D02*
X112710857Y-43409285D01*
X112710857Y-43409285D02*
X112710857Y-43623571D01*
X112710857Y-43623571D02*
X112782285Y-43909285D01*
X112782285Y-43909285D02*
X112853714Y-44052142D01*
X112853714Y-44052142D02*
X112996571Y-44195000D01*
X112996571Y-44195000D02*
X113210857Y-44266428D01*
X113210857Y-44266428D02*
X113353714Y-44266428D01*
X113353714Y-44266428D02*
X113568000Y-44195000D01*
X113568000Y-44195000D02*
X113639428Y-44123571D01*
X113639428Y-44123571D02*
X113639428Y-43623571D01*
X113639428Y-43623571D02*
X113353714Y-43623571D01*
X114282285Y-44266428D02*
X114282285Y-43266428D01*
X114282285Y-43552142D02*
X114353714Y-43409285D01*
X114353714Y-43409285D02*
X114425143Y-43337857D01*
X114425143Y-43337857D02*
X114568000Y-43266428D01*
X114568000Y-43266428D02*
X114710857Y-43266428D01*
X115425142Y-44266428D02*
X115282285Y-44195000D01*
X115282285Y-44195000D02*
X115210856Y-44123571D01*
X115210856Y-44123571D02*
X115139428Y-43980714D01*
X115139428Y-43980714D02*
X115139428Y-43552142D01*
X115139428Y-43552142D02*
X115210856Y-43409285D01*
X115210856Y-43409285D02*
X115282285Y-43337857D01*
X115282285Y-43337857D02*
X115425142Y-43266428D01*
X115425142Y-43266428D02*
X115639428Y-43266428D01*
X115639428Y-43266428D02*
X115782285Y-43337857D01*
X115782285Y-43337857D02*
X115853714Y-43409285D01*
X115853714Y-43409285D02*
X115925142Y-43552142D01*
X115925142Y-43552142D02*
X115925142Y-43980714D01*
X115925142Y-43980714D02*
X115853714Y-44123571D01*
X115853714Y-44123571D02*
X115782285Y-44195000D01*
X115782285Y-44195000D02*
X115639428Y-44266428D01*
X115639428Y-44266428D02*
X115425142Y-44266428D01*
X117210857Y-43266428D02*
X117210857Y-44266428D01*
X116567999Y-43266428D02*
X116567999Y-44052142D01*
X116567999Y-44052142D02*
X116639428Y-44195000D01*
X116639428Y-44195000D02*
X116782285Y-44266428D01*
X116782285Y-44266428D02*
X116996571Y-44266428D01*
X116996571Y-44266428D02*
X117139428Y-44195000D01*
X117139428Y-44195000D02*
X117210857Y-44123571D01*
X117925142Y-43266428D02*
X117925142Y-44766428D01*
X117925142Y-43337857D02*
X118068000Y-43266428D01*
X118068000Y-43266428D02*
X118353714Y-43266428D01*
X118353714Y-43266428D02*
X118496571Y-43337857D01*
X118496571Y-43337857D02*
X118568000Y-43409285D01*
X118568000Y-43409285D02*
X118639428Y-43552142D01*
X118639428Y-43552142D02*
X118639428Y-43980714D01*
X118639428Y-43980714D02*
X118568000Y-44123571D01*
X118568000Y-44123571D02*
X118496571Y-44195000D01*
X118496571Y-44195000D02*
X118353714Y-44266428D01*
X118353714Y-44266428D02*
X118068000Y-44266428D01*
X118068000Y-44266428D02*
X117925142Y-44195000D01*
X121210857Y-44266428D02*
X120353714Y-44266428D01*
X120782285Y-44266428D02*
X120782285Y-42766428D01*
X120782285Y-42766428D02*
X120639428Y-42980714D01*
X120639428Y-42980714D02*
X120496571Y-43123571D01*
X120496571Y-43123571D02*
X120353714Y-43195000D01*
X121925142Y-44195000D02*
X121925142Y-44266428D01*
X121925142Y-44266428D02*
X121853713Y-44409285D01*
X121853713Y-44409285D02*
X121782285Y-44480714D01*
X123639428Y-42909285D02*
X123710856Y-42837857D01*
X123710856Y-42837857D02*
X123853714Y-42766428D01*
X123853714Y-42766428D02*
X124210856Y-42766428D01*
X124210856Y-42766428D02*
X124353714Y-42837857D01*
X124353714Y-42837857D02*
X124425142Y-42909285D01*
X124425142Y-42909285D02*
X124496571Y-43052142D01*
X124496571Y-43052142D02*
X124496571Y-43195000D01*
X124496571Y-43195000D02*
X124425142Y-43409285D01*
X124425142Y-43409285D02*
X123567999Y-44266428D01*
X123567999Y-44266428D02*
X124496571Y-44266428D01*
X125425142Y-42766428D02*
X125567999Y-42766428D01*
X125567999Y-42766428D02*
X125710856Y-42837857D01*
X125710856Y-42837857D02*
X125782285Y-42909285D01*
X125782285Y-42909285D02*
X125853713Y-43052142D01*
X125853713Y-43052142D02*
X125925142Y-43337857D01*
X125925142Y-43337857D02*
X125925142Y-43695000D01*
X125925142Y-43695000D02*
X125853713Y-43980714D01*
X125853713Y-43980714D02*
X125782285Y-44123571D01*
X125782285Y-44123571D02*
X125710856Y-44195000D01*
X125710856Y-44195000D02*
X125567999Y-44266428D01*
X125567999Y-44266428D02*
X125425142Y-44266428D01*
X125425142Y-44266428D02*
X125282285Y-44195000D01*
X125282285Y-44195000D02*
X125210856Y-44123571D01*
X125210856Y-44123571D02*
X125139427Y-43980714D01*
X125139427Y-43980714D02*
X125067999Y-43695000D01*
X125067999Y-43695000D02*
X125067999Y-43337857D01*
X125067999Y-43337857D02*
X125139427Y-43052142D01*
X125139427Y-43052142D02*
X125210856Y-42909285D01*
X125210856Y-42909285D02*
X125282285Y-42837857D01*
X125282285Y-42837857D02*
X125425142Y-42766428D01*
X126496570Y-42909285D02*
X126567998Y-42837857D01*
X126567998Y-42837857D02*
X126710856Y-42766428D01*
X126710856Y-42766428D02*
X127067998Y-42766428D01*
X127067998Y-42766428D02*
X127210856Y-42837857D01*
X127210856Y-42837857D02*
X127282284Y-42909285D01*
X127282284Y-42909285D02*
X127353713Y-43052142D01*
X127353713Y-43052142D02*
X127353713Y-43195000D01*
X127353713Y-43195000D02*
X127282284Y-43409285D01*
X127282284Y-43409285D02*
X126425141Y-44266428D01*
X126425141Y-44266428D02*
X127353713Y-44266428D01*
X128639427Y-43266428D02*
X128639427Y-44266428D01*
X128282284Y-42695000D02*
X127925141Y-43766428D01*
X127925141Y-43766428D02*
X128853712Y-43766428D01*
D11*
X92094000Y-46294000D02*
X142094000Y-46294000D01*
X142094000Y-66294000D01*
X92094000Y-66294000D01*
X92094000Y-46294000D01*
%TO.C,*%
%TO.C,HOLD_HDR1*%
X82237619Y-97618237D02*
X81237619Y-97618237D01*
X81713809Y-97618237D02*
X81713809Y-97046809D01*
X82237619Y-97046809D02*
X81237619Y-97046809D01*
X81237619Y-96380142D02*
X81237619Y-96189666D01*
X81237619Y-96189666D02*
X81285238Y-96094428D01*
X81285238Y-96094428D02*
X81380476Y-95999190D01*
X81380476Y-95999190D02*
X81570952Y-95951571D01*
X81570952Y-95951571D02*
X81904285Y-95951571D01*
X81904285Y-95951571D02*
X82094761Y-95999190D01*
X82094761Y-95999190D02*
X82190000Y-96094428D01*
X82190000Y-96094428D02*
X82237619Y-96189666D01*
X82237619Y-96189666D02*
X82237619Y-96380142D01*
X82237619Y-96380142D02*
X82190000Y-96475380D01*
X82190000Y-96475380D02*
X82094761Y-96570618D01*
X82094761Y-96570618D02*
X81904285Y-96618237D01*
X81904285Y-96618237D02*
X81570952Y-96618237D01*
X81570952Y-96618237D02*
X81380476Y-96570618D01*
X81380476Y-96570618D02*
X81285238Y-96475380D01*
X81285238Y-96475380D02*
X81237619Y-96380142D01*
X82237619Y-95046809D02*
X82237619Y-95522999D01*
X82237619Y-95522999D02*
X81237619Y-95522999D01*
X82237619Y-94713475D02*
X81237619Y-94713475D01*
X81237619Y-94713475D02*
X81237619Y-94475380D01*
X81237619Y-94475380D02*
X81285238Y-94332523D01*
X81285238Y-94332523D02*
X81380476Y-94237285D01*
X81380476Y-94237285D02*
X81475714Y-94189666D01*
X81475714Y-94189666D02*
X81666190Y-94142047D01*
X81666190Y-94142047D02*
X81809047Y-94142047D01*
X81809047Y-94142047D02*
X81999523Y-94189666D01*
X81999523Y-94189666D02*
X82094761Y-94237285D01*
X82094761Y-94237285D02*
X82190000Y-94332523D01*
X82190000Y-94332523D02*
X82237619Y-94475380D01*
X82237619Y-94475380D02*
X82237619Y-94713475D01*
X82332857Y-93951571D02*
X82332857Y-93189666D01*
X82237619Y-92951570D02*
X81237619Y-92951570D01*
X81713809Y-92951570D02*
X81713809Y-92380142D01*
X82237619Y-92380142D02*
X81237619Y-92380142D01*
X82237619Y-91903951D02*
X81237619Y-91903951D01*
X81237619Y-91903951D02*
X81237619Y-91665856D01*
X81237619Y-91665856D02*
X81285238Y-91522999D01*
X81285238Y-91522999D02*
X81380476Y-91427761D01*
X81380476Y-91427761D02*
X81475714Y-91380142D01*
X81475714Y-91380142D02*
X81666190Y-91332523D01*
X81666190Y-91332523D02*
X81809047Y-91332523D01*
X81809047Y-91332523D02*
X81999523Y-91380142D01*
X81999523Y-91380142D02*
X82094761Y-91427761D01*
X82094761Y-91427761D02*
X82190000Y-91522999D01*
X82190000Y-91522999D02*
X82237619Y-91665856D01*
X82237619Y-91665856D02*
X82237619Y-91903951D01*
X82237619Y-90332523D02*
X81761428Y-90665856D01*
X82237619Y-90903951D02*
X81237619Y-90903951D01*
X81237619Y-90903951D02*
X81237619Y-90522999D01*
X81237619Y-90522999D02*
X81285238Y-90427761D01*
X81285238Y-90427761D02*
X81332857Y-90380142D01*
X81332857Y-90380142D02*
X81428095Y-90332523D01*
X81428095Y-90332523D02*
X81570952Y-90332523D01*
X81570952Y-90332523D02*
X81666190Y-90380142D01*
X81666190Y-90380142D02*
X81713809Y-90427761D01*
X81713809Y-90427761D02*
X81761428Y-90522999D01*
X81761428Y-90522999D02*
X81761428Y-90903951D01*
X82237619Y-89380142D02*
X82237619Y-89951570D01*
X82237619Y-89665856D02*
X81237619Y-89665856D01*
X81237619Y-89665856D02*
X81380476Y-89761094D01*
X81380476Y-89761094D02*
X81475714Y-89856332D01*
X81475714Y-89856332D02*
X81523333Y-89951570D01*
%TO.C,R3*%
X112101333Y-76408619D02*
X111768000Y-75932428D01*
X111529905Y-76408619D02*
X111529905Y-75408619D01*
X111529905Y-75408619D02*
X111910857Y-75408619D01*
X111910857Y-75408619D02*
X112006095Y-75456238D01*
X112006095Y-75456238D02*
X112053714Y-75503857D01*
X112053714Y-75503857D02*
X112101333Y-75599095D01*
X112101333Y-75599095D02*
X112101333Y-75741952D01*
X112101333Y-75741952D02*
X112053714Y-75837190D01*
X112053714Y-75837190D02*
X112006095Y-75884809D01*
X112006095Y-75884809D02*
X111910857Y-75932428D01*
X111910857Y-75932428D02*
X111529905Y-75932428D01*
X112434667Y-75408619D02*
X113053714Y-75408619D01*
X113053714Y-75408619D02*
X112720381Y-75789571D01*
X112720381Y-75789571D02*
X112863238Y-75789571D01*
X112863238Y-75789571D02*
X112958476Y-75837190D01*
X112958476Y-75837190D02*
X113006095Y-75884809D01*
X113006095Y-75884809D02*
X113053714Y-75980047D01*
X113053714Y-75980047D02*
X113053714Y-76218142D01*
X113053714Y-76218142D02*
X113006095Y-76313380D01*
X113006095Y-76313380D02*
X112958476Y-76361000D01*
X112958476Y-76361000D02*
X112863238Y-76408619D01*
X112863238Y-76408619D02*
X112577524Y-76408619D01*
X112577524Y-76408619D02*
X112482286Y-76361000D01*
X112482286Y-76361000D02*
X112434667Y-76313380D01*
%TO.C,R10*%
X126492619Y-129688857D02*
X126016428Y-130022190D01*
X126492619Y-130260285D02*
X125492619Y-130260285D01*
X125492619Y-130260285D02*
X125492619Y-129879333D01*
X125492619Y-129879333D02*
X125540238Y-129784095D01*
X125540238Y-129784095D02*
X125587857Y-129736476D01*
X125587857Y-129736476D02*
X125683095Y-129688857D01*
X125683095Y-129688857D02*
X125825952Y-129688857D01*
X125825952Y-129688857D02*
X125921190Y-129736476D01*
X125921190Y-129736476D02*
X125968809Y-129784095D01*
X125968809Y-129784095D02*
X126016428Y-129879333D01*
X126016428Y-129879333D02*
X126016428Y-130260285D01*
X126492619Y-128736476D02*
X126492619Y-129307904D01*
X126492619Y-129022190D02*
X125492619Y-129022190D01*
X125492619Y-129022190D02*
X125635476Y-129117428D01*
X125635476Y-129117428D02*
X125730714Y-129212666D01*
X125730714Y-129212666D02*
X125778333Y-129307904D01*
X125492619Y-128117428D02*
X125492619Y-128022190D01*
X125492619Y-128022190D02*
X125540238Y-127926952D01*
X125540238Y-127926952D02*
X125587857Y-127879333D01*
X125587857Y-127879333D02*
X125683095Y-127831714D01*
X125683095Y-127831714D02*
X125873571Y-127784095D01*
X125873571Y-127784095D02*
X126111666Y-127784095D01*
X126111666Y-127784095D02*
X126302142Y-127831714D01*
X126302142Y-127831714D02*
X126397380Y-127879333D01*
X126397380Y-127879333D02*
X126445000Y-127926952D01*
X126445000Y-127926952D02*
X126492619Y-128022190D01*
X126492619Y-128022190D02*
X126492619Y-128117428D01*
X126492619Y-128117428D02*
X126445000Y-128212666D01*
X126445000Y-128212666D02*
X126397380Y-128260285D01*
X126397380Y-128260285D02*
X126302142Y-128307904D01*
X126302142Y-128307904D02*
X126111666Y-128355523D01*
X126111666Y-128355523D02*
X125873571Y-128355523D01*
X125873571Y-128355523D02*
X125683095Y-128307904D01*
X125683095Y-128307904D02*
X125587857Y-128260285D01*
X125587857Y-128260285D02*
X125540238Y-128212666D01*
X125540238Y-128212666D02*
X125492619Y-128117428D01*
%TO.C,SW3_HDR1*%
X82190000Y-142237285D02*
X82237619Y-142094428D01*
X82237619Y-142094428D02*
X82237619Y-141856333D01*
X82237619Y-141856333D02*
X82190000Y-141761095D01*
X82190000Y-141761095D02*
X82142380Y-141713476D01*
X82142380Y-141713476D02*
X82047142Y-141665857D01*
X82047142Y-141665857D02*
X81951904Y-141665857D01*
X81951904Y-141665857D02*
X81856666Y-141713476D01*
X81856666Y-141713476D02*
X81809047Y-141761095D01*
X81809047Y-141761095D02*
X81761428Y-141856333D01*
X81761428Y-141856333D02*
X81713809Y-142046809D01*
X81713809Y-142046809D02*
X81666190Y-142142047D01*
X81666190Y-142142047D02*
X81618571Y-142189666D01*
X81618571Y-142189666D02*
X81523333Y-142237285D01*
X81523333Y-142237285D02*
X81428095Y-142237285D01*
X81428095Y-142237285D02*
X81332857Y-142189666D01*
X81332857Y-142189666D02*
X81285238Y-142142047D01*
X81285238Y-142142047D02*
X81237619Y-142046809D01*
X81237619Y-142046809D02*
X81237619Y-141808714D01*
X81237619Y-141808714D02*
X81285238Y-141665857D01*
X81237619Y-141332523D02*
X82237619Y-141094428D01*
X82237619Y-141094428D02*
X81523333Y-140903952D01*
X81523333Y-140903952D02*
X82237619Y-140713476D01*
X82237619Y-140713476D02*
X81237619Y-140475381D01*
X81237619Y-140189666D02*
X81237619Y-139570619D01*
X81237619Y-139570619D02*
X81618571Y-139903952D01*
X81618571Y-139903952D02*
X81618571Y-139761095D01*
X81618571Y-139761095D02*
X81666190Y-139665857D01*
X81666190Y-139665857D02*
X81713809Y-139618238D01*
X81713809Y-139618238D02*
X81809047Y-139570619D01*
X81809047Y-139570619D02*
X82047142Y-139570619D01*
X82047142Y-139570619D02*
X82142380Y-139618238D01*
X82142380Y-139618238D02*
X82190000Y-139665857D01*
X82190000Y-139665857D02*
X82237619Y-139761095D01*
X82237619Y-139761095D02*
X82237619Y-140046809D01*
X82237619Y-140046809D02*
X82190000Y-140142047D01*
X82190000Y-140142047D02*
X82142380Y-140189666D01*
X82332857Y-139380143D02*
X82332857Y-138618238D01*
X82237619Y-138380142D02*
X81237619Y-138380142D01*
X81713809Y-138380142D02*
X81713809Y-137808714D01*
X82237619Y-137808714D02*
X81237619Y-137808714D01*
X82237619Y-137332523D02*
X81237619Y-137332523D01*
X81237619Y-137332523D02*
X81237619Y-137094428D01*
X81237619Y-137094428D02*
X81285238Y-136951571D01*
X81285238Y-136951571D02*
X81380476Y-136856333D01*
X81380476Y-136856333D02*
X81475714Y-136808714D01*
X81475714Y-136808714D02*
X81666190Y-136761095D01*
X81666190Y-136761095D02*
X81809047Y-136761095D01*
X81809047Y-136761095D02*
X81999523Y-136808714D01*
X81999523Y-136808714D02*
X82094761Y-136856333D01*
X82094761Y-136856333D02*
X82190000Y-136951571D01*
X82190000Y-136951571D02*
X82237619Y-137094428D01*
X82237619Y-137094428D02*
X82237619Y-137332523D01*
X82237619Y-135761095D02*
X81761428Y-136094428D01*
X82237619Y-136332523D02*
X81237619Y-136332523D01*
X81237619Y-136332523D02*
X81237619Y-135951571D01*
X81237619Y-135951571D02*
X81285238Y-135856333D01*
X81285238Y-135856333D02*
X81332857Y-135808714D01*
X81332857Y-135808714D02*
X81428095Y-135761095D01*
X81428095Y-135761095D02*
X81570952Y-135761095D01*
X81570952Y-135761095D02*
X81666190Y-135808714D01*
X81666190Y-135808714D02*
X81713809Y-135856333D01*
X81713809Y-135856333D02*
X81761428Y-135951571D01*
X81761428Y-135951571D02*
X81761428Y-136332523D01*
X82237619Y-134808714D02*
X82237619Y-135380142D01*
X82237619Y-135094428D02*
X81237619Y-135094428D01*
X81237619Y-135094428D02*
X81380476Y-135189666D01*
X81380476Y-135189666D02*
X81475714Y-135284904D01*
X81475714Y-135284904D02*
X81523333Y-135380142D01*
%TO.C,R12*%
X164432619Y-100596857D02*
X163956428Y-100930190D01*
X164432619Y-101168285D02*
X163432619Y-101168285D01*
X163432619Y-101168285D02*
X163432619Y-100787333D01*
X163432619Y-100787333D02*
X163480238Y-100692095D01*
X163480238Y-100692095D02*
X163527857Y-100644476D01*
X163527857Y-100644476D02*
X163623095Y-100596857D01*
X163623095Y-100596857D02*
X163765952Y-100596857D01*
X163765952Y-100596857D02*
X163861190Y-100644476D01*
X163861190Y-100644476D02*
X163908809Y-100692095D01*
X163908809Y-100692095D02*
X163956428Y-100787333D01*
X163956428Y-100787333D02*
X163956428Y-101168285D01*
X164432619Y-99644476D02*
X164432619Y-100215904D01*
X164432619Y-99930190D02*
X163432619Y-99930190D01*
X163432619Y-99930190D02*
X163575476Y-100025428D01*
X163575476Y-100025428D02*
X163670714Y-100120666D01*
X163670714Y-100120666D02*
X163718333Y-100215904D01*
X163527857Y-99263523D02*
X163480238Y-99215904D01*
X163480238Y-99215904D02*
X163432619Y-99120666D01*
X163432619Y-99120666D02*
X163432619Y-98882571D01*
X163432619Y-98882571D02*
X163480238Y-98787333D01*
X163480238Y-98787333D02*
X163527857Y-98739714D01*
X163527857Y-98739714D02*
X163623095Y-98692095D01*
X163623095Y-98692095D02*
X163718333Y-98692095D01*
X163718333Y-98692095D02*
X163861190Y-98739714D01*
X163861190Y-98739714D02*
X164432619Y-99311142D01*
X164432619Y-99311142D02*
X164432619Y-98692095D01*
%TO.C,PWR_HDR1*%
X82237619Y-127237285D02*
X81237619Y-127237285D01*
X81237619Y-127237285D02*
X81237619Y-126856333D01*
X81237619Y-126856333D02*
X81285238Y-126761095D01*
X81285238Y-126761095D02*
X81332857Y-126713476D01*
X81332857Y-126713476D02*
X81428095Y-126665857D01*
X81428095Y-126665857D02*
X81570952Y-126665857D01*
X81570952Y-126665857D02*
X81666190Y-126713476D01*
X81666190Y-126713476D02*
X81713809Y-126761095D01*
X81713809Y-126761095D02*
X81761428Y-126856333D01*
X81761428Y-126856333D02*
X81761428Y-127237285D01*
X81237619Y-126332523D02*
X82237619Y-126094428D01*
X82237619Y-126094428D02*
X81523333Y-125903952D01*
X81523333Y-125903952D02*
X82237619Y-125713476D01*
X82237619Y-125713476D02*
X81237619Y-125475381D01*
X82237619Y-124523000D02*
X81761428Y-124856333D01*
X82237619Y-125094428D02*
X81237619Y-125094428D01*
X81237619Y-125094428D02*
X81237619Y-124713476D01*
X81237619Y-124713476D02*
X81285238Y-124618238D01*
X81285238Y-124618238D02*
X81332857Y-124570619D01*
X81332857Y-124570619D02*
X81428095Y-124523000D01*
X81428095Y-124523000D02*
X81570952Y-124523000D01*
X81570952Y-124523000D02*
X81666190Y-124570619D01*
X81666190Y-124570619D02*
X81713809Y-124618238D01*
X81713809Y-124618238D02*
X81761428Y-124713476D01*
X81761428Y-124713476D02*
X81761428Y-125094428D01*
X82332857Y-124332524D02*
X82332857Y-123570619D01*
X82237619Y-123332523D02*
X81237619Y-123332523D01*
X81713809Y-123332523D02*
X81713809Y-122761095D01*
X82237619Y-122761095D02*
X81237619Y-122761095D01*
X82237619Y-122284904D02*
X81237619Y-122284904D01*
X81237619Y-122284904D02*
X81237619Y-122046809D01*
X81237619Y-122046809D02*
X81285238Y-121903952D01*
X81285238Y-121903952D02*
X81380476Y-121808714D01*
X81380476Y-121808714D02*
X81475714Y-121761095D01*
X81475714Y-121761095D02*
X81666190Y-121713476D01*
X81666190Y-121713476D02*
X81809047Y-121713476D01*
X81809047Y-121713476D02*
X81999523Y-121761095D01*
X81999523Y-121761095D02*
X82094761Y-121808714D01*
X82094761Y-121808714D02*
X82190000Y-121903952D01*
X82190000Y-121903952D02*
X82237619Y-122046809D01*
X82237619Y-122046809D02*
X82237619Y-122284904D01*
X82237619Y-120713476D02*
X81761428Y-121046809D01*
X82237619Y-121284904D02*
X81237619Y-121284904D01*
X81237619Y-121284904D02*
X81237619Y-120903952D01*
X81237619Y-120903952D02*
X81285238Y-120808714D01*
X81285238Y-120808714D02*
X81332857Y-120761095D01*
X81332857Y-120761095D02*
X81428095Y-120713476D01*
X81428095Y-120713476D02*
X81570952Y-120713476D01*
X81570952Y-120713476D02*
X81666190Y-120761095D01*
X81666190Y-120761095D02*
X81713809Y-120808714D01*
X81713809Y-120808714D02*
X81761428Y-120903952D01*
X81761428Y-120903952D02*
X81761428Y-121284904D01*
X82237619Y-119761095D02*
X82237619Y-120332523D01*
X82237619Y-120046809D02*
X81237619Y-120046809D01*
X81237619Y-120046809D02*
X81380476Y-120142047D01*
X81380476Y-120142047D02*
X81475714Y-120237285D01*
X81475714Y-120237285D02*
X81523333Y-120332523D01*
%TO.C,U1*%
X108053095Y-90355619D02*
X108053095Y-91165142D01*
X108053095Y-91165142D02*
X108100714Y-91260380D01*
X108100714Y-91260380D02*
X108148333Y-91308000D01*
X108148333Y-91308000D02*
X108243571Y-91355619D01*
X108243571Y-91355619D02*
X108434047Y-91355619D01*
X108434047Y-91355619D02*
X108529285Y-91308000D01*
X108529285Y-91308000D02*
X108576904Y-91260380D01*
X108576904Y-91260380D02*
X108624523Y-91165142D01*
X108624523Y-91165142D02*
X108624523Y-90355619D01*
X109624523Y-91355619D02*
X109053095Y-91355619D01*
X109338809Y-91355619D02*
X109338809Y-90355619D01*
X109338809Y-90355619D02*
X109243571Y-90498476D01*
X109243571Y-90498476D02*
X109148333Y-90593714D01*
X109148333Y-90593714D02*
X109053095Y-90641333D01*
%TO.C,R13*%
X285741142Y-68120619D02*
X285407809Y-67644428D01*
X285169714Y-68120619D02*
X285169714Y-67120619D01*
X285169714Y-67120619D02*
X285550666Y-67120619D01*
X285550666Y-67120619D02*
X285645904Y-67168238D01*
X285645904Y-67168238D02*
X285693523Y-67215857D01*
X285693523Y-67215857D02*
X285741142Y-67311095D01*
X285741142Y-67311095D02*
X285741142Y-67453952D01*
X285741142Y-67453952D02*
X285693523Y-67549190D01*
X285693523Y-67549190D02*
X285645904Y-67596809D01*
X285645904Y-67596809D02*
X285550666Y-67644428D01*
X285550666Y-67644428D02*
X285169714Y-67644428D01*
X286693523Y-68120619D02*
X286122095Y-68120619D01*
X286407809Y-68120619D02*
X286407809Y-67120619D01*
X286407809Y-67120619D02*
X286312571Y-67263476D01*
X286312571Y-67263476D02*
X286217333Y-67358714D01*
X286217333Y-67358714D02*
X286122095Y-67406333D01*
X287026857Y-67120619D02*
X287645904Y-67120619D01*
X287645904Y-67120619D02*
X287312571Y-67501571D01*
X287312571Y-67501571D02*
X287455428Y-67501571D01*
X287455428Y-67501571D02*
X287550666Y-67549190D01*
X287550666Y-67549190D02*
X287598285Y-67596809D01*
X287598285Y-67596809D02*
X287645904Y-67692047D01*
X287645904Y-67692047D02*
X287645904Y-67930142D01*
X287645904Y-67930142D02*
X287598285Y-68025380D01*
X287598285Y-68025380D02*
X287550666Y-68073000D01*
X287550666Y-68073000D02*
X287455428Y-68120619D01*
X287455428Y-68120619D02*
X287169714Y-68120619D01*
X287169714Y-68120619D02*
X287074476Y-68073000D01*
X287074476Y-68073000D02*
X287026857Y-68025380D01*
%TO.C,R5*%
X144432619Y-100120666D02*
X143956428Y-100453999D01*
X144432619Y-100692094D02*
X143432619Y-100692094D01*
X143432619Y-100692094D02*
X143432619Y-100311142D01*
X143432619Y-100311142D02*
X143480238Y-100215904D01*
X143480238Y-100215904D02*
X143527857Y-100168285D01*
X143527857Y-100168285D02*
X143623095Y-100120666D01*
X143623095Y-100120666D02*
X143765952Y-100120666D01*
X143765952Y-100120666D02*
X143861190Y-100168285D01*
X143861190Y-100168285D02*
X143908809Y-100215904D01*
X143908809Y-100215904D02*
X143956428Y-100311142D01*
X143956428Y-100311142D02*
X143956428Y-100692094D01*
X143432619Y-99215904D02*
X143432619Y-99692094D01*
X143432619Y-99692094D02*
X143908809Y-99739713D01*
X143908809Y-99739713D02*
X143861190Y-99692094D01*
X143861190Y-99692094D02*
X143813571Y-99596856D01*
X143813571Y-99596856D02*
X143813571Y-99358761D01*
X143813571Y-99358761D02*
X143861190Y-99263523D01*
X143861190Y-99263523D02*
X143908809Y-99215904D01*
X143908809Y-99215904D02*
X144004047Y-99168285D01*
X144004047Y-99168285D02*
X144242142Y-99168285D01*
X144242142Y-99168285D02*
X144337380Y-99215904D01*
X144337380Y-99215904D02*
X144385000Y-99263523D01*
X144385000Y-99263523D02*
X144432619Y-99358761D01*
X144432619Y-99358761D02*
X144432619Y-99596856D01*
X144432619Y-99596856D02*
X144385000Y-99692094D01*
X144385000Y-99692094D02*
X144337380Y-99739713D01*
%TO.C,NULL_HDR1*%
X82237619Y-112522999D02*
X81237619Y-112522999D01*
X81237619Y-112522999D02*
X82237619Y-111951571D01*
X82237619Y-111951571D02*
X81237619Y-111951571D01*
X81237619Y-111475380D02*
X82047142Y-111475380D01*
X82047142Y-111475380D02*
X82142380Y-111427761D01*
X82142380Y-111427761D02*
X82190000Y-111380142D01*
X82190000Y-111380142D02*
X82237619Y-111284904D01*
X82237619Y-111284904D02*
X82237619Y-111094428D01*
X82237619Y-111094428D02*
X82190000Y-110999190D01*
X82190000Y-110999190D02*
X82142380Y-110951571D01*
X82142380Y-110951571D02*
X82047142Y-110903952D01*
X82047142Y-110903952D02*
X81237619Y-110903952D01*
X82237619Y-109951571D02*
X82237619Y-110427761D01*
X82237619Y-110427761D02*
X81237619Y-110427761D01*
X82237619Y-109142047D02*
X82237619Y-109618237D01*
X82237619Y-109618237D02*
X81237619Y-109618237D01*
X82332857Y-109046809D02*
X82332857Y-108284904D01*
X82237619Y-108046808D02*
X81237619Y-108046808D01*
X81713809Y-108046808D02*
X81713809Y-107475380D01*
X82237619Y-107475380D02*
X81237619Y-107475380D01*
X82237619Y-106999189D02*
X81237619Y-106999189D01*
X81237619Y-106999189D02*
X81237619Y-106761094D01*
X81237619Y-106761094D02*
X81285238Y-106618237D01*
X81285238Y-106618237D02*
X81380476Y-106522999D01*
X81380476Y-106522999D02*
X81475714Y-106475380D01*
X81475714Y-106475380D02*
X81666190Y-106427761D01*
X81666190Y-106427761D02*
X81809047Y-106427761D01*
X81809047Y-106427761D02*
X81999523Y-106475380D01*
X81999523Y-106475380D02*
X82094761Y-106522999D01*
X82094761Y-106522999D02*
X82190000Y-106618237D01*
X82190000Y-106618237D02*
X82237619Y-106761094D01*
X82237619Y-106761094D02*
X82237619Y-106999189D01*
X82237619Y-105427761D02*
X81761428Y-105761094D01*
X82237619Y-105999189D02*
X81237619Y-105999189D01*
X81237619Y-105999189D02*
X81237619Y-105618237D01*
X81237619Y-105618237D02*
X81285238Y-105522999D01*
X81285238Y-105522999D02*
X81332857Y-105475380D01*
X81332857Y-105475380D02*
X81428095Y-105427761D01*
X81428095Y-105427761D02*
X81570952Y-105427761D01*
X81570952Y-105427761D02*
X81666190Y-105475380D01*
X81666190Y-105475380D02*
X81713809Y-105522999D01*
X81713809Y-105522999D02*
X81761428Y-105618237D01*
X81761428Y-105618237D02*
X81761428Y-105999189D01*
X82237619Y-104475380D02*
X82237619Y-105046808D01*
X82237619Y-104761094D02*
X81237619Y-104761094D01*
X81237619Y-104761094D02*
X81380476Y-104856332D01*
X81380476Y-104856332D02*
X81475714Y-104951570D01*
X81475714Y-104951570D02*
X81523333Y-105046808D01*
%TO.C,R9*%
X136492619Y-129212666D02*
X136016428Y-129545999D01*
X136492619Y-129784094D02*
X135492619Y-129784094D01*
X135492619Y-129784094D02*
X135492619Y-129403142D01*
X135492619Y-129403142D02*
X135540238Y-129307904D01*
X135540238Y-129307904D02*
X135587857Y-129260285D01*
X135587857Y-129260285D02*
X135683095Y-129212666D01*
X135683095Y-129212666D02*
X135825952Y-129212666D01*
X135825952Y-129212666D02*
X135921190Y-129260285D01*
X135921190Y-129260285D02*
X135968809Y-129307904D01*
X135968809Y-129307904D02*
X136016428Y-129403142D01*
X136016428Y-129403142D02*
X136016428Y-129784094D01*
X136492619Y-128736475D02*
X136492619Y-128545999D01*
X136492619Y-128545999D02*
X136445000Y-128450761D01*
X136445000Y-128450761D02*
X136397380Y-128403142D01*
X136397380Y-128403142D02*
X136254523Y-128307904D01*
X136254523Y-128307904D02*
X136064047Y-128260285D01*
X136064047Y-128260285D02*
X135683095Y-128260285D01*
X135683095Y-128260285D02*
X135587857Y-128307904D01*
X135587857Y-128307904D02*
X135540238Y-128355523D01*
X135540238Y-128355523D02*
X135492619Y-128450761D01*
X135492619Y-128450761D02*
X135492619Y-128641237D01*
X135492619Y-128641237D02*
X135540238Y-128736475D01*
X135540238Y-128736475D02*
X135587857Y-128784094D01*
X135587857Y-128784094D02*
X135683095Y-128831713D01*
X135683095Y-128831713D02*
X135921190Y-128831713D01*
X135921190Y-128831713D02*
X136016428Y-128784094D01*
X136016428Y-128784094D02*
X136064047Y-128736475D01*
X136064047Y-128736475D02*
X136111666Y-128641237D01*
X136111666Y-128641237D02*
X136111666Y-128450761D01*
X136111666Y-128450761D02*
X136064047Y-128355523D01*
X136064047Y-128355523D02*
X136016428Y-128307904D01*
X136016428Y-128307904D02*
X135921190Y-128260285D01*
%TO.C,U2*%
X108053095Y-105627619D02*
X108053095Y-106437142D01*
X108053095Y-106437142D02*
X108100714Y-106532380D01*
X108100714Y-106532380D02*
X108148333Y-106580000D01*
X108148333Y-106580000D02*
X108243571Y-106627619D01*
X108243571Y-106627619D02*
X108434047Y-106627619D01*
X108434047Y-106627619D02*
X108529285Y-106580000D01*
X108529285Y-106580000D02*
X108576904Y-106532380D01*
X108576904Y-106532380D02*
X108624523Y-106437142D01*
X108624523Y-106437142D02*
X108624523Y-105627619D01*
X109053095Y-105722857D02*
X109100714Y-105675238D01*
X109100714Y-105675238D02*
X109195952Y-105627619D01*
X109195952Y-105627619D02*
X109434047Y-105627619D01*
X109434047Y-105627619D02*
X109529285Y-105675238D01*
X109529285Y-105675238D02*
X109576904Y-105722857D01*
X109576904Y-105722857D02*
X109624523Y-105818095D01*
X109624523Y-105818095D02*
X109624523Y-105913333D01*
X109624523Y-105913333D02*
X109576904Y-106056190D01*
X109576904Y-106056190D02*
X109005476Y-106627619D01*
X109005476Y-106627619D02*
X109624523Y-106627619D01*
%TO.C,R1*%
X156492619Y-129212666D02*
X156016428Y-129545999D01*
X156492619Y-129784094D02*
X155492619Y-129784094D01*
X155492619Y-129784094D02*
X155492619Y-129403142D01*
X155492619Y-129403142D02*
X155540238Y-129307904D01*
X155540238Y-129307904D02*
X155587857Y-129260285D01*
X155587857Y-129260285D02*
X155683095Y-129212666D01*
X155683095Y-129212666D02*
X155825952Y-129212666D01*
X155825952Y-129212666D02*
X155921190Y-129260285D01*
X155921190Y-129260285D02*
X155968809Y-129307904D01*
X155968809Y-129307904D02*
X156016428Y-129403142D01*
X156016428Y-129403142D02*
X156016428Y-129784094D01*
X156492619Y-128260285D02*
X156492619Y-128831713D01*
X156492619Y-128545999D02*
X155492619Y-128545999D01*
X155492619Y-128545999D02*
X155635476Y-128641237D01*
X155635476Y-128641237D02*
X155730714Y-128736475D01*
X155730714Y-128736475D02*
X155778333Y-128831713D01*
%TO.C,R2*%
X143146619Y-100981666D02*
X142670428Y-101314999D01*
X143146619Y-101553094D02*
X142146619Y-101553094D01*
X142146619Y-101553094D02*
X142146619Y-101172142D01*
X142146619Y-101172142D02*
X142194238Y-101076904D01*
X142194238Y-101076904D02*
X142241857Y-101029285D01*
X142241857Y-101029285D02*
X142337095Y-100981666D01*
X142337095Y-100981666D02*
X142479952Y-100981666D01*
X142479952Y-100981666D02*
X142575190Y-101029285D01*
X142575190Y-101029285D02*
X142622809Y-101076904D01*
X142622809Y-101076904D02*
X142670428Y-101172142D01*
X142670428Y-101172142D02*
X142670428Y-101553094D01*
X142241857Y-100600713D02*
X142194238Y-100553094D01*
X142194238Y-100553094D02*
X142146619Y-100457856D01*
X142146619Y-100457856D02*
X142146619Y-100219761D01*
X142146619Y-100219761D02*
X142194238Y-100124523D01*
X142194238Y-100124523D02*
X142241857Y-100076904D01*
X142241857Y-100076904D02*
X142337095Y-100029285D01*
X142337095Y-100029285D02*
X142432333Y-100029285D01*
X142432333Y-100029285D02*
X142575190Y-100076904D01*
X142575190Y-100076904D02*
X143146619Y-100648332D01*
X143146619Y-100648332D02*
X143146619Y-100029285D01*
%TO.C,R4*%
X116355333Y-77010619D02*
X116022000Y-76534428D01*
X115783905Y-77010619D02*
X115783905Y-76010619D01*
X115783905Y-76010619D02*
X116164857Y-76010619D01*
X116164857Y-76010619D02*
X116260095Y-76058238D01*
X116260095Y-76058238D02*
X116307714Y-76105857D01*
X116307714Y-76105857D02*
X116355333Y-76201095D01*
X116355333Y-76201095D02*
X116355333Y-76343952D01*
X116355333Y-76343952D02*
X116307714Y-76439190D01*
X116307714Y-76439190D02*
X116260095Y-76486809D01*
X116260095Y-76486809D02*
X116164857Y-76534428D01*
X116164857Y-76534428D02*
X115783905Y-76534428D01*
X117212476Y-76343952D02*
X117212476Y-77010619D01*
X116974381Y-75963000D02*
X116736286Y-76677285D01*
X116736286Y-76677285D02*
X117355333Y-76677285D01*
%TO.C,U3*%
X97788626Y-86586367D02*
X97788626Y-87396203D01*
X97788626Y-87396203D02*
X97836263Y-87491478D01*
X97836263Y-87491478D02*
X97883901Y-87539116D01*
X97883901Y-87539116D02*
X97979175Y-87586753D01*
X97979175Y-87586753D02*
X98169725Y-87586753D01*
X98169725Y-87586753D02*
X98265000Y-87539116D01*
X98265000Y-87539116D02*
X98312637Y-87491478D01*
X98312637Y-87491478D02*
X98360275Y-87396203D01*
X98360275Y-87396203D02*
X98360275Y-86586367D01*
X98741374Y-86586367D02*
X99360660Y-86586367D01*
X99360660Y-86586367D02*
X99027198Y-86967466D01*
X99027198Y-86967466D02*
X99170111Y-86967466D01*
X99170111Y-86967466D02*
X99265386Y-87015104D01*
X99265386Y-87015104D02*
X99313023Y-87062741D01*
X99313023Y-87062741D02*
X99360660Y-87158016D01*
X99360660Y-87158016D02*
X99360660Y-87396203D01*
X99360660Y-87396203D02*
X99313023Y-87491478D01*
X99313023Y-87491478D02*
X99265386Y-87539116D01*
X99265386Y-87539116D02*
X99170111Y-87586753D01*
X99170111Y-87586753D02*
X98884286Y-87586753D01*
X98884286Y-87586753D02*
X98789011Y-87539116D01*
X98789011Y-87539116D02*
X98741374Y-87491478D01*
%TO.C,LCD_HDR1*%
X84287619Y-64574428D02*
X84287619Y-65050618D01*
X84287619Y-65050618D02*
X83287619Y-65050618D01*
X84192380Y-63669666D02*
X84240000Y-63717285D01*
X84240000Y-63717285D02*
X84287619Y-63860142D01*
X84287619Y-63860142D02*
X84287619Y-63955380D01*
X84287619Y-63955380D02*
X84240000Y-64098237D01*
X84240000Y-64098237D02*
X84144761Y-64193475D01*
X84144761Y-64193475D02*
X84049523Y-64241094D01*
X84049523Y-64241094D02*
X83859047Y-64288713D01*
X83859047Y-64288713D02*
X83716190Y-64288713D01*
X83716190Y-64288713D02*
X83525714Y-64241094D01*
X83525714Y-64241094D02*
X83430476Y-64193475D01*
X83430476Y-64193475D02*
X83335238Y-64098237D01*
X83335238Y-64098237D02*
X83287619Y-63955380D01*
X83287619Y-63955380D02*
X83287619Y-63860142D01*
X83287619Y-63860142D02*
X83335238Y-63717285D01*
X83335238Y-63717285D02*
X83382857Y-63669666D01*
X84287619Y-63241094D02*
X83287619Y-63241094D01*
X83287619Y-63241094D02*
X83287619Y-63002999D01*
X83287619Y-63002999D02*
X83335238Y-62860142D01*
X83335238Y-62860142D02*
X83430476Y-62764904D01*
X83430476Y-62764904D02*
X83525714Y-62717285D01*
X83525714Y-62717285D02*
X83716190Y-62669666D01*
X83716190Y-62669666D02*
X83859047Y-62669666D01*
X83859047Y-62669666D02*
X84049523Y-62717285D01*
X84049523Y-62717285D02*
X84144761Y-62764904D01*
X84144761Y-62764904D02*
X84240000Y-62860142D01*
X84240000Y-62860142D02*
X84287619Y-63002999D01*
X84287619Y-63002999D02*
X84287619Y-63241094D01*
X84382857Y-62479190D02*
X84382857Y-61717285D01*
X84287619Y-61479189D02*
X83287619Y-61479189D01*
X83763809Y-61479189D02*
X83763809Y-60907761D01*
X84287619Y-60907761D02*
X83287619Y-60907761D01*
X84287619Y-60431570D02*
X83287619Y-60431570D01*
X83287619Y-60431570D02*
X83287619Y-60193475D01*
X83287619Y-60193475D02*
X83335238Y-60050618D01*
X83335238Y-60050618D02*
X83430476Y-59955380D01*
X83430476Y-59955380D02*
X83525714Y-59907761D01*
X83525714Y-59907761D02*
X83716190Y-59860142D01*
X83716190Y-59860142D02*
X83859047Y-59860142D01*
X83859047Y-59860142D02*
X84049523Y-59907761D01*
X84049523Y-59907761D02*
X84144761Y-59955380D01*
X84144761Y-59955380D02*
X84240000Y-60050618D01*
X84240000Y-60050618D02*
X84287619Y-60193475D01*
X84287619Y-60193475D02*
X84287619Y-60431570D01*
X84287619Y-58860142D02*
X83811428Y-59193475D01*
X84287619Y-59431570D02*
X83287619Y-59431570D01*
X83287619Y-59431570D02*
X83287619Y-59050618D01*
X83287619Y-59050618D02*
X83335238Y-58955380D01*
X83335238Y-58955380D02*
X83382857Y-58907761D01*
X83382857Y-58907761D02*
X83478095Y-58860142D01*
X83478095Y-58860142D02*
X83620952Y-58860142D01*
X83620952Y-58860142D02*
X83716190Y-58907761D01*
X83716190Y-58907761D02*
X83763809Y-58955380D01*
X83763809Y-58955380D02*
X83811428Y-59050618D01*
X83811428Y-59050618D02*
X83811428Y-59431570D01*
X84287619Y-57907761D02*
X84287619Y-58479189D01*
X84287619Y-58193475D02*
X83287619Y-58193475D01*
X83287619Y-58193475D02*
X83430476Y-58288713D01*
X83430476Y-58288713D02*
X83525714Y-58383951D01*
X83525714Y-58383951D02*
X83573333Y-58479189D01*
%TO.C,PWR_LED1*%
X81522381Y-82717619D02*
X81522381Y-81717619D01*
X81522381Y-81717619D02*
X81903333Y-81717619D01*
X81903333Y-81717619D02*
X81998571Y-81765238D01*
X81998571Y-81765238D02*
X82046190Y-81812857D01*
X82046190Y-81812857D02*
X82093809Y-81908095D01*
X82093809Y-81908095D02*
X82093809Y-82050952D01*
X82093809Y-82050952D02*
X82046190Y-82146190D01*
X82046190Y-82146190D02*
X81998571Y-82193809D01*
X81998571Y-82193809D02*
X81903333Y-82241428D01*
X81903333Y-82241428D02*
X81522381Y-82241428D01*
X82427143Y-81717619D02*
X82665238Y-82717619D01*
X82665238Y-82717619D02*
X82855714Y-82003333D01*
X82855714Y-82003333D02*
X83046190Y-82717619D01*
X83046190Y-82717619D02*
X83284286Y-81717619D01*
X84236666Y-82717619D02*
X83903333Y-82241428D01*
X83665238Y-82717619D02*
X83665238Y-81717619D01*
X83665238Y-81717619D02*
X84046190Y-81717619D01*
X84046190Y-81717619D02*
X84141428Y-81765238D01*
X84141428Y-81765238D02*
X84189047Y-81812857D01*
X84189047Y-81812857D02*
X84236666Y-81908095D01*
X84236666Y-81908095D02*
X84236666Y-82050952D01*
X84236666Y-82050952D02*
X84189047Y-82146190D01*
X84189047Y-82146190D02*
X84141428Y-82193809D01*
X84141428Y-82193809D02*
X84046190Y-82241428D01*
X84046190Y-82241428D02*
X83665238Y-82241428D01*
X84427143Y-82812857D02*
X85189047Y-82812857D01*
X85903333Y-82717619D02*
X85427143Y-82717619D01*
X85427143Y-82717619D02*
X85427143Y-81717619D01*
X86236667Y-82193809D02*
X86570000Y-82193809D01*
X86712857Y-82717619D02*
X86236667Y-82717619D01*
X86236667Y-82717619D02*
X86236667Y-81717619D01*
X86236667Y-81717619D02*
X86712857Y-81717619D01*
X87141429Y-82717619D02*
X87141429Y-81717619D01*
X87141429Y-81717619D02*
X87379524Y-81717619D01*
X87379524Y-81717619D02*
X87522381Y-81765238D01*
X87522381Y-81765238D02*
X87617619Y-81860476D01*
X87617619Y-81860476D02*
X87665238Y-81955714D01*
X87665238Y-81955714D02*
X87712857Y-82146190D01*
X87712857Y-82146190D02*
X87712857Y-82289047D01*
X87712857Y-82289047D02*
X87665238Y-82479523D01*
X87665238Y-82479523D02*
X87617619Y-82574761D01*
X87617619Y-82574761D02*
X87522381Y-82670000D01*
X87522381Y-82670000D02*
X87379524Y-82717619D01*
X87379524Y-82717619D02*
X87141429Y-82717619D01*
X88665238Y-82717619D02*
X88093810Y-82717619D01*
X88379524Y-82717619D02*
X88379524Y-81717619D01*
X88379524Y-81717619D02*
X88284286Y-81860476D01*
X88284286Y-81860476D02*
X88189048Y-81955714D01*
X88189048Y-81955714D02*
X88093810Y-82003333D01*
%TO.C,HALL_HDR1*%
X169629619Y-119707761D02*
X168629619Y-119707761D01*
X169105809Y-119707761D02*
X169105809Y-119136333D01*
X169629619Y-119136333D02*
X168629619Y-119136333D01*
X169343904Y-118707761D02*
X169343904Y-118231571D01*
X169629619Y-118802999D02*
X168629619Y-118469666D01*
X168629619Y-118469666D02*
X169629619Y-118136333D01*
X169629619Y-117326809D02*
X169629619Y-117802999D01*
X169629619Y-117802999D02*
X168629619Y-117802999D01*
X169629619Y-116517285D02*
X169629619Y-116993475D01*
X169629619Y-116993475D02*
X168629619Y-116993475D01*
X169724857Y-116422047D02*
X169724857Y-115660142D01*
X169629619Y-115422046D02*
X168629619Y-115422046D01*
X169105809Y-115422046D02*
X169105809Y-114850618D01*
X169629619Y-114850618D02*
X168629619Y-114850618D01*
X169629619Y-114374427D02*
X168629619Y-114374427D01*
X168629619Y-114374427D02*
X168629619Y-114136332D01*
X168629619Y-114136332D02*
X168677238Y-113993475D01*
X168677238Y-113993475D02*
X168772476Y-113898237D01*
X168772476Y-113898237D02*
X168867714Y-113850618D01*
X168867714Y-113850618D02*
X169058190Y-113802999D01*
X169058190Y-113802999D02*
X169201047Y-113802999D01*
X169201047Y-113802999D02*
X169391523Y-113850618D01*
X169391523Y-113850618D02*
X169486761Y-113898237D01*
X169486761Y-113898237D02*
X169582000Y-113993475D01*
X169582000Y-113993475D02*
X169629619Y-114136332D01*
X169629619Y-114136332D02*
X169629619Y-114374427D01*
X169629619Y-112802999D02*
X169153428Y-113136332D01*
X169629619Y-113374427D02*
X168629619Y-113374427D01*
X168629619Y-113374427D02*
X168629619Y-112993475D01*
X168629619Y-112993475D02*
X168677238Y-112898237D01*
X168677238Y-112898237D02*
X168724857Y-112850618D01*
X168724857Y-112850618D02*
X168820095Y-112802999D01*
X168820095Y-112802999D02*
X168962952Y-112802999D01*
X168962952Y-112802999D02*
X169058190Y-112850618D01*
X169058190Y-112850618D02*
X169105809Y-112898237D01*
X169105809Y-112898237D02*
X169153428Y-112993475D01*
X169153428Y-112993475D02*
X169153428Y-113374427D01*
X169629619Y-111850618D02*
X169629619Y-112422046D01*
X169629619Y-112136332D02*
X168629619Y-112136332D01*
X168629619Y-112136332D02*
X168772476Y-112231570D01*
X168772476Y-112231570D02*
X168867714Y-112326808D01*
X168867714Y-112326808D02*
X168915333Y-112422046D01*
%TO.C,R7*%
X161290619Y-100120666D02*
X160814428Y-100453999D01*
X161290619Y-100692094D02*
X160290619Y-100692094D01*
X160290619Y-100692094D02*
X160290619Y-100311142D01*
X160290619Y-100311142D02*
X160338238Y-100215904D01*
X160338238Y-100215904D02*
X160385857Y-100168285D01*
X160385857Y-100168285D02*
X160481095Y-100120666D01*
X160481095Y-100120666D02*
X160623952Y-100120666D01*
X160623952Y-100120666D02*
X160719190Y-100168285D01*
X160719190Y-100168285D02*
X160766809Y-100215904D01*
X160766809Y-100215904D02*
X160814428Y-100311142D01*
X160814428Y-100311142D02*
X160814428Y-100692094D01*
X160290619Y-99787332D02*
X160290619Y-99120666D01*
X160290619Y-99120666D02*
X161290619Y-99549237D01*
%TO.C,R11*%
X143030619Y-129117857D02*
X142554428Y-129451190D01*
X143030619Y-129689285D02*
X142030619Y-129689285D01*
X142030619Y-129689285D02*
X142030619Y-129308333D01*
X142030619Y-129308333D02*
X142078238Y-129213095D01*
X142078238Y-129213095D02*
X142125857Y-129165476D01*
X142125857Y-129165476D02*
X142221095Y-129117857D01*
X142221095Y-129117857D02*
X142363952Y-129117857D01*
X142363952Y-129117857D02*
X142459190Y-129165476D01*
X142459190Y-129165476D02*
X142506809Y-129213095D01*
X142506809Y-129213095D02*
X142554428Y-129308333D01*
X142554428Y-129308333D02*
X142554428Y-129689285D01*
X143030619Y-128165476D02*
X143030619Y-128736904D01*
X143030619Y-128451190D02*
X142030619Y-128451190D01*
X142030619Y-128451190D02*
X142173476Y-128546428D01*
X142173476Y-128546428D02*
X142268714Y-128641666D01*
X142268714Y-128641666D02*
X142316333Y-128736904D01*
X143030619Y-127213095D02*
X143030619Y-127784523D01*
X143030619Y-127498809D02*
X142030619Y-127498809D01*
X142030619Y-127498809D02*
X142173476Y-127594047D01*
X142173476Y-127594047D02*
X142268714Y-127689285D01*
X142268714Y-127689285D02*
X142316333Y-127784523D01*
D12*
%TO.C,HOLD_HDR1*%
X82860000Y-96698000D02*
X90160000Y-96698000D01*
X90160000Y-96698000D02*
X90160000Y-89088000D01*
X82860000Y-89088000D02*
X82860000Y-96698000D01*
X90160000Y-89088000D02*
X82860000Y-89088000D01*
D13*
X86660000Y-97198000D02*
G75*
G03*
X86660000Y-97198000I-100000J0D01*
G01*
D14*
%TO.C,R3*%
X126810000Y-75946000D02*
X123810000Y-75946000D01*
X123810000Y-76946000D02*
X123810000Y-74946000D01*
X123810000Y-74946000D02*
X109164000Y-74946000D01*
X109164000Y-76946000D02*
X123810000Y-76946000D01*
X109164000Y-74946000D02*
X109164000Y-76946000D01*
X105374000Y-75946000D02*
X109164000Y-75946000D01*
%TO.C,R10*%
X130000000Y-140222000D02*
X130000000Y-137222000D01*
X129000000Y-137222000D02*
X131000000Y-137222000D01*
X131000000Y-137222000D02*
X131000000Y-122576000D01*
X129000000Y-122576000D02*
X129000000Y-137222000D01*
X131000000Y-122576000D02*
X129000000Y-122576000D01*
X130000000Y-118786000D02*
X130000000Y-122576000D01*
D12*
%TO.C,SW3_HDR1*%
X82860000Y-141698000D02*
X90160000Y-141698000D01*
X90160000Y-141698000D02*
X90160000Y-134088000D01*
X82860000Y-134088000D02*
X82860000Y-141698000D01*
X90160000Y-134088000D02*
X82860000Y-134088000D01*
D13*
X86660000Y-142198000D02*
G75*
G03*
X86660000Y-142198000I-100000J0D01*
G01*
D14*
%TO.C,R12*%
X160000000Y-88778000D02*
X160000000Y-91778000D01*
X161000000Y-91778000D02*
X159000000Y-91778000D01*
X159000000Y-91778000D02*
X159000000Y-106424000D01*
X161000000Y-106424000D02*
X161000000Y-91778000D01*
X159000000Y-106424000D02*
X161000000Y-106424000D01*
X160000000Y-110214000D02*
X160000000Y-106424000D01*
D12*
%TO.C,PWR_HDR1*%
X82860000Y-126698000D02*
X90160000Y-126698000D01*
X90160000Y-126698000D02*
X90160000Y-119088000D01*
X82860000Y-119088000D02*
X82860000Y-126698000D01*
X90160000Y-119088000D02*
X82860000Y-119088000D01*
D13*
X86660000Y-127198000D02*
G75*
G03*
X86660000Y-127198000I-100000J0D01*
G01*
D12*
%TO.C,U1*%
X106205000Y-91705000D02*
X112555000Y-91705000D01*
X106205000Y-101295000D02*
X112555000Y-101295000D01*
D13*
X104445000Y-92690000D02*
G75*
G03*
X104445000Y-92690000I-100000J0D01*
G01*
D14*
%TO.C,R13*%
X105600000Y-70612000D02*
X108600000Y-70612000D01*
X108600000Y-69612000D02*
X108600000Y-71612000D01*
X108600000Y-71612000D02*
X123246000Y-71612000D01*
X123246000Y-69612000D02*
X108600000Y-69612000D01*
X123246000Y-71612000D02*
X123246000Y-69612000D01*
X127036000Y-70612000D02*
X123246000Y-70612000D01*
%TO.C,R5*%
X140000000Y-88778000D02*
X140000000Y-91778000D01*
X141000000Y-91778000D02*
X139000000Y-91778000D01*
X139000000Y-91778000D02*
X139000000Y-106424000D01*
X141000000Y-106424000D02*
X141000000Y-91778000D01*
X139000000Y-106424000D02*
X141000000Y-106424000D01*
X140000000Y-110214000D02*
X140000000Y-106424000D01*
D12*
%TO.C,NULL_HDR1*%
X82860000Y-111698000D02*
X90160000Y-111698000D01*
X90160000Y-111698000D02*
X90160000Y-104088000D01*
X82860000Y-104088000D02*
X82860000Y-111698000D01*
X90160000Y-104088000D02*
X82860000Y-104088000D01*
D13*
X86660000Y-112198000D02*
G75*
G03*
X86660000Y-112198000I-100000J0D01*
G01*
D14*
%TO.C,R9*%
X140000000Y-140222000D02*
X140000000Y-137222000D01*
X139000000Y-137222000D02*
X141000000Y-137222000D01*
X141000000Y-137222000D02*
X141000000Y-122576000D01*
X139000000Y-122576000D02*
X139000000Y-137222000D01*
X141000000Y-122576000D02*
X139000000Y-122576000D01*
X140000000Y-118786000D02*
X140000000Y-122576000D01*
D12*
%TO.C,U2*%
X106205000Y-107205000D02*
X112555000Y-107205000D01*
X106205000Y-116795000D02*
X112555000Y-116795000D01*
D13*
X104445000Y-108190000D02*
G75*
G03*
X104445000Y-108190000I-100000J0D01*
G01*
D14*
%TO.C,R1*%
X160000000Y-140222000D02*
X160000000Y-137222000D01*
X159000000Y-137222000D02*
X161000000Y-137222000D01*
X161000000Y-137222000D02*
X161000000Y-122576000D01*
X159000000Y-122576000D02*
X159000000Y-137222000D01*
X161000000Y-122576000D02*
X159000000Y-122576000D01*
X160000000Y-118786000D02*
X160000000Y-122576000D01*
%TO.C,R2*%
X130000000Y-88778000D02*
X130000000Y-91778000D01*
X131000000Y-91778000D02*
X129000000Y-91778000D01*
X129000000Y-91778000D02*
X129000000Y-106424000D01*
X131000000Y-106424000D02*
X131000000Y-91778000D01*
X129000000Y-106424000D02*
X131000000Y-106424000D01*
X130000000Y-110214000D02*
X130000000Y-106424000D01*
%TO.C,R4*%
X105346000Y-80518000D02*
X108346000Y-80518000D01*
X108346000Y-79518000D02*
X108346000Y-81518000D01*
X108346000Y-81518000D02*
X122992000Y-81518000D01*
X122992000Y-79518000D02*
X108346000Y-79518000D01*
X122992000Y-81518000D02*
X122992000Y-79518000D01*
X126782000Y-80518000D02*
X122992000Y-80518000D01*
D12*
%TO.C,U3*%
X95430000Y-88420000D02*
X123330000Y-88420000D01*
X95430000Y-142820000D02*
X95430000Y-88420000D01*
X123330000Y-88420000D02*
X123330000Y-142820000D01*
X123330000Y-142820000D02*
X95430000Y-142820000D01*
D13*
X94880000Y-95810000D02*
G75*
G03*
X94880000Y-95810000I-100000J0D01*
G01*
%TO.C,LCD_HDR1*%
X85710000Y-53518000D02*
X85710000Y-63678000D01*
X85710000Y-53518000D02*
X88250000Y-53518000D01*
X88250000Y-53518000D02*
X88250000Y-63678000D01*
X88250000Y-63678000D02*
X85710000Y-63678000D01*
D15*
X88504000Y-53264000D02*
X91980000Y-53264000D01*
X91980000Y-53264000D02*
X91980000Y-63932000D01*
X91980000Y-63932000D02*
X88504000Y-63932000D01*
X88504000Y-63932000D02*
X88504000Y-53264000D01*
X91980000Y-46264000D02*
X171980000Y-46264000D01*
X171980000Y-46264000D02*
X171980000Y-82264000D01*
X171980000Y-82264000D02*
X91980000Y-82264000D01*
X91980000Y-82264000D02*
X91980000Y-46264000D01*
D13*
X87080000Y-52868000D02*
G75*
G03*
X87080000Y-52868000I-100000J0D01*
G01*
D14*
%TO.C,PWR_LED1*%
X86630000Y-79085000D02*
X86630000Y-75225000D01*
X86630000Y-79085000D02*
X83510000Y-79085000D01*
X86340000Y-79215000D02*
X86340000Y-79215000D01*
X86340000Y-79215000D02*
X86340000Y-79085000D01*
X86340000Y-79085000D02*
X86340000Y-79215000D01*
X86340000Y-79085000D02*
X86340000Y-79085000D01*
X83800000Y-79215000D02*
X83800000Y-79215000D01*
X83800000Y-79215000D02*
X83800000Y-79085000D01*
X83800000Y-79085000D02*
X83800000Y-79215000D01*
X83800000Y-79085000D02*
X83800000Y-79085000D01*
X83510000Y-79085000D02*
X83510000Y-75225000D01*
X83510000Y-79085000D02*
X83110000Y-79085000D01*
X83510000Y-77965000D02*
X83510000Y-79085000D01*
X83110000Y-79085000D02*
X83110000Y-77965000D01*
X83110000Y-77965000D02*
X83510000Y-77965000D01*
X86630000Y-75225000D02*
G75*
G03*
X83510000Y-75225000I-1560000J0D01*
G01*
D12*
%TO.C,HALL_HDR1*%
X178352000Y-117978000D02*
X171052000Y-117978000D01*
X171052000Y-106558000D02*
X171052000Y-117978000D01*
X171052000Y-106558000D02*
X178352000Y-106558000D01*
X178352000Y-106558000D02*
X178352000Y-117978000D01*
D13*
X174852000Y-118628000D02*
G75*
G03*
X174852000Y-118628000I-100000J0D01*
G01*
D14*
%TO.C,R7*%
X150000000Y-88778000D02*
X150000000Y-91778000D01*
X151000000Y-91778000D02*
X149000000Y-91778000D01*
X149000000Y-91778000D02*
X149000000Y-106424000D01*
X151000000Y-106424000D02*
X151000000Y-91778000D01*
X149000000Y-106424000D02*
X151000000Y-106424000D01*
X150000000Y-110214000D02*
X150000000Y-106424000D01*
%TO.C,R11*%
X150000000Y-140222000D02*
X150000000Y-137222000D01*
X149000000Y-137222000D02*
X151000000Y-137222000D01*
X151000000Y-137222000D02*
X151000000Y-122576000D01*
X149000000Y-122576000D02*
X149000000Y-137222000D01*
X151000000Y-122576000D02*
X149000000Y-122576000D01*
X150000000Y-118786000D02*
X150000000Y-122576000D01*
%TD*%
M02*
